<svg preserveAspectRatio="none" width="100%" height="100%" overflow="visible" style="display: block;" viewBox="0 0 528.702 128.955" fill="none" xmlns="http://www.w3.org/2000/svg">
<g id="Group 10">
<path id="Vector" d="M62.3444 29.6779H98.8318C98.8318 36.2462 97.7794 43.0703 95.814 49.6386H97.2606C101.33 35.7202 107.497 29.6779 117.346 29.6779H124.17V63.8201H115.11C105.787 63.8201 101.725 69.9938 101.725 80.5002V99.2773H62.3444V29.6779Z" fill="var(--fill-0, #FFF8ED)"/>
<path id="Vector_2" d="M126.661 64.3466C126.661 38.6067 136.765 27.5815 161.578 27.5815C177.461 27.5815 188.223 30.8621 192.556 43.0781H193.213L194.266 29.6858H231.411V99.2851H190.196L192.293 78.2723H190.715C185.593 97.97 176.804 101.382 163.148 101.382C136.897 101.382 126.661 90.0866 126.661 64.3539V64.3466ZM190.32 59.8825V55.6814C187.566 54.4978 182.444 53.5772 177.717 53.5772C169.052 53.5772 165.245 56.7262 165.245 63.9521C165.245 71.178 169.183 74.4585 177.717 74.4585C186.777 74.4585 190.32 70.3889 190.32 59.8825Z" fill="var(--fill-0, #FFF8ED)"/>
<path id="Vector_3" d="M236.649 11.8216C236.649 2.89339 242.034 0.00011599 258.042 0.00011599C274.05 0.00011599 280.355 2.88608 280.355 11.8216C280.355 20.7572 274.707 23.7747 258.042 23.7747C241.376 23.7747 236.649 20.7572 236.649 11.8216ZM239.272 29.6781H277.732V99.2775H239.272V29.6781Z" fill="var(--fill-0, #FFF8ED)"/>
<path id="Vector_4" d="M285.608 29.6784H322.228C322.228 37.0358 320.518 44.3859 319.078 49.6391H320.525C324.726 32.1772 334.962 27.5815 348.092 27.5815C367.782 27.5815 377.492 37.1674 377.492 60.014V99.2778H340.347V67.8975C340.347 60.8031 337.724 57.7856 331.55 57.7856C325.377 57.7856 322.754 60.9346 322.754 68.1605V99.2851H285.608V29.6858V29.6784Z" fill="var(--fill-0, #FFF8ED)"/>
<path id="Vector_5" d="M384.046 5.64808H421.191V99.2777H384.046V5.64808Z" fill="var(--fill-0, #FFF8ED)"/>
<path id="Vector_6" d="M424.617 29.6779H466.49L472.788 58.4354C475.411 70.5199 475.673 74.984 476.068 79.4481H477.252C477.646 74.984 477.909 70.5199 480.532 58.3038L486.83 29.6779H528.702L504.942 99.0143H505.074C495.364 123.308 472.656 128.955 454.8 128.955C447.186 128.955 441.546 128.561 436.687 127.772V103.084C439.968 104.004 445.353 104.794 450.861 104.794C456.765 104.794 463.07 103.347 466.088 99.2773C455.567 99.2773 446.207 92.5921 442.788 82.641L424.61 29.6779H424.617Z" fill="var(--fill-0, #FFF8ED)"/>
<path id="Vector_7" d="M39.7531 53.8546H56.4408V29.9704H37.1449V14.7076H1.2291e-05C1.2291e-05 32.0673 11.2733 47.5054 27.727 52.1887H1.2291e-05V77.936C1.2291e-05 95.5879 5.12165 99.7013 27.1719 99.7013C37.408 99.7013 47.3884 99.0364 56.4408 97.714V72.7632C53.0288 73.428 48.5645 73.6911 44.758 73.6911C38.0654 73.6911 37.1449 72.8947 37.1449 67.057V53.7815C38.007 53.8327 38.8764 53.8619 39.7531 53.8619V53.8546Z" fill="var(--fill-0, #FFF8ED)"/>
</g>
</svg>
