<svg preserveAspectRatio="none" width="100%" height="100%" overflow="visible" style="display: block;" viewBox="0 0 150 151" fill="none" xmlns="http://www.w3.org/2000/svg">
<g id="submit 1 [Vectorized]" clip-path="url(#clip0_0_4)">
<path id="Vector" d="M35.7425 0H95.0735H102.398C106.685 1.83974 106.066 4.16969 106.072 8.26172C106.072 8.64917 106.016 9.27787 106.128 9.6323L106.176 9.65478C106.951 9.54013 107.815 9.64159 108.591 9.63967C110.549 9.63502 112.436 9.35441 114.116 10.6041C115.054 11.3014 115.8 12.4985 115.964 13.6587C116.071 14.4169 116.038 15.7149 116.038 16.5164L116.032 21.1163L116.03 37.3677L116.03 70.4234L116.031 81.164C116.033 83.0729 116.08 85.183 116.026 87.0764C116.056 87.0853 116.087 87.0941 116.117 87.1022C119.424 87.156 122.744 87.0403 126.056 87.0491C127.51 87.0536 128.896 87.0145 130.337 87.26C133.86 87.8528 136.972 89.9121 138.907 92.9336C139.915 94.549 140.559 96.3672 140.793 98.2606C141.012 100.118 140.921 102.858 140.919 104.814L140.916 115.382L140.918 130.925L140.921 135.67C140.921 137.647 141.001 139.29 140.55 141.25C139.815 144.548 137.782 147.405 134.917 149.167C134.088 149.683 133.514 149.956 132.629 150.322C132.216 150.493 130.467 150.872 130.3 151H87.98C87.3633 150.776 86.5122 150.571 85.8428 150.343C83.8799 149.672 82.1125 148.524 80.696 147.001C77.0281 143 77.1826 138.388 77.3752 133.311C74.165 133.311 70.9159 133.336 67.7089 133.292C65.779 133.34 63.7077 133.302 61.7686 133.302L50.9608 133.301L24.8724 133.308C23.1819 133.297 21.7161 133.132 20.477 131.824C19.0266 130.293 19.0908 128.582 19.0961 126.628C19.0958 125.643 19.1062 124.66 19.1276 123.675C18.8327 123.615 17.9866 123.658 17.6278 123.651C15.7308 123.613 13.6932 123.927 11.9109 123.116C10.048 122.269 9.1697 120.386 9.15989 118.407C9.15015 116.468 9.14751 114.528 9.14853 112.589L9.14963 101.946L9.14985 69.4835L9.15022 41.6924L9.14648 32.7086C9.14539 31.0065 9.13044 29.2967 9.16758 27.595C9.18765 26.6727 9.37932 26.1238 9.7533 25.2918C10.44 23.9889 11.8 22.839 12.8635 21.7841L15.7433 18.9014L27.1104 7.46005C28.5463 5.86943 30.1484 4.3837 31.6352 2.8378C32.5501 1.88654 33.3853 1.01302 34.5708 0.404062C34.9617 0.291496 35.3905 0.193204 35.7425 0Z" fill="var(--fill-0, white)"/>
<path id="Vector_2" d="M116.026 87.0764C116.056 87.0853 116.087 87.0941 116.117 87.1022C119.424 87.1561 122.744 87.0403 126.056 87.0491C127.51 87.0536 128.896 87.0145 130.337 87.26C133.86 87.8528 136.972 89.9121 138.907 92.9336C139.915 94.549 140.559 96.3672 140.793 98.2606C141.012 100.118 140.921 102.858 140.919 104.814L140.917 115.382L140.918 130.925L140.921 135.67C140.921 137.647 141.001 139.29 140.55 141.25C139.815 144.548 137.782 147.405 134.917 149.167C134.088 149.683 133.514 149.956 132.629 150.322C132.216 150.493 130.467 150.872 130.3 151H87.98C87.3633 150.776 86.5122 150.571 85.8428 150.343C83.8799 149.672 82.1126 148.524 80.6961 147.001C77.0281 143 77.1826 138.388 77.3753 133.311L77.376 123.684C77.3108 118.332 77.3782 112.851 77.3738 107.486L77.3701 102.281C77.3694 100.958 77.343 99.2582 77.532 97.9598C77.7649 96.3407 78.3113 94.7835 79.1397 93.3752C80.9128 90.3501 83.7151 88.3497 87.0762 87.4864C88.8779 87.0565 91.0371 87.1538 92.9055 87.1546L98.8674 87.1605C101.101 87.159 103.859 87.2386 106.047 87.1502L109.937 87.1472C110.55 87.1745 115.712 87.2165 116.026 87.0764Z" fill="var(--fill-0, #FEF8F1)"/>
<path id="Vector_3" d="M104.046 100.792C105.896 98.0261 109.088 97.1016 112.011 98.6927C113.224 99.3533 114.918 101.716 115.837 102.872L119.594 107.589L123.196 112.103C123.828 112.897 124.666 113.894 125.236 114.716C125.513 115.11 125.732 115.542 125.886 115.999C126.853 118.808 125.228 121.917 122.519 122.895C120.527 123.614 117.875 122.493 116.716 124.538C116.273 125.444 116.407 127.99 116.41 129.064L116.421 134.942C116.423 136.075 116.567 137.494 116.127 138.559C115.869 139.183 115.206 139.766 114.586 140.007C113.386 140.472 107.032 140.317 105.583 140.173C101.618 140.252 101.791 138.041 101.804 134.936L101.802 128.328C101.801 126.019 102.311 123.254 98.978 123.128C98.1467 123.097 97.2305 123.192 96.4124 123.055C95.6177 122.914 94.8699 122.578 94.2341 122.079C91.9856 120.334 91.3162 116.935 93.082 114.595C94.1082 113.235 95.2017 111.92 96.2651 110.588C98.8755 107.336 101.469 104.071 104.046 100.792Z" fill="var(--fill-0, #F5500E)"/>
<path id="Vector_4" d="M104.046 100.792C105.896 98.0261 109.088 97.1016 112.011 98.6927C113.224 99.3533 114.918 101.716 115.837 102.872L119.594 107.589L123.196 112.103C123.828 112.897 124.666 113.894 125.236 114.716C125.513 115.11 125.732 115.542 125.886 115.999C126.853 118.808 125.228 121.917 122.519 122.895C120.527 123.614 117.875 122.493 116.716 124.538C116.273 125.444 116.407 127.99 116.41 129.064L116.421 134.942C116.423 136.075 116.567 137.494 116.127 138.559C115.869 139.183 115.206 139.766 114.586 140.007C113.386 140.472 107.032 140.317 105.583 140.173C106.096 140.104 107.002 140.311 107.428 140.02C107.454 140.002 107.479 139.983 107.505 139.965C108.055 139.573 108.682 139.068 108.937 138.42C109.417 137.197 109.166 129.828 109.159 127.892C109.156 126.904 109.028 125.657 109.389 124.723C110.336 122.28 113.621 123.625 115.77 122.655C117.089 122.059 118.063 120.92 118.553 119.563C118.971 118.403 119.074 116.882 118.541 115.743C118.321 115.272 118.042 114.82 117.738 114.4C116.187 112.268 114.398 110.252 112.735 108.205C111.5 106.686 108.777 102.993 107.421 101.989C106.751 101.494 105.942 101.215 105.135 101.046C104.819 100.98 104.467 100.967 104.167 100.844C104.126 100.827 104.086 100.809 104.046 100.792Z" fill="var(--fill-0, #F5500E)"/>
<path id="Vector_5" d="M70.1838 123.622L70.1828 107.335L70.1796 102.338C70.1777 101.017 70.1458 99.601 70.3034 98.2982C70.4698 96.9128 70.8584 95.5643 71.4545 94.3042C72.8959 91.2938 75.4658 88.9838 78.5991 87.8816C79.3359 87.622 80.0947 87.434 80.8667 87.3197C82.4854 87.0808 84.3801 87.1376 86.02 87.1848C86.5232 87.1995 86.551 87.3264 86.9546 87.4502L87.0762 87.4864C83.7151 88.3497 80.9128 90.35 79.1397 93.3752C78.3113 94.7835 77.7649 96.3407 77.532 97.9598C77.343 99.2582 77.3694 100.958 77.3701 102.281L77.3738 107.486C77.3782 112.851 77.3108 118.332 77.376 123.684L77.3753 133.311C74.165 133.311 70.9159 133.336 67.7089 133.292C65.779 133.34 63.7077 133.302 61.7687 133.302L50.9608 133.301L24.8724 133.308C23.1819 133.297 21.7161 133.132 20.477 131.824C19.0266 130.293 19.0908 128.582 19.0961 126.628C19.0958 125.643 19.1063 124.66 19.1276 123.675C19.4804 123.717 21.8547 123.589 22.4467 123.583L31.0288 123.583L56.9249 123.583L65.283 123.584C66.8116 123.584 68.6829 123.539 70.1838 123.622Z" fill="var(--fill-0, #E6DDCE)"/>
<path id="Vector_6" d="M70.1682 123.631C72.498 123.743 75.0278 123.563 77.376 123.684L77.3753 133.311C74.165 133.311 70.9159 133.336 67.7089 133.292C68.2147 133.191 69.5696 133.227 70.1727 133.231L70.1682 123.631Z" fill="var(--fill-0, #DBCEB8)"/>
<path id="Vector_7" d="M106.176 9.65478C106.951 9.54013 107.815 9.64159 108.591 9.63967C110.549 9.63502 112.436 9.35441 114.116 10.6041C115.054 11.3014 115.8 12.4985 115.964 13.6587C116.071 14.4169 116.038 15.7149 116.038 16.5164L116.032 21.1163L116.03 37.3677L116.03 70.4234L116.031 81.164C116.033 83.0729 116.08 85.183 116.026 87.0764C115.712 87.2165 110.55 87.1745 109.937 87.1472L106.047 87.1502C105.961 86.7645 105.998 83.2697 105.998 82.6216L106.003 71.0126L106.004 27.9375C106.003 25.6847 105.854 10.2776 106.128 9.6323L106.176 9.65478Z" fill="var(--fill-0, #DBCEB8)"/>
<path id="Vector_8" d="M106.128 9.6323L106.176 9.65478C107.551 10.1683 108.918 11.1114 109.519 12.4945C109.92 13.4187 109.96 14.0543 109.966 15.054C109.977 17.0988 109.969 19.1495 109.969 21.1936L109.967 33.3182L109.968 69.5526V82.8067C109.968 83.5484 110.068 86.6591 109.937 87.1472L106.047 87.1502C105.961 86.7645 105.998 83.2697 105.998 82.6216L106.003 71.0126L106.004 27.9375C106.003 25.6847 105.854 10.2776 106.128 9.6323Z" fill="var(--fill-0, #E6DDCE)"/>
<path id="Vector_9" d="M95.0735 0H102.398C106.685 1.83974 106.066 4.16969 106.072 8.26172C106.072 8.64917 106.016 9.27787 106.128 9.63229C105.854 10.2776 106.003 25.6847 106.004 27.9375L106.003 71.0126L105.998 82.6216C105.998 83.2697 105.961 86.7645 106.047 87.1501C103.859 87.2386 101.101 87.159 98.8674 87.1605C98.8015 86.6584 98.8301 85.5214 98.8308 84.9677L98.8352 80.6862V66.2293L98.8337 17.329L98.8381 10.4135C98.8411 8.6606 98.8594 6.89479 98.8301 5.14093C98.7817 2.25893 97.522 1.10144 95.0735 0Z" fill="var(--fill-0, #DBCEB8)"/>
<path id="Vector_10" d="M9.7533 25.2918C10.44 23.9889 11.8 22.839 12.8635 21.7841L15.7433 18.9014L27.1104 7.46005C27.2774 7.64261 27.35 7.72695 27.3557 7.99629C27.443 12.1644 27.3929 16.3651 27.3872 20.5333C27.3842 22.6254 26.3964 24.1955 24.5402 25.0936C24.3032 25.2098 23.9829 25.3561 23.7624 25.4903C25.705 25.593 28.053 25.5186 30.0332 25.5166C29.7554 25.5879 29.3709 25.593 29.0793 25.5935C23.1733 25.6031 17.2693 25.4697 11.3621 25.5062C10.6867 25.5104 10.4944 25.4211 9.89019 25.3152L9.7533 25.2918Z" fill="var(--fill-0, #E6DDCE)"/>
<path id="Vector_11" d="M27.1104 7.46005C28.5463 5.86943 30.1484 4.3837 31.6352 2.8378C32.5501 1.88654 33.3853 1.01302 34.5708 0.404062L34.5922 14.5576L34.5913 18.4929C34.591 20.5821 34.8126 22.4068 33.2608 24.0263C32.4097 24.9146 31.2571 25.4467 30.0332 25.5166C28.053 25.5186 25.705 25.593 23.7624 25.4903C23.9829 25.3561 24.3032 25.2098 24.5402 25.0936C26.3964 24.1955 27.3842 22.6254 27.3872 20.5333C27.3929 16.3651 27.443 12.1644 27.3557 7.99629C27.35 7.72695 27.2774 7.64261 27.1104 7.46005Z" fill="var(--fill-0, #E6DDCE)"/>
<path id="Vector_12" d="M26.6284 40.4359C30.4047 40.3222 34.648 40.4194 38.457 40.4195L61.1989 40.4198L79.4319 40.4194C82.5256 40.4185 85.5857 40.412 88.7117 40.4319C90.8013 40.4452 92.0925 42.3095 90.7485 44.148C90.3186 44.7366 89.6426 44.9253 88.9343 44.977L47.4465 44.9788L33.6376 44.9803C31.2357 44.9828 28.86 44.9934 26.4305 44.9673C23.8669 44.9398 23.1335 41.8715 25.331 40.6653C25.6821 40.4726 26.2226 40.4569 26.6284 40.4359Z" fill="var(--fill-0, #524F47)"/>
<path id="Vector_13" d="M26.0069 53.9827C29.6404 53.8664 33.7628 53.9591 37.4238 53.9591L58.9847 53.9596L78.5903 53.9584C82.0657 53.9566 85.5425 53.9392 89.0178 53.9732C90.0637 53.9835 90.9778 54.6457 91.2297 55.6852C91.3674 56.2634 91.2693 56.8731 90.958 57.3781C90.5486 58.0463 90.0542 58.3048 89.3254 58.4613C85.968 58.5837 82.0005 58.4826 78.6035 58.4825L58.1242 58.482L37.0636 58.482C33.4894 58.4823 29.9147 58.5006 26.341 58.4744C25.2373 58.4663 24.3348 57.7992 24.0872 56.696C23.9545 56.0823 24.0862 55.4409 24.4495 54.9304C24.8687 54.3363 25.3258 54.1151 26.0069 53.9827Z" fill="var(--fill-0, #524F47)"/>
<path id="Vector_14" d="M25.9524 67.4877C27.7094 67.3744 30.5854 67.4611 32.4266 67.461L44.8384 67.4616L59.0339 67.4594C61.4887 67.458 63.9733 67.4423 66.4281 67.4753C66.9635 67.4825 67.4331 67.5335 67.8922 67.8151C68.3981 68.1211 68.7541 68.6259 68.8742 69.2075C69.1589 70.5267 68.3963 71.6614 67.0958 71.9468C65.9245 72.0979 63.5608 72.0299 62.2863 72.0302L53.5405 72.0318L36.0737 72.0321C33.0915 72.0317 30.1037 72.0353 27.1219 72.0254C26.638 71.9864 25.8159 72.0235 25.3787 71.8291C24.211 71.31 23.716 69.8227 24.2858 68.6775C24.6106 68.0247 25.2476 67.662 25.9524 67.4877Z" fill="var(--fill-0, #524F47)"/>
<path id="Vector_15" d="M26.3218 94.4745C27.5678 94.4082 29.4285 94.4598 30.705 94.4598H39.0709L48.4169 94.4605C50.0062 94.4605 51.6147 94.448 53.2032 94.4716C53.7436 94.5173 54.29 94.5173 54.7783 94.7827C55.8993 95.391 56.2282 97.0241 55.5119 98.0578C55.1054 98.6447 54.5273 98.8858 53.8435 99.0163C48.1781 99.1092 42.3086 99.0281 36.6277 99.0311L29.97 99.034C28.9486 99.034 25.7289 99.2007 25.0513 98.6632C23.2113 97.204 23.9843 94.7414 26.3218 94.4745Z" fill="var(--fill-0, #524F47)"/>
<path id="Vector_16" d="M26.1093 80.9826C27.6075 80.8926 29.8295 80.9583 31.3644 80.9583L41.4809 80.9568L49.4684 80.9575C50.872 80.9575 52.3374 80.9273 53.7373 81.0003C54.2823 81.0283 54.6424 81.1352 55.077 81.4899C55.5324 81.8607 55.8215 82.3997 55.8802 82.9873C56.0283 84.3941 55.1305 85.3202 53.7874 85.4905C52.4971 85.5797 50.7426 85.5259 49.4124 85.5266L41.6027 85.5281H31.867C30.6902 85.5281 25.9247 85.6785 25.1836 85.2295C24.6094 84.8829 24.207 84.3093 24.0752 83.6487C23.7973 82.2714 24.8052 81.206 26.1093 80.9826Z" fill="var(--fill-0, #524F47)"/>
<path id="Vector_17" d="M45.0563 13.4136C46.5545 13.3236 48.7765 13.3893 50.3115 13.3893L76.8832 13.3878L84.8707 13.3885C86.2743 13.3885 87.7398 13.3583 89.1397 13.4313C89.6847 13.4593 90.0448 13.5662 90.4793 13.9209C90.9347 14.2917 91.2239 14.8307 91.2826 15.4183C91.4307 16.8251 90.5329 17.7512 89.1898 17.9215C87.8994 18.0107 86.1449 17.9569 84.8148 17.9576L77.0051 17.9591H50.814C49.6373 17.9591 44.8718 18.1095 44.1306 17.6605C43.5565 17.3139 43.154 16.7403 43.0223 16.0797C42.7443 14.7024 43.7523 13.637 45.0563 13.4136Z" fill="var(--fill-0, #524F47)"/>
<path id="Vector_18" d="M45.0563 26.9209C46.5545 26.8309 48.7765 26.8965 50.3115 26.8965L76.8832 26.8951L84.8707 26.8958C86.2743 26.8958 87.7398 26.8656 89.1397 26.9386C89.6847 26.9666 90.0448 27.0735 90.4793 27.4281C90.9348 27.799 91.2239 28.338 91.2826 28.9256C91.4307 30.3324 90.5329 31.2584 89.1898 31.4288C87.8994 31.518 86.1449 31.4641 84.8148 31.4649L77.0051 31.4664H50.8141C49.6373 31.4664 44.8718 31.6168 44.1306 31.1677C43.5565 30.8212 43.154 30.2476 43.0223 29.587C42.7443 28.2097 43.7523 27.1443 45.0563 26.9209Z" fill="var(--fill-0, #524F47)"/>
<path id="Vector_19" d="M77.0266 67.4835C80.5928 67.2732 84.4636 67.5985 88.0539 67.4539C88.6216 67.4311 89.581 67.4667 90.0806 67.7312C90.6365 68.0304 91.0459 68.5449 91.2158 69.1554C91.5791 70.4429 90.7024 71.6701 89.4331 71.9472C88.4121 72.1024 87.0886 72.0202 86.0413 72.0304C83.2112 72.058 80.3635 72.021 77.5356 72.0086C74.4983 71.9952 74.1511 68.0697 77.0266 67.4835Z" fill="var(--fill-0, #524F47)"/>
</g>
<defs>
<clipPath id="clip0_0_4">
<rect width="150" height="151" fill="white"/>
</clipPath>
</defs>
</svg>
