<svg preserveAspectRatio="none" width="100%" height="100%" overflow="visible" style="display: block;" viewBox="0 0 28.4965 28.4965" fill="none" xmlns="http://www.w3.org/2000/svg">
<g id="Group 19">
<circle id="Ellipse 31" cx="14.2483" cy="14.2483" r="13.2483" fill="var(--fill-0, #FFF8ED)" stroke="var(--stroke-0, #242520)" stroke-width="2"/>
<path id="Vector" d="M26.566 14.1788C26.566 20.9832 21.0507 26.4965 14.2483 26.4965C7.44583 26.4965 1.93051 20.9832 1.93051 14.1788C1.93051 7.37833 7.44583 1.86102 14.2483 1.86102C21.0507 1.86102 26.566 7.37833 26.566 14.1788ZM14.5788 5.93383C11.872 5.93383 10.1457 7.07406 8.79001 9.10058C8.61438 9.36313 8.67314 9.71721 8.92486 9.90809L10.6483 11.2149C10.9068 11.4109 11.2752 11.3643 11.476 11.1095C12.3633 9.98408 12.9717 9.33149 14.3222 9.33149C15.3368 9.33149 16.5919 9.98453 16.5919 10.9685C16.5919 11.7123 15.9779 12.0943 14.976 12.656C13.8076 13.311 12.2615 14.1262 12.2615 16.1655V16.3642C12.2615 16.6933 12.5284 16.9602 12.8575 16.9602H15.639C15.9681 16.9602 16.235 16.6933 16.235 16.3642V16.298C16.235 14.8843 20.3667 14.8255 20.3667 11C20.3667 8.11913 17.3784 5.93383 14.5788 5.93383ZM14.2483 18.2516C12.9884 18.2516 11.9635 19.2765 11.9635 20.5363C11.9635 21.7961 12.9884 22.8211 14.2483 22.8211C15.5081 22.8211 16.533 21.7961 16.533 20.5363C16.533 19.2765 15.5081 18.2516 14.2483 18.2516Z" fill="var(--fill-0, #F5500E)"/>
</g>
</svg>
