<svg preserveAspectRatio="none" width="100%" height="100%" overflow="visible" style="display: block;" viewBox="0 0 90.3359 94.575" fill="none" xmlns="http://www.w3.org/2000/svg">
<g id="Vector" opacity="0.15">
<path d="M89.4846 52.7315C85.4833 48.7006 81.4746 44.6735 77.4327 40.6869C76.58 39.849 75.7125 39.7014 74.7196 40.4359C73.8263 41.1188 73.0364 41.9973 72.2391 42.7983C70.9582 44.0755 69.6847 45.3674 68.4297 46.6705L68.415 7.47313C68.415 5.81946 68.4334 4.13625 68.3928 2.48626C68.3854 2.08391 68.2562 0.943315 67.972 0.659089C67.5733 0.256743 66.9754 0.0869552 66.418 0.068499C63.8636 -0.00532594 61.2429 0.0278894 58.6885 0.0278894H16.6379C12.1013 0.0278894 7.42453 -0.0348618 2.90275 0.0278894C2.55947 0.0352719 2.21986 0.0426607 1.87658 0.0574257C0.363167 0.301048 0.016194 0.980233 0.0125028 2.46411C0.00142906 7.97514 0.0125028 13.4862 0.0125028 18.9972V65.7542C0.0125028 67.2344 -0.0539477 70.5454 0.119541 71.8448C0.193366 72.4021 4.68192 76.7061 5.38326 77.4075L13.5372 85.5467C14.8292 86.8423 21.4439 93.767 22.4627 94.2986C22.8465 94.5016 23.3449 94.5127 23.7693 94.5274C25.8328 94.5976 27.9146 94.5385 29.978 94.5385L57.9613 94.5311C60.907 94.5311 64.3546 94.712 67.2817 94.3392C68.127 94.2322 68.3559 92.9845 68.3928 92.309C68.4888 87.2299 68.3596 82.1286 68.415 77.0531C69.9136 75.5286 71.4233 74.0152 72.9404 72.5092L84.1286 61.3284C86 59.4569 87.9084 57.6076 89.706 55.6771C90.699 54.6103 90.4369 53.6986 89.4846 52.7389V52.7315ZM21.4254 88.1637C21.1633 87.9755 19.7127 86.4953 19.3989 86.1815L8.77182 75.5618C8.38424 75.1743 6.61244 73.4689 6.39835 73.1441C11.1785 72.989 16.5936 73.1145 21.4254 73.1219V88.1637ZM25.1277 90.8325C25.0207 84.8416 25.1794 78.799 25.1351 72.8008C25.1203 70.9552 25.2606 69.5193 22.8908 69.4491C20.7204 69.3827 18.561 69.4159 16.3979 69.4159H3.71481L3.71114 3.73021L64.7274 3.7376C64.6683 8.93856 64.7274 14.2503 64.7274 19.4586V50.3839C64.3767 50.6718 63.9892 51.0741 63.668 51.3989C59.8513 55.2821 55.8942 59.062 52.1218 62.9821C50.2983 62.9119 48.043 62.971 46.19 62.971L27.2723 62.9673C25.9066 62.9673 24.4818 62.9378 23.1197 63.0079C22.6804 63.0301 22.3261 63.1519 21.9865 63.4508C21.5878 63.8126 21.359 64.3294 21.359 64.8683C21.3627 65.6471 22.0861 66.5626 22.8761 66.6179C24.1569 66.7102 25.4968 66.6696 26.7851 66.6696L48.4453 66.6622C44.2668 70.3313 43.3145 74.2441 40.2508 78.5997C38.7853 80.6816 35.4521 82.7782 34.0421 85.0225C33.5327 85.8309 34.0421 86.7721 34.7397 87.3C36.5484 88.4517 38.5823 89.8839 40.5091 90.8104C35.5629 90.7144 30.1367 90.8362 25.1351 90.8362L25.1277 90.8325ZM46.2896 90.1459C46.0128 89.954 45.7249 89.7842 45.437 89.607C44.4588 88.9352 43.1336 88.1785 42.0927 87.5288C41.0591 86.8829 39.6786 85.9748 38.6266 85.4322L41.8786 82.2282C42.2256 82.3759 47.3675 87.6433 48.0799 88.3409C47.5004 88.8872 46.8581 89.5664 46.2896 90.1386V90.1459ZM44.2152 79.2494C45.3041 77.5809 46.5369 75.2924 47.5557 73.5317C48.4675 74.6169 50.9037 76.9165 51.9815 77.9944C53.1627 79.1719 55.5436 81.7041 56.7469 82.6859L50.9369 86.0339C49.1946 84.048 46.1604 81.1984 44.2189 79.2457L44.2152 79.2494ZM64.7163 90.8288C60.1945 90.851 55.6728 90.8436 51.151 90.814L50.9664 90.7845L50.9591 90.6443C53.196 88.3926 57.8248 86.702 60.4751 84.7715C61.8925 83.7379 63.3395 82.1212 64.5613 80.8514L64.6167 80.8772C64.7791 81.1393 64.7163 89.7768 64.7163 90.8288ZM82.6853 57.519L59.7221 80.4933L56.0271 76.8095C57.4409 75.4917 59.0576 73.7937 60.4419 72.4095L68.9243 63.9233C70.2163 62.6203 74.0515 59.8667 72.2169 58.0358C70.6002 56.4264 68.7435 58.8848 67.721 59.911L53.4322 74.2145L49.7409 70.5307C52.5168 67.8361 55.3184 64.9606 58.0573 62.2217L75.8823 44.404C76.2182 44.6403 78.3149 46.7923 78.7394 47.2131C81.1276 49.5681 83.4752 52.0154 85.8856 54.3556C84.8853 55.2563 83.6524 56.5482 82.6779 57.5227L82.6853 57.519Z" fill="#242520"/>
<path d="M15.8221 48.2798C18.3838 48.3167 20.9455 48.302 23.5073 48.302H48.0356C49.3497 48.302 52.0147 48.3758 53.2255 48.254C54.2406 47.966 54.7721 47.261 54.7795 46.1979C54.8016 43.2486 54.7463 40.3141 54.7869 37.3611C54.8053 36.0692 54.8902 34.5373 54.5838 33.297C54.355 32.3669 53.2218 32.1158 52.3986 32.1417C49.9956 32.1085 47.589 32.1232 45.1823 32.1232H21.3516C19.5023 32.1232 17.2248 32.0568 15.4198 32.1675C13.2604 32.6806 13.755 34.7625 13.7624 36.5158C13.7735 39.6238 13.7366 42.7282 13.7624 45.8325C13.7735 47.3016 14.209 48.2614 15.8184 48.2835L15.8221 48.2798ZM17.4647 35.8292H51.0809L51.0846 44.596L17.4684 44.5849C17.4426 41.6651 17.4425 38.749 17.4647 35.8292Z" fill="#242520"/>
<path d="M14.5191 26.5827C16.4533 27.1475 20.6466 26.926 22.5439 26.926H46.4742C48.5155 26.926 50.9037 26.9814 52.9265 26.9002C54.1114 26.7267 54.7167 26.1877 54.7537 24.9512C54.857 21.8025 54.7389 18.3106 54.7758 15.1989C54.7869 14.1506 54.9714 11.3858 54.008 11.0942C52.2178 10.5479 47.2789 10.7546 45.4665 10.751H21.8979C20.0523 10.751 17.7452 10.6919 15.9255 10.7731C14.6704 10.8949 13.8657 11.2234 13.8178 12.6446C13.6849 16.7492 13.7993 20.8945 13.7919 24.9992C13.7919 25.431 14.1906 26.4793 14.5265 26.579L14.5191 26.5827ZM17.4536 14.4607C19.2624 14.4385 21.0858 14.4348 22.8945 14.4496C32.2814 14.5123 41.6977 14.3536 51.0809 14.468V23.22C39.9333 23.1978 28.6049 23.3455 17.4684 23.2126C17.4241 20.3297 17.4499 17.3472 17.4536 14.4607Z" fill="#242520"/>
<path d="M45.341 57.2237C47.5853 56.8546 47.6222 54.7248 46.4041 53.8905C45.64 53.3701 40.4316 53.5509 39.387 53.5509H20.5506C19.0778 53.5509 17.0734 53.4956 15.6302 53.5878C13.3379 53.9422 13.4043 56.1791 14.6557 56.9764C15.3201 57.4009 20.1962 57.2569 21.119 57.2569H29.9263C34.8062 57.2569 40.5202 57.4046 45.341 57.2311V57.2237Z" fill="#242520"/>
<path d="M15.2168 63.019C14.2275 63.2331 13.6 64.2076 13.8141 65.1968C14.0245 66.1861 14.9953 66.8173 15.9845 66.6106C16.9812 66.4039 17.6161 65.4257 17.4057 64.4291C17.1916 63.4361 16.2134 62.8012 15.2204 63.019H15.2168Z" fill="#242520"/>
<path d="M52.7087 53.5841C51.7933 53.6986 51.103 54.4774 51.103 55.4002C51.103 55.9244 51.3282 56.4227 51.7195 56.7697C52.1107 57.1167 52.6349 57.2791 53.1553 57.2163C54.1594 57.0945 54.8755 56.1791 54.75 55.1751C54.6281 54.171 53.7127 53.4586 52.7087 53.5804V53.5841Z" fill="#242520"/>
<path d="M75.7753 52.211C74.8156 52.4842 74.2471 53.4697 74.4981 54.4332C74.7454 55.3966 75.7162 55.9909 76.687 55.7694C77.3367 55.6217 77.8571 55.1308 78.0454 54.4885C78.23 53.8462 78.0528 53.156 77.584 52.6798C77.1115 52.2073 76.4213 52.0265 75.779 52.2073L75.7753 52.211Z" fill="#242520"/>
</g>
</svg>
