<svg preserveAspectRatio="none" width="100%" height="100%" overflow="visible" style="display: block;" viewBox="0 0 47.4534 58.0443" fill="none" xmlns="http://www.w3.org/2000/svg">
<path id="Vector" d="M16.4534 5.07171C19.0797 1.1839 23.6866 -0.172076 27.887 2.11468V2.11566C28.8467 2.63839 29.8832 3.7449 30.7522 4.77484C31.6407 5.82775 32.5145 7.00135 33.0677 7.69671L37.8548 13.7075L42.4456 19.4614V19.4623C43.2218 20.4366 44.332 21.758 45.0833 22.8403L45.2317 23.06C45.5698 23.5803 45.8418 24.142 46.0403 24.7319H46.0393C47.4112 28.7262 45.2211 33.077 41.5052 34.6371L41.1409 34.7797C40.3684 35.0585 39.5655 35.1476 38.8333 35.185C38.4658 35.2038 38.0971 35.2095 37.7542 35.2162C37.4048 35.2231 37.0797 35.2311 36.7669 35.2504C35.5236 35.3271 34.7731 35.5768 34.2942 36.395C34.2294 36.5401 34.1546 36.8203 34.0979 37.2573C34.041 37.6963 34.0107 38.214 33.9974 38.7602C33.9702 39.8748 34.0134 40.9564 34.0159 41.6967V41.6987L34.0306 49.1909L34.0511 50.309C34.0597 50.7222 34.065 51.1579 34.053 51.56C34.0278 52.4038 33.929 53.3385 33.5794 54.184C33.1303 55.2711 32.0559 56.1896 31.052 56.5786C30.7466 56.697 30.3567 56.7717 29.971 56.8246C29.5659 56.8803 29.0897 56.9227 28.5745 56.9545C27.5431 57.0183 26.3076 57.0435 25.0745 57.0444C22.667 57.0461 20.1914 56.954 19.177 56.8588C17.8617 56.8796 16.7822 56.7162 15.9182 56.3256C15.0088 55.9145 14.3933 55.2766 14.0071 54.4789C13.6376 53.7156 13.4969 52.8458 13.4378 51.9789C13.3789 51.1144 13.3973 50.1466 13.4016 49.184L13.3977 40.7631L13.4173 39.6147C13.4267 39.2353 13.4345 38.8702 13.4319 38.5151C13.4266 37.7961 13.3759 37.1852 13.2307 36.685C13.0906 36.2026 12.8756 35.8643 12.5569 35.6274C12.2297 35.3841 11.6894 35.1701 10.762 35.1352H10.761C10.2602 35.1161 9.76132 35.1354 9.16434 35.1391C8.59794 35.1426 7.9736 35.131 7.36356 35.0287L7.35477 35.0268C6.181 34.8188 5.07771 34.3236 4.13993 33.5883C0.893056 31.0679 -0.130632 26.1261 2.48661 22.6577L2.98563 22.0043C4.1582 20.4845 5.38911 18.9964 6.55985 17.5297L6.5618 17.5268C9.88062 13.3928 13.1773 9.24039 16.4534 5.07171Z" fill="var(--fill-0, #FF8921)" stroke="var(--stroke-0, #242520)" stroke-width="2"/>
</svg>
