<svg preserveAspectRatio="none" width="100%" height="100%" overflow="visible" style="display: block;" viewBox="0 0 94.5965 78.8362" fill="none" xmlns="http://www.w3.org/2000/svg">
<g id="Vector" opacity="0.15">
<path d="M94.1561 52.93C93.3256 50.7558 92.1998 49.475 90.1327 48.375C90.0958 45.016 90.2102 41.2989 89.8817 37.9878C88.8666 28.0805 84.378 18.8524 77.2096 11.9387C72.2855 7.1401 66.2577 3.62234 59.6578 1.69182C58.5836 1.37437 56.786 0.831763 55.6934 0.820689C53.8108 0.802233 53.1759 3.78845 55.339 4.37167C57.7199 5.01394 60.1118 5.59347 62.3893 6.5495C75.7516 11.9867 85.3562 25.0168 86.2864 39.4459C86.4599 42.0482 86.4451 45.0086 86.4082 47.6257H85.275C84.6327 46.3596 83.9978 45.3371 82.7502 44.5509C82.717 42.3509 82.7133 40.0845 82.4364 37.9029C81.4066 29.9631 77.6895 22.6138 71.909 17.0769C65.2389 10.7021 56.3246 7.21761 47.1001 7.38003C37.8314 7.54244 29.0057 11.3776 22.557 18.0403C15.4588 25.4118 12.5796 34.0271 12.7051 44.1116C10.8004 44.9495 10.0511 46.2636 9.08769 47.9837C8.88468 45.2227 8.92897 41.0959 9.21689 38.3311C10.0253 30.502 13.2145 23.1084 18.3564 17.1471C22.8081 11.9498 28.5664 8.03338 35.0371 5.80018C36.7167 5.22065 38.2891 4.84414 39.9945 4.40489C40.969 4.15388 41.7109 3.77368 41.7109 2.61093C41.7109 2.57033 41.7109 2.52604 41.7072 2.48543C41.6408 1.48511 40.8324 0.684108 39.8025 0.757933C38.315 0.920348 36.0301 1.57739 34.6053 2.04249C26.7577 4.59683 19.8255 9.38437 14.6652 15.8219C9.41991 22.3148 6.22698 30.2215 5.49242 38.5341C5.23034 41.561 5.31893 45.0197 5.33001 48.0908C3.66156 48.5226 2.07064 49.9179 1.19581 51.3834C0.690111 52.225 0.357899 53.1625 0.210249 54.1333C-0.0998159 56.1525 -0.0850509 66.547 0.376355 68.3077C0.89682 70.2825 2.18876 71.9657 3.96425 72.9771C5.75081 73.9885 7.24207 74.0328 9.19474 73.9996C10.7192 79.5328 15.7246 78.8388 20.1873 78.7761C20.7557 78.7687 21.4423 78.6654 21.9812 78.5177C23.5906 78.0637 24.949 76.9821 25.7537 75.513C26.1412 74.8265 26.3849 74.0661 26.4698 73.2835C26.5805 72.2094 26.5399 70.648 26.5399 69.5332V54.7092C26.5399 53.1588 26.6506 49.3236 26.2815 48.0686C25.809 46.4666 24.7201 45.1156 23.251 44.3146C21.3537 43.2811 18.5705 43.5321 16.4 43.5395C16.389 34.8429 18.4376 29.0107 23.7825 22.1524C25.5765 23.9906 27.16 24.9651 29.8436 25.0316C33.1288 25.1128 34.7345 23.1084 37.4106 21.7833C41.3566 19.8232 45.9153 19.0074 50.2857 19.5095C52.8843 19.8048 55.4165 20.5356 57.7715 21.6762C59.3071 22.4182 60.5695 23.4111 62.0349 24.2047C65.2315 25.9359 69.3251 24.9467 71.5916 22.1376C76.8922 28.7228 79.0885 35.0828 79.0405 43.5432C75.8402 43.5284 72.3372 43.0153 69.9674 45.3556C69.0667 46.2415 68.4577 47.3821 68.2178 48.6223C68.011 49.6522 68.0849 54.3585 68.0849 55.7427V70.8879C68.0923 73.35 68.0775 75.0332 69.9379 76.9305C72.3741 79.4184 75.7368 78.6949 78.8559 78.7761C82.2186 78.8647 84.4149 77.0818 85.4633 73.9922C88.2428 74.007 90.0552 73.804 92.2293 71.7775C94.7098 69.4594 94.6618 66.0487 94.5622 62.8558C94.4773 60.1575 94.8501 55.3662 94.1524 52.9226L94.1561 52.93ZM9.0028 70.3158C7.7367 70.3194 7.00214 70.3711 5.84678 69.8064C4.75786 69.0792 3.88304 68.0936 3.84613 66.6946C3.74277 62.7376 3.61358 58.4964 3.90519 54.5652C4.04545 52.6753 5.90584 51.5162 7.68502 51.328C8.00247 51.2948 8.65951 51.3169 9.0028 51.3169V70.3158ZM21.6379 47.67C23.1698 48.3971 22.8413 51.077 22.8413 52.5719V67.754C22.8413 69.404 22.8782 71.0946 22.797 72.7409C22.7379 73.9775 21.804 74.8043 20.6228 75.0332C19.2349 75.1513 14.9125 75.3543 13.7424 74.5644C12.4061 73.6637 12.7088 70.8473 12.7088 69.2933V54.233C12.7088 52.6679 12.6756 51.0696 12.7605 49.5082C12.8343 48.172 13.9195 47.4227 15.1672 47.2565C16.7286 47.179 20.2316 47.0019 21.6416 47.67H21.6379ZM60.3333 18.8524C56.8561 16.8591 53.032 16.0397 49.086 15.7001C44.974 15.4934 40.8693 16.239 37.0895 17.8742C36.0744 18.3246 35.0814 18.8266 34.118 19.3803C32.7227 20.1923 31.5194 21.4289 29.814 21.3957C28.2674 21.3625 27.3594 20.5135 26.348 19.5058C31.966 14.3048 38.7764 11.5253 46.3914 11.1045C55.1507 10.776 62.5849 13.7474 69.0852 19.5095C65.5674 23.0973 63.8141 20.8531 60.3369 18.8598L60.3333 18.8524ZM81.927 59.1018V67.7097C81.927 69.3339 81.9676 70.9728 81.8569 72.5933C81.7572 74.0734 80.9119 74.8781 79.4871 75.0627C77.9479 75.1513 74.1496 75.3322 72.854 74.5755C71.4587 73.7597 71.7872 71.1315 71.7872 69.596V54.628C71.7872 52.9854 71.7613 51.3501 71.8426 49.7038C71.9127 48.2126 72.8318 47.4374 74.264 47.2639C75.711 47.1606 79.7271 46.9871 80.9341 47.8139C82.2519 48.7183 81.9233 51.1803 81.9233 52.7344V59.1018H81.927ZM90.8709 63.7195C91.0924 65.6057 90.9226 67.6507 89.6602 69.1272C88.2834 70.3379 87.3532 70.3158 85.622 70.3084V51.3132C93.2444 51.2099 90.2693 58.5333 90.8709 63.7195Z" fill="#242520"/>
<path d="M48.7981 60.7001V52.8119C48.7981 51.3723 48.7944 49.9364 48.7834 48.4968C48.7723 47.168 48.2777 46.3706 46.8713 46.2451C45.6236 46.522 45.1512 47.0757 45.1216 48.3787C45.0847 50.1062 45.1032 51.83 45.1032 53.5538V69.5C45.1032 70.9137 45.0331 72.4087 45.2656 73.7966C45.3874 74.5348 46.4579 74.9187 47.1112 74.9667C47.8015 74.7416 48.0414 74.6234 48.5397 74.0882C48.9568 72.8037 48.8055 69.8654 48.8055 68.3926V60.6964L48.7981 60.7001Z" fill="#242520"/>
<path d="M40.574 52.0625C40.2086 51.9296 39.8616 51.937 39.4777 51.9481C38.9277 52.1917 38.4848 52.4206 38.2449 53.0186C37.9163 53.8233 37.9865 65.7275 38.1009 67.3258C38.1304 67.7208 38.1969 68.101 38.3408 68.4701C38.9905 69.1124 39.4076 69.3745 40.371 69.2194C40.9173 68.9943 41.3344 68.7802 41.578 68.197C41.9103 67.4144 41.9029 53.683 41.5559 52.8967C41.3676 52.4723 40.9985 52.2139 40.5703 52.0588L40.574 52.0625Z" fill="#242520"/>
<path d="M53.9068 55.4622C53.283 55.6061 52.7625 55.8055 52.4193 56.3887C51.9357 57.2044 52.0317 63.3098 52.3122 64.3581C52.4193 64.7493 52.6592 65.0373 53.0099 65.2403C53.3753 65.4507 53.7555 65.5134 54.1726 65.5319C55.9665 64.9967 56.0293 63.3947 55.8595 61.6967C55.6528 59.6111 56.786 55.7612 53.9068 55.4622Z" fill="#242520"/>
<path d="M60.5806 58.8212C59.6061 59.0759 59.0192 60.0688 59.2665 61.047C59.5138 62.0252 60.4994 62.6195 61.4813 62.3832C62.4742 62.1433 63.0796 61.1393 62.8286 60.15C62.5776 59.1608 61.5698 58.5628 60.5843 58.8249L60.5806 58.8212Z" fill="#242520"/>
<path d="M32.3647 58.8249C31.3976 59.0796 30.8107 60.0651 31.0506 61.0359C31.2906 62.0104 32.265 62.6121 33.2395 62.3869C33.8855 62.2393 34.4023 61.7557 34.5905 61.1208C34.7788 60.4859 34.609 59.7957 34.1476 59.3195C33.6862 58.8433 33.0033 58.6514 32.361 58.8212L32.3647 58.8249Z" fill="#242520"/>
<path d="M48.0857 3.62234C49.0565 3.41932 49.6877 2.48544 49.5179 1.51095C49.3444 0.536459 48.4253 -0.124277 47.4471 0.019682C46.7864 0.119346 46.2327 0.565991 46.0001 1.18981C45.7676 1.81363 45.8931 2.51497 46.325 3.02067C46.7605 3.52637 47.4324 3.75523 48.0857 3.62234Z" fill="#242520"/>
</g>
</svg>
