<svg preserveAspectRatio="none" width="100%" height="100%" overflow="visible" style="display: block;" viewBox="0 0 150 151" fill="none" xmlns="http://www.w3.org/2000/svg">
<g id="magic-wand (1) 1 [Vectorized]" clip-path="url(#clip0_0_4)">
<path id="Vector" d="M131.665 1.74603C132.313 1.79612 132.735 2.80606 132.911 3.36653C133.974 6.74834 134.409 10.3015 135.219 13.7476C135.42 14.6038 135.641 15.3982 136.036 16.1854C136.634 16.56 137.276 16.8194 137.943 17.0447C139.389 17.534 145.874 19.0522 146.42 20.0932C146.505 20.2557 146.521 20.3526 146.478 20.5288C146.082 22.1429 137.928 23.5732 136.27 24.6322C136.236 24.6541 136.203 24.6774 136.168 24.6996C134.752 25.6196 134.154 36.7963 131.945 39.2523C129.966 38.7232 128.985 27.3776 127.794 25.139C126.839 23.3454 119.069 22.7147 117.45 20.9925C117.295 20.8286 117.18 20.6144 117.209 20.3813C117.436 18.5237 126.252 17.6488 127.555 16.1274C128.298 15.2598 128.568 13.237 128.794 12.1042C129.203 10.0624 130.304 2.89902 131.665 1.74603Z" fill="var(--fill-0, #F5500E)"/>
<path id="Vector_2" d="M129.535 53.9286C129.565 53.9405 129.596 53.9499 129.625 53.9641C130.969 54.6141 131.975 61.8116 132.334 63.4514C132.533 64.3634 132.782 65.2527 133.117 66.1241C135.001 67.3494 139.173 67.7938 141.267 69.009C141.609 69.2072 141.91 69.4245 142.011 69.818C141.682 71.3745 133.742 72.3529 133.129 73.543C131.67 76.3708 131.698 83.1628 129.792 85.5974C129.685 85.5775 129.563 85.5613 129.469 85.5008C128.376 84.8026 127.195 77.1272 126.777 75.4233C126.635 74.8431 126.478 73.9863 126.1 73.5123C125.153 72.326 119.544 71.5911 117.781 70.4486C117.515 70.2762 117.372 70.118 117.299 69.8081C117.523 68.1086 125.363 67.1976 126.023 66.1129C127.426 63.8052 127.758 55.7749 129.535 53.9286Z" fill="var(--fill-0, #7679EC)"/>
<path id="Vector_3" d="M89.3738 0.468273C92.2983 0.117408 92.3284 2.64583 92.2354 4.74436C92.1995 5.55148 92.2544 6.34839 92.1746 7.16505C93.4658 7.14382 95.7297 6.90746 96.7478 7.74384C97.7109 8.5346 97.7065 10.2025 96.8196 11.0492C95.8543 11.9702 93.4512 11.7148 92.1914 11.6698C92.2485 13.1738 92.2874 14.9115 92.176 16.4137C92.0969 17.478 91.3066 18.0972 90.353 18.4191C86.8748 19.0395 87.6584 13.7372 87.6797 11.6516C86.4565 11.7653 84.0066 11.8955 83.0859 11.0706C82.1851 10.2637 82.1946 8.59587 83.0896 7.78815C84.1157 6.86277 86.3503 7.14972 87.7017 7.17173C87.6467 6.17356 87.6584 5.17957 87.6497 4.18284C87.6335 2.49556 87.5479 1.18024 89.3738 0.468273Z" fill="var(--fill-0, #7679EC)"/>
<path id="Vector_4" d="M78.2593 29.0065C80.7363 28.8068 82.9014 30.6749 83.0845 33.1695C83.2668 35.6641 81.3977 37.8316 78.9185 37.9998C76.4612 38.1665 74.3313 36.305 74.1504 33.8326C73.9695 31.3603 75.8049 29.2044 78.2593 29.0065Z" fill="var(--fill-0, #FF8921)"/>
<path id="Vector_5" d="M106.882 1.79881C109.341 1.53027 111.551 3.31921 111.817 5.79441C112.084 8.26961 110.306 10.4937 107.848 10.7619C105.389 11.0301 103.18 9.24123 102.913 6.76623C102.647 4.29125 104.424 2.06731 106.882 1.79881Z" fill="var(--fill-0, #FF8921)"/>
<path id="Vector_6" d="M104.651 84.9714C107.129 84.8416 109.239 86.766 109.354 89.2618C109.469 91.7576 107.544 93.8707 105.065 93.9717C102.606 94.072 100.527 92.1542 100.413 89.6791C100.299 87.2032 102.193 85.1004 104.651 84.9714Z" fill="var(--fill-0, #7679EC)"/>
<path id="Vector_7" d="M111.656 76.2889C112.958 76.0191 114.231 76.8655 114.495 78.1779C114.759 79.4903 113.914 80.7688 112.609 81.0298C111.311 81.2908 110.048 80.4444 109.785 79.1379C109.522 77.8321 110.359 76.558 111.656 76.2889Z" fill="var(--fill-0, #F5500E)"/>
<path id="Vector_8" d="M107.909 103.845C109.217 103.652 110.434 104.562 110.63 105.878C110.826 107.194 109.928 108.422 108.621 108.625C107.307 108.828 106.079 107.918 105.881 106.594C105.684 105.271 106.594 104.037 107.909 103.845Z" fill="var(--fill-0, #FF8921)"/>
<path id="Vector_9" d="M88.7234 48.4905C88.3008 51.353 88.9995 53.1602 90.7324 55.5341C92.1335 57.4333 93.9045 59.0254 95.937 60.2136C97.3176 60.9375 98.7415 61.539 100.333 61.3491C100.787 61.2949 101.16 61.1672 101.581 61.1049C99.5508 63.2546 97.2561 65.4716 95.1555 67.5804L83.71 79.0914L47.7363 115.304L24.5787 138.618L17.156 146.091C15.9753 147.28 14.771 148.509 13.5821 149.688C13.0775 150.188 12.0381 150.629 11.3144 150.599C8.39019 150.477 5.59387 148.427 3.6385 146.398C1.88856 144.581 0.832617 142.876 0.105894 140.464C0.067813 140.338 0.0695352 140.336 0 140.224V138.342C0.406135 137.678 0.426034 137.386 1.05002 136.741C2.27501 135.475 3.5191 134.232 4.76104 132.983L11.8962 125.807L33.7027 103.855L69.9207 67.3953C76.1147 61.1604 82.4487 54.6087 88.7234 48.4905Z" fill="var(--fill-0, #F5500E)"/>
<path id="Vector_10" d="M88.7234 48.4905C89.6045 47.5218 90.7405 46.4305 91.6758 45.4887L97.0708 40.0553L103.802 33.2762C104.951 32.1192 106.116 30.926 107.267 29.7951C108.111 28.9647 108.888 28.4022 110.099 28.5178C113.84 28.8745 116.37 31.3908 118.701 33.9226C119.947 35.6662 121.734 38.6129 121.164 40.7595C120.831 42.0115 116.917 45.5974 115.909 46.6112L106.725 55.8538C105.107 57.4825 103.059 59.4302 101.581 61.1049C101.16 61.1672 100.787 61.2949 100.333 61.3491C98.7415 61.539 97.3176 60.9375 95.937 60.2136C93.9045 59.0254 92.1335 57.4333 90.7324 55.5341C88.9995 53.1602 88.3008 51.353 88.7234 48.4905Z" fill="var(--fill-0, white)"/>
<path id="Vector_11" d="M118.701 33.9226C119.947 35.6662 121.734 38.6129 121.164 40.7595C120.831 42.0115 116.917 45.5974 115.909 46.6112L106.725 55.8538C105.107 57.4825 103.059 59.4302 101.581 61.1049C101.16 61.1672 100.787 61.2949 100.333 61.3491C98.7415 61.539 97.3176 60.9375 95.937 60.2136C96.4197 59.5723 97.6333 58.6168 98.2595 57.9916C99.5662 56.6869 100.868 55.3688 102.169 54.0595L109.98 46.1956L114.489 41.6433C115.608 40.5215 117.341 38.9131 118.219 37.6224C118.84 36.711 118.667 34.9987 118.701 33.9226Z" fill="var(--fill-0, #E6DDCE)"/>
<path id="Vector_12" d="M140.282 43.6675C140.095 42.8625 140.197 41.5063 140.177 40.6427C140.153 39.5814 140.087 38.3673 140.902 37.5778C141.358 37.1354 141.976 36.9031 142.609 36.9359C145.17 37.0614 144.724 39.8159 144.757 41.5959C144.77 42.2779 144.773 42.9844 144.738 43.665C146.675 43.6231 149.072 43.1539 150 45.287V46.5738C148.879 48.4572 147.898 48.223 145.897 48.2183C145.493 48.2173 145.124 48.2043 144.719 48.1623C144.746 49.6095 144.878 51.8487 144.653 53.2297C144.29 55.4501 140.595 55.4803 140.276 53.0523C140.072 51.4923 140.166 49.7491 140.191 48.1736C139.222 48.2691 136.304 48.3939 135.634 47.548C133.789 45.216 135.842 43.2756 138.394 43.6342C138.705 43.678 139.867 43.6588 140.282 43.6675Z" fill="var(--fill-0, #FF8921)"/>
</g>
<defs>
<clipPath id="clip0_0_4">
<rect width="150" height="151" fill="white"/>
</clipPath>
</defs>
</svg>
