<svg preserveAspectRatio="none" width="100%" height="100%" overflow="visible" style="display: block;" viewBox="0 0 538.003 234.661" fill="none" xmlns="http://www.w3.org/2000/svg">
<g id="Vector">
<path d="M358.908 124.525C358.908 112.799 362.239 103.871 368.902 97.7411C375.565 91.4781 384.293 88.3466 395.087 88.3466C405.747 88.3466 414.342 91.4781 420.872 97.7411C427.534 103.871 430.866 112.799 430.866 124.525C430.866 136.252 427.534 145.18 420.872 151.31C414.342 157.439 405.747 160.504 395.087 160.504C384.293 160.504 375.565 157.439 368.902 151.31C362.239 145.18 358.908 136.252 358.908 124.525ZM507.021 90.3454L432.465 232.462H390.09L464.646 90.3454H507.021ZM394.687 114.131C390.156 114.131 387.891 117.596 387.891 124.525C387.891 131.321 390.156 134.719 394.687 134.719C397.086 134.719 398.885 133.853 400.084 132.121C401.416 130.389 402.083 127.857 402.083 124.525C402.083 121.061 401.416 118.462 400.084 116.73C398.885 114.998 397.086 114.131 394.687 114.131ZM466.245 198.282C466.245 186.556 469.576 177.628 476.239 171.498C482.902 165.235 491.564 162.103 502.224 162.103C513.018 162.103 521.679 165.235 528.209 171.498C534.738 177.628 538.003 186.556 538.003 198.282C538.003 210.009 534.738 219.004 528.209 225.267C521.679 231.396 513.018 234.461 502.224 234.461C491.564 234.461 482.902 231.396 476.239 225.267C469.576 219.004 466.245 210.009 466.245 198.282ZM502.024 187.888C497.36 187.888 495.028 191.353 495.028 198.282C495.028 205.212 497.36 208.676 502.024 208.676C504.29 208.676 506.022 207.81 507.221 206.078C508.554 204.345 509.22 201.747 509.22 198.282C509.22 194.951 508.554 192.419 507.221 190.687C506.022 188.821 504.29 187.888 502.024 187.888Z" fill="var(--fill-0, #F5500E)"/>
<path d="M341.535 65.3217H251.758V91.3263C255.679 87.8178 260.735 85.0316 266.927 82.9677C273.325 80.9039 280.445 79.8719 288.288 79.8719C302.322 79.8719 314.189 83.1741 323.889 89.7785C333.59 96.3828 340.813 105.257 345.56 116.402C350.307 127.341 352.68 139.517 352.68 152.932C352.68 177.699 345.663 196.996 331.629 210.824C317.801 224.445 298.71 231.256 274.357 231.256C256.608 231.256 241.232 228.16 228.23 221.969C215.434 215.777 205.63 207.212 198.82 196.273C192.215 185.335 189.12 172.849 189.532 158.814H256.401C256.401 162.117 257.536 165.212 259.807 168.102C262.077 170.991 265.792 172.436 270.952 172.436C276.111 172.436 279.929 170.578 282.406 166.864C284.883 163.149 286.121 158.092 286.121 151.694C286.121 145.709 284.676 141.169 281.787 138.073C279.104 134.977 275.182 133.429 270.023 133.429C265.689 133.429 262.386 134.461 260.116 136.525C257.846 138.589 256.711 140.962 256.711 143.645H189.842V4.9539H341.535V65.3217Z" fill="var(--fill-0, #F5500E)"/>
<path d="M31.2674 106.805C23.012 102.058 16.5109 95.8662 11.764 88.2299C7.2235 80.3873 4.95326 71.0999 4.95326 60.3678C4.95326 49.223 7.94585 39.1101 13.931 30.0291C19.9162 20.9482 28.9972 13.7247 41.174 8.35863C53.5571 2.78621 68.7265 0 86.682 0C104.638 0 119.704 2.78621 131.88 8.35863C144.264 13.7247 153.448 20.9482 159.433 30.0291C165.418 39.1101 168.411 49.223 168.411 60.3678C168.411 71.0999 166.037 80.3873 161.29 88.2299C156.75 95.8662 150.352 102.058 142.097 106.805C162.942 118.981 173.364 137.247 173.364 161.6C173.364 177.285 169.443 190.597 161.6 201.536C153.757 212.474 143.232 220.73 130.023 226.302C116.814 231.874 102.367 234.661 86.682 234.661C70.9967 234.661 56.5497 231.874 43.341 226.302C30.1323 220.73 19.6066 212.474 11.764 201.536C3.92133 190.597 0 177.285 0 161.6C0 137.247 10.4225 118.981 31.2674 106.805ZM100.923 71.8222C100.923 66.0434 99.5811 61.503 96.8981 58.2008C94.2151 54.6922 90.8097 52.9379 86.682 52.9379C82.5543 52.9379 79.1489 54.6922 76.4659 58.2008C73.7829 61.503 72.4414 66.0434 72.4414 71.8222C72.4414 77.8074 73.7829 82.3479 76.4659 85.4437C79.1489 88.5395 82.5543 90.0874 86.682 90.0874C90.8097 90.0874 94.2151 88.5395 96.8981 85.4437C99.5811 82.3479 100.923 77.8074 100.923 71.8222ZM86.682 136.215C80.4904 136.215 75.5372 138.278 71.8222 142.406C68.3137 146.328 66.5594 151.384 66.5594 157.576C66.5594 163.767 68.3137 168.824 71.8222 172.745C75.3308 176.666 80.2841 178.627 86.682 178.627C93.08 178.627 98.0332 176.666 101.542 172.745C105.05 168.824 106.805 163.767 106.805 157.576C106.805 151.384 104.947 146.328 101.232 142.406C97.7237 138.278 92.8736 136.215 86.682 136.215Z" fill="var(--fill-0, #F5500E)"/>
</g>
</svg>
