<svg preserveAspectRatio="none" width="100%" height="100%" overflow="visible" style="display: block;" viewBox="0 0 24.785 30.3385" fill="none" xmlns="http://www.w3.org/2000/svg">
<path id="Vector" d="M9.00043 2.92361C10.2368 1.0754 12.3704 0.457518 14.3233 1.52082C15.1339 1.96231 16.266 3.54149 16.8803 4.3136L19.3913 7.46606L21.798 10.483C22.2204 11.0132 22.7808 11.6799 23.1616 12.2288C23.3466 12.4924 23.493 12.7811 23.5958 13.0866C24.2423 14.9634 23.1562 17.0412 21.3457 17.6951C20.0143 18.1755 18.2425 17.426 17.4677 18.7929C17.172 19.3979 17.2611 21.0998 17.2636 21.8172L17.2709 25.7457C17.2719 26.5031 17.3683 27.4511 17.0741 28.1626C16.9018 28.5799 16.4589 28.9697 16.0443 29.1303C15.2426 29.4412 10.9965 29.3377 10.0278 29.2411C7.37786 29.2939 7.49337 27.8167 7.50267 25.7413L7.50072 21.3255C7.50023 19.7823 7.84138 17.9345 5.61383 17.8508C5.05829 17.8296 4.44597 17.8931 3.89924 17.8015C3.36817 17.7074 2.86843 17.4832 2.44358 17.1496C0.940922 15.9833 0.493553 13.7119 1.67365 12.148C2.35939 11.2389 3.09016 10.3603 3.80086 9.46998C5.54531 7.29706 7.2785 5.11477 9.00043 2.92361Z" fill="var(--fill-0, #F5500E)" stroke="var(--stroke-2, #242520)" stroke-width="2"/>
</svg>
