<svg preserveAspectRatio="none" width="100%" height="100%" overflow="visible" style="display: block;" viewBox="0 0 328.181 80.0463" fill="none" xmlns="http://www.w3.org/2000/svg">
<g id="Group 10">
<path id="Vector" d="M38.699 18.4219H61.3478C61.3478 22.4991 60.6945 26.735 59.4746 30.8121H60.3725C62.8986 22.1726 66.7265 18.4219 72.8399 18.4219H77.0757V39.615H71.4521C65.6652 39.615 63.1437 43.4472 63.1437 49.9688V61.6243H38.699V18.4219Z" fill="var(--fill-0, #FFF8ED)"/>
<path id="Vector_2" d="M78.6221 39.9417C78.6221 23.9642 84.8944 17.1206 100.296 17.1206C110.155 17.1206 116.836 19.1569 119.525 26.7398H119.933L120.586 18.4267H143.643V61.6291H118.06L119.362 48.5858H118.382C115.203 60.8128 109.747 62.9307 101.271 62.9307C84.9759 62.9307 78.6221 55.9193 78.6221 39.9463V39.9417ZM118.137 37.1707V34.563C116.428 33.8283 113.248 33.2568 110.314 33.2568C104.935 33.2568 102.573 35.2115 102.573 39.6968C102.573 44.1822 105.017 46.2185 110.314 46.2185C115.938 46.2185 118.137 43.6924 118.137 37.1707Z" fill="var(--fill-0, #FFF8ED)"/>
<path id="Vector_3" d="M146.895 7.33796C146.895 1.79594 150.238 0 160.174 0C170.111 0 174.025 1.7914 174.025 7.33796C174.025 12.8845 170.519 14.7576 160.174 14.7576C149.829 14.7576 146.895 12.8845 146.895 7.33796ZM148.523 18.422H172.397V61.6244H148.523V18.422Z" fill="var(--fill-0, #FFF8ED)"/>
<path id="Vector_4" d="M177.286 18.4222H200.016C200.016 22.9891 198.955 27.5515 198.061 30.8124H198.959C201.567 19.9732 207.921 17.1206 216.071 17.1206C228.293 17.1206 234.32 23.0708 234.32 37.2524V61.6246H211.264V42.1458C211.264 37.7422 209.635 35.8691 205.803 35.8691C201.971 35.8691 200.343 37.8238 200.343 42.3091V61.6291H177.286V18.4267V18.4222Z" fill="var(--fill-0, #FFF8ED)"/>
<path id="Vector_5" d="M238.388 3.50564H261.446V61.6243H238.388V3.50564Z" fill="var(--fill-0, #FFF8ED)"/>
<path id="Vector_6" d="M263.573 18.4219H289.564L293.473 36.2725C295.101 43.7738 295.265 46.5448 295.509 49.3158H296.244C296.489 46.5448 296.652 43.7737 298.28 36.1909L302.19 18.4219H328.181L313.433 61.4611H313.514C307.487 76.5406 293.392 80.0463 282.307 80.0463C277.582 80.0463 274.081 79.8014 271.065 79.3116V63.9872C273.101 64.5586 276.443 65.0484 279.863 65.0484C283.527 65.0484 287.441 64.1504 289.314 61.6243C282.784 61.6243 276.974 57.4746 274.852 51.2977L263.568 18.4219H263.573Z" fill="var(--fill-0, #FFF8ED)"/>
<path id="Vector_7" d="M24.6759 33.4289H35.0345V18.6033H23.0569V9.12925H1.12557e-05C1.12557e-05 19.9049 6.9977 29.4878 17.211 32.3949H1.12557e-05V48.377C1.12557e-05 59.334 3.17916 61.8873 16.8664 61.8873C23.2202 61.8873 29.4154 61.4746 35.0345 60.6537V45.166C32.9165 45.5787 30.1454 45.742 27.7826 45.742C23.6283 45.742 23.0569 45.2477 23.0569 41.624V33.3836C23.5921 33.4153 24.1317 33.4334 24.6759 33.4334V33.4289Z" fill="var(--fill-0, #FFF8ED)"/>
</g>
</svg>
