<svg preserveAspectRatio="none" width="100%" height="100%" overflow="visible" style="display: block;" viewBox="0 0 13.3 16" fill="none" xmlns="http://www.w3.org/2000/svg">
<path id="Vector" d="M8.55 0H3.8C3.27453 0 2.85 0.446875 2.85 1C2.85 1.55312 3.27453 2 3.8 2V6.73437L0.222656 13.3219C0.0771875 13.5937 0 13.8969 0 14.2094C0 15.2 0.76 16 1.70109 16H11.5989C12.537 16 13.3 15.2 13.3 14.2094C13.3 13.8969 13.2228 13.5906 13.0773 13.3219L9.5 6.73437V2C10.0255 2 10.45 1.55312 10.45 1C10.45 0.446875 10.0255 0 9.5 0H8.55ZM5.7 6.73437V2H7.6V6.73437C7.6 7.08125 7.68609 7.425 7.84937 7.72812L9.08437 10H4.21562L5.45063 7.72812C5.61391 7.425 5.7 7.08437 5.7 6.73437Z" fill="var(--fill-0, #FFF8ED)"/>
</svg>
