<svg preserveAspectRatio="none" width="100%" height="100%" overflow="visible" style="display: block;" viewBox="0 0 28.4965 28.4965" fill="none" xmlns="http://www.w3.org/2000/svg">
<g id="Group 19">
<circle id="Ellipse 31" cx="14.2483" cy="14.2483" r="13.2483" fill="var(--fill-0, #242520)" stroke="var(--stroke-0, #242520)" stroke-width="2"/>
<path id="svg" d="M14.2482 26.4965C17.4967 26.4965 20.6121 25.206 22.909 22.909C25.206 20.6121 26.4965 17.4967 26.4965 14.2482C26.4965 10.9998 25.206 7.88441 22.909 5.58742C20.6121 3.29044 17.4967 2 14.2482 2C10.9998 2 7.88441 3.29044 5.58742 5.58742C3.29044 7.88441 2 10.9998 2 14.2482C2 17.4967 3.29044 20.6121 5.58742 22.909C7.88441 25.206 10.9998 26.4965 14.2482 26.4965ZM19.6547 11.9995L13.5306 18.1237C13.0808 18.5734 12.3536 18.5734 11.9086 18.1237L8.84657 15.0616C8.39683 14.6119 8.39683 13.8846 8.84657 13.4397C9.29631 12.9947 10.0236 12.9899 10.4685 13.4397L12.7172 15.6884L18.028 10.3728C18.4777 9.92308 19.2049 9.92308 19.6499 10.3728C20.0949 10.8226 20.0996 11.5498 19.6499 11.9947L19.6547 11.9995Z" fill="var(--fill-0, #FF8921)"/>
</g>
</svg>
