<svg preserveAspectRatio="none" width="100%" height="100%" overflow="visible" style="display: block;" viewBox="0 0 102.054 104.471" fill="none" xmlns="http://www.w3.org/2000/svg">
<g id="Group 13">
<path id="Vector" d="M1.59949 0H70.3175H74.734C75.3273 0.335707 76.0384 0.801614 76.1756 1.50059C76.4082 2.68259 76.3169 4.37768 76.3123 5.61529L76.3098 9.96891L76.3113 32.0246V44.5498L76.3139 48.5649C76.3139 49.3221 76.3368 50.2609 76.2843 51.0021C76.3577 51.2991 76.4133 51.7036 76.4949 51.9725C76.6873 52.6071 76.8888 53.1896 77.0301 53.8431C77.7039 56.865 77.7279 59.995 77.1004 63.0266C76.8755 64.1188 76.5123 65.0901 76.2889 66.1705C76.2853 66.1792 76.2817 66.1873 76.2776 66.196C76.3373 67.8584 76.3735 70.434 76.269 72.0822C76.3659 72.4939 78.0651 74.1033 78.4956 74.4542C79.248 75.1725 80.783 76.638 81.438 77.3904C79.3633 79.4931 77.1316 81.8631 75.0029 83.8786C73.7189 85.158 72.5737 86.0756 72.5564 88.0513C72.5431 89.5322 73.3389 90.6794 74.3897 91.64C75.0115 92.2077 75.6543 92.9576 76.2491 93.4993C76.3628 94.1727 76.3149 96.7824 76.3154 97.6282L76.3149 100.444C76.3133 102.341 76.5883 103.487 74.6958 104.471H70.295H1.58836C0.224419 103.762 0.0176753 103.24 0.00442255 101.742L0.00521328 25.2815L0.00454505 8.92327L0.001923 4.70562C0.00144859 3.83299 -0.00725901 2.96134 0.0167521 2.08821C0.0481955 0.945043 0.660914 0.470963 1.59949 0Z" fill="var(--fill-0, #FFF8ED)"/>
<path id="Vector_2" d="M51.4428 37.7501C57.0561 36.5415 62.9198 37.5954 67.7608 40.6831C69.3789 41.7308 70.4721 42.7194 71.8203 44.0682C73.1068 45.5975 73.9633 46.6032 74.9249 48.4047C75.2008 48.9214 76.0726 50.7982 76.2476 51.0237L76.2843 51.0021C76.3578 51.2991 76.4134 51.7036 76.495 51.9725C76.6873 52.607 76.8888 53.1896 77.0301 53.8431C77.704 56.865 77.7279 59.995 77.1005 63.0266C76.8755 64.1188 76.5123 65.09 76.2889 66.1705C76.2853 66.1791 76.2818 66.1873 76.2777 66.196C76.3374 67.8584 76.3736 70.434 76.269 72.0822C76.3659 72.4938 78.0651 74.1033 78.4957 74.4542C79.2481 75.1725 80.783 76.638 81.438 77.3904C79.3634 79.4931 77.1316 81.8631 75.0029 83.8786C74.8866 83.7322 74.2535 83.1282 74.098 82.9736L71.9958 80.875L71.9371 80.8342C71.6183 80.3567 68.8958 77.6343 68.2434 77.2961C67.0834 76.6946 65.8305 77.7072 64.7884 78.149C64.188 78.403 63.5299 78.6525 62.9112 78.858C58.1549 80.4266 52.9996 80.2823 48.3384 78.451C46.9259 77.8934 46.1322 77.3843 44.8158 76.7222C44.7499 76.6344 43.7618 75.9335 43.5972 75.8336C42.634 75.2479 41.7655 74.1497 40.8877 73.5651C40.8062 73.3457 40.4524 72.9999 40.283 72.8137C38.4491 70.7998 37.0219 68.4063 36.133 65.8312C36.0203 65.5048 35.9082 65.1375 35.7719 64.8146L35.7552 64.7758C35.4657 63.5674 35.2815 62.8654 35.0841 61.6243C34.6271 58.7432 34.9439 55.654 35.6492 52.8427C36.0162 51.6195 36.4078 50.8043 36.7841 49.6853C36.8912 49.5661 37.5993 48.113 37.7601 47.8405C38.4961 46.6016 39.3484 45.4356 40.3057 44.3583C41.0526 43.5266 41.8253 42.7712 42.7029 42.0779C42.9403 41.8903 44.0562 41.0848 44.1308 40.8995C44.5854 40.7295 45.2351 40.2957 45.6793 40.0401C46.388 39.6324 47.1206 39.2678 47.873 38.9481C48.5114 38.6848 49.1617 38.4511 49.8216 38.2477C50.1384 38.1533 51.2122 37.877 51.4428 37.7501Z" fill="var(--fill-0, #7679EC)"/>
<path id="Vector_3" d="M78.4957 74.4543C79.2481 75.1725 80.783 76.6381 81.438 77.3905C79.3634 79.4932 77.1316 81.8632 75.0029 83.8787C74.8866 83.7323 74.2536 83.1283 74.098 82.9737L71.9958 80.8751C72.3498 80.7124 77.8565 75.1159 78.4957 74.4543Z" fill="var(--fill-0, #595DE8)"/>
<path id="Vector_4" d="M76.269 72.0822L76.2164 72.1117C75.2793 71.7373 74.2249 69.9458 74.8774 68.9812C75.1977 68.5078 75.9425 66.453 76.2776 66.1959C76.3373 67.8584 76.3735 70.434 76.269 72.0822Z" fill="var(--fill-0, #E6DDCE)"/>
<path id="Vector_5" d="M43.7654 50.3434C47.5643 44.6172 54.7825 42.2255 61.2492 44.5505C67.7154 46.8755 71.7581 53.3161 71.0414 60.1501C70.3241 66.9847 65.0322 72.4454 58.2242 73.3774C51.4157 74.3094 44.8513 70.4718 42.3238 64.0816C41.9211 63.0634 41.6317 62.0044 41.4608 60.923C41.0674 58.4346 41.3105 55.8871 42.1673 53.5176C42.5716 52.4 43.1081 51.3338 43.7654 50.3434Z" fill="var(--fill-0, #E6DDCE)"/>
<path id="Vector_6" d="M41.4607 60.9229L56.9321 60.9234H61.4899C62.3571 60.9234 63.2947 60.8898 64.1522 60.976C64.4481 61.0056 64.7384 61.1688 64.9511 61.3759C65.2674 61.684 65.4418 62.1095 65.4326 62.5507C65.4255 62.9583 65.2571 63.346 64.9648 63.6296C64.2777 64.2831 62.651 64.077 61.7215 64.0759L57.1831 64.0805L42.3238 64.0816C41.9211 63.0634 41.6317 62.0044 41.4607 60.9229Z" fill="var(--fill-0, #404040)"/>
<path id="Vector_7" d="M43.7654 50.3434L57.5759 50.3376L61.8058 50.3383C62.751 50.3367 64.2936 50.1367 64.9787 50.8301C65.2633 51.1196 65.4189 51.5113 65.4113 51.9169C65.4056 52.3637 65.2179 52.7886 64.8909 53.0927C64.2487 53.6921 62.6551 53.5176 61.7869 53.5156L57.9238 53.5115H47.5343C45.8101 53.5115 43.8766 53.4696 42.1673 53.5176C42.5717 52.3999 43.1081 51.3338 43.7654 50.3434Z" fill="var(--fill-0, #404040)"/>
<path id="Vector_8" d="M70.3175 0H74.734C75.3273 0.335707 76.0384 0.801614 76.1756 1.50059C76.4082 2.68259 76.3169 4.37768 76.3123 5.61529L76.3098 9.96891L76.3113 32.0246V44.5498L76.3139 48.5649C76.3139 49.3221 76.3368 50.2609 76.2843 51.0021L76.2475 51.0237C76.0726 50.7982 75.2008 48.9214 74.9248 48.4047C73.9633 46.6032 73.1068 45.5975 71.8203 44.0682C71.9151 43.4617 71.8611 40.9425 71.8585 40.1836L71.856 32.3872V10.1148L71.8616 4.93616C71.8631 4.14825 71.8616 3.34312 71.856 2.5571C71.8463 1.18345 71.5122 0.683997 70.3175 0Z" fill="var(--fill-0, #E6DDCE)"/>
<path id="Vector_9" d="M51.4427 37.75C51.2121 37.877 50.1383 38.1533 49.8215 38.2477C49.1616 38.4511 48.5114 38.6848 47.8729 38.948C47.1205 39.2677 46.388 39.6324 45.6793 40.04C45.235 40.2957 44.5853 40.7295 44.1308 40.8994C42.6187 40.9798 40.4238 40.9129 38.8748 40.9127L28.6543 40.9108L20.4824 40.9108C19.0671 40.9135 17.6396 40.9337 16.2354 40.9032C14.8914 40.8739 14.1603 39.3987 15.0092 38.345C15.282 38.0065 15.6271 37.8245 16.0593 37.7972C17.0658 37.7336 18.0853 37.7601 19.094 37.7611L24.9966 37.7652L42.586 37.7636L48.0876 37.7651C49.1607 37.7679 50.3888 37.8065 51.4427 37.75Z" fill="var(--fill-0, #242520)"/>
<path id="Vector_10" d="M40.8877 73.5651C41.7656 74.1497 42.6341 75.248 43.5972 75.8336C43.7618 75.9336 44.7499 76.6345 44.8158 76.7222C44.2511 76.6656 42.9514 76.7008 42.3278 76.7008L37.6501 76.7023L22.4077 76.7008L18.3424 76.7054C17.4329 76.7074 15.7796 76.8916 15.1219 76.2386C14.8164 75.9346 14.6457 75.5209 14.648 75.0898C14.653 74.6838 14.8215 74.2966 15.1155 74.0166C15.3926 73.7564 15.8558 73.5702 16.2323 73.5595C17.2124 73.5325 18.2154 73.5524 19.1949 73.5564L24.5514 73.557C29.9495 73.5549 35.5018 73.4866 40.8877 73.5651Z" fill="var(--fill-0, #242520)"/>
<path id="Vector_11" d="M71.9371 80.8342L71.9958 80.8751L74.0979 82.9737C74.2535 83.1282 74.8866 83.7322 75.0029 83.8786C73.7189 85.158 72.5737 86.0757 72.5564 88.0513C72.5431 89.5322 73.3389 90.6794 74.3897 91.64C75.0116 92.2077 75.6543 92.9576 76.2491 93.4994C76.3629 94.1727 76.3149 96.7825 76.3154 97.6282L76.3149 100.444C76.3134 102.341 76.5883 103.487 74.6958 104.471H70.2951C70.3282 104.453 70.3614 104.434 70.3945 104.415C70.9556 104.093 71.4913 103.718 71.7188 103.078C71.9927 102.305 71.858 97.2543 71.858 96.054L71.8626 84.9616C71.8616 84.2898 71.8014 81.3306 71.9371 80.8342Z" fill="var(--fill-0, #E6DDCE)"/>
<path id="Vector_12" d="M36.784 49.6854C36.4078 50.8043 36.0162 51.6195 35.6492 52.8428L22.2412 52.8423L18.4686 52.8397C17.1304 52.8458 14.6363 53.2432 14.6592 51.2359C14.6638 50.8212 14.8319 50.425 15.1271 50.1335C15.7651 49.511 17.3936 49.6917 18.2727 49.6919L22.4762 49.6926L36.784 49.6854Z" fill="var(--fill-0, #242520)"/>
<path id="Vector_13" d="M35.7552 64.7759L22.5438 64.7769H18.4348C17.5634 64.7769 15.8521 64.9462 15.2071 64.3923C14.868 64.1015 14.6668 63.6817 14.6525 63.2353C14.6408 62.8002 14.8113 62.3793 15.1229 62.0748C15.7696 61.4443 17.4031 61.6203 18.2953 61.6223L22.1186 61.6274L35.0841 61.6244C35.2815 62.8655 35.4657 63.5674 35.7552 64.7759Z" fill="var(--fill-0, #242520)"/>
<path id="Vector_14" d="M61.4446 9.61798C62.0955 9.57687 65.3102 9.5458 65.8397 9.66374C66.1591 9.73189 66.4549 9.88222 66.6988 10.0998C67.1757 10.5321 67.3129 11.1094 67.3002 11.7613C67.2619 13.6759 67.3951 15.7204 67.2267 17.6187C67.163 18.3357 66.2254 19.003 65.5444 19.0107C64.9807 19.0171 64.3257 19.0299 63.7202 19.0294C62.4429 19.0311 61.165 19.0216 59.8877 19.0008L50.8291 18.9975L18.6047 18.9987C18.1188 19.0004 17.6023 19.0253 17.1189 19.0037C15.393 18.9266 12.8681 19.5626 12.8328 16.9934C12.8155 15.6407 12.8186 14.2167 12.822 12.8689C12.8342 11.74 12.6267 10.2751 13.9511 9.77821C14.5079 9.56932 15.4729 9.63017 16.0887 9.62987L18.877 9.62997L27.9174 9.63288L49.7403 9.63379C53.5745 9.63379 57.6254 9.6972 61.4446 9.61798Z" fill="var(--fill-0, #F5500E)"/>
<path id="Vector_15" d="M16.027 85.5059C18.5271 85.4131 21.5239 85.4906 24.0552 85.4906H39.4914L55.4155 85.4896C58.2257 85.4885 61.0365 85.4768 63.8467 85.5003C64.5823 85.5064 65.1816 85.9288 65.3745 86.6511C65.4872 87.0801 65.4143 87.5372 65.1735 87.9095C64.9062 88.3217 64.5552 88.4987 64.0941 88.6053C63.6003 88.6604 62.6892 88.6365 62.172 88.6354L58.8613 88.6303L48.0065 88.6298L27.0103 88.6314C23.4972 88.6314 19.9778 88.6334 16.4646 88.6303C16.1249 88.6298 15.6533 88.5824 15.3757 88.385C15.0257 88.136 14.7564 87.7545 14.6754 87.3306C14.6023 86.9332 14.6879 86.5231 14.9137 86.1879C15.2077 85.7548 15.5388 85.6084 16.027 85.5059Z" fill="var(--fill-0, #242520)"/>
<path id="Vector_16" d="M16.3976 25.837L48.4783 25.8412L58.6808 25.8411C60.4116 25.8408 62.1429 25.82 63.8732 25.8522C64.6552 25.8667 65.3112 26.4073 65.4209 27.1917C65.478 27.6149 65.3571 28.0429 65.0873 28.3738C64.7251 28.82 64.3226 28.9334 63.7819 28.9761L32.6455 28.9775L21.797 28.978C19.922 28.9791 18.0432 29.0004 16.1701 28.9614C14.8597 28.9302 14.1406 27.3547 15.0496 26.3755C15.4711 25.9215 15.8176 25.8609 16.3976 25.837Z" fill="var(--fill-0, #242520)"/>
<path id="Vector_17" d="M81.438 77.3904C82.3689 76.4217 83.1933 75.4106 84.5563 75.0724C86.3698 74.623 87.717 75.2719 88.9938 76.5288L95.2866 82.8292L97.7509 85.288C98.7334 86.2689 99.7603 87.2238 100.485 88.4134C101.549 90.1575 102.039 91.897 102.053 93.9303C102.085 96.712 101.002 99.3911 99.0471 101.37C97.5193 102.925 95.4825 103.926 93.341 104.319C93.1318 104.358 92.9283 104.372 92.7396 104.471H90.3701C90.2283 104.409 89.4024 104.231 89.1968 104.182C88.3128 103.972 87.592 103.725 86.7748 103.318C84.693 102.284 83.2489 100.455 81.5987 98.8769C79.8015 97.1578 78.032 95.2107 76.2491 93.4993C75.6543 92.9575 75.0116 92.2077 74.3897 91.6399C73.3389 90.6794 72.5431 89.5321 72.5564 88.0513C72.5737 86.0756 73.7189 85.1579 75.0029 83.8785C77.1316 81.8631 79.3634 79.4931 81.438 77.3904Z" fill="var(--fill-0, #242520)"/>
<path id="Vector_18" d="M90.8736 92.0863C92.3596 91.9996 92.3993 92.8015 93.3487 93.5494C94.575 94.516 96.2604 96.6182 93.7879 97.439C93.5165 97.4742 93.2533 97.4849 92.9901 97.3946C92.3774 97.186 90.035 94.8144 89.7697 94.2059C89.6049 93.8289 89.5845 93.3652 89.7559 92.9862C89.9676 92.5194 90.415 92.2598 90.8736 92.0863Z" fill="var(--fill-0, #7679EC)"/>
</g>
</svg>
