<svg preserveAspectRatio="none" width="100%" height="100%" overflow="visible" style="display: block;" viewBox="0 0 150.657 150.103" fill="none" xmlns="http://www.w3.org/2000/svg">
<g id="Group 16">
<path id="Vector" d="M38.4108 126.267C38.9646 126.239 39.5005 126.423 39.9755 126.713C41.2502 127.491 40.8701 129.734 40.926 131.008C41.0083 132.884 40.6656 133.908 38.7132 134.324C36.4516 134.459 36.2936 131.682 36.3483 130.129C36.4107 128.36 36.2727 126.737 38.4108 126.267Z" fill="var(--fill-0, #524F47)"/>
<path id="Vector_2" d="M38.4068 115.383C41.0809 115.321 40.9551 117.696 40.9267 119.575C40.8956 121.628 41.1027 122.925 38.713 123.437C36.4574 123.61 36.2909 120.751 36.3566 119.219C36.4338 117.414 36.2294 115.881 38.4068 115.383Z" fill="var(--fill-0, #524F47)"/>
<path id="Vector_3" d="M122.7 39.7593C125.387 39.5429 125.614 41.6438 125.52 43.7508C125.44 45.5296 125.739 46.9225 123.729 47.6575C120.713 48.123 120.911 45.1192 120.956 43.1466C120.995 41.4866 120.825 40.3671 122.7 39.7593Z" fill="var(--fill-0, #524F47)"/>
<path id="Vector_4" d="M122.7 50.6468C125.388 50.4336 125.614 52.5279 125.52 54.6381C125.441 56.4159 125.739 57.8084 123.731 58.5447C120.716 59.0082 120.911 56.0181 120.956 54.0396C120.994 52.379 120.822 51.2554 122.7 50.6468Z" fill="var(--fill-0, #524F47)"/>
<path id="Vector_5" d="M122.7 61.5342C125.358 61.3177 125.582 63.2875 125.508 65.3789C125.443 67.1839 125.803 68.7008 123.724 69.4325C120.719 69.9062 120.908 66.879 120.956 64.9213C120.997 63.2619 120.821 62.1432 122.7 61.5342Z" fill="var(--fill-0, #524F47)"/>
<path id="Vector_6" d="M121.026 29.3898C123.964 28.9846 127.665 35.6979 123.518 36.797C122.113 36.8684 121.302 36.3512 120.979 34.9872C120.681 33.731 119.644 33.2728 119.293 32.2906C119.102 31.7495 119.14 31.1536 119.4 30.6418C119.78 29.8783 120.281 29.624 121.026 29.3898Z" fill="var(--fill-0, #524F47)"/>
<path id="Vector_7" d="M39.8597 136.716C40.9956 136.654 41.6238 137.546 42.4848 137.742C44.4848 138.196 46.3008 138.71 45.3469 141.259C45.1279 141.845 44.365 142.21 43.7633 142.377C41.807 142.646 38.6662 141.565 37.955 139.551C37.4633 138.159 38.6124 137.076 39.8597 136.716Z" fill="var(--fill-0, #524F47)"/>
<path id="Vector_8" d="M50.372 137.983C51.2955 137.926 52.2302 137.948 53.1552 137.928C54.4785 137.9 56.0511 138.114 56.4198 139.648C56.5708 140.262 56.4574 140.911 56.1071 141.437C55.6947 142.046 55.2807 142.218 54.601 142.36C53.6001 142.489 50.4735 142.569 49.6072 142.131C49.0897 141.87 48.7055 141.404 48.5482 140.846C48.3762 140.253 48.4584 139.616 48.775 139.086C49.1665 138.423 49.6536 138.156 50.372 137.983Z" fill="var(--fill-0, #524F47)"/>
<path id="Vector_9" d="M72.1456 137.983C73.3861 137.908 76.1813 137.762 77.2031 138.329C77.7055 138.609 78.0653 139.088 78.194 139.648C78.347 140.267 78.23 140.923 77.8725 141.451C77.4672 142.046 77.0405 142.225 76.3755 142.36C75.3758 142.489 72.2473 142.568 71.382 142.131C70.8645 141.87 70.4802 141.404 70.323 140.846C70.1509 140.253 70.2331 139.616 70.5499 139.086C70.9411 138.424 71.4278 138.156 72.1456 137.983Z" fill="var(--fill-0, #524F47)"/>
<path id="Vector_10" d="M61.2608 137.982C62.0612 137.934 62.8755 137.948 63.6773 137.929C65.0824 137.895 66.9007 137.957 67.3071 139.648C67.4596 140.267 67.3425 140.923 66.9849 141.451C66.5795 142.046 66.1534 142.225 65.4877 142.36C64.4885 142.489 61.3602 142.568 60.4946 142.131C59.9771 141.87 59.5929 141.404 59.4355 140.846C59.2635 140.253 59.3457 139.615 59.6625 139.086C60.0546 138.422 60.5418 138.156 61.2608 137.982Z" fill="var(--fill-0, #524F47)"/>
<path id="Vector_11" d="M83.0337 137.982C84.2747 137.907 87.0687 137.761 88.0897 138.33C88.5922 138.609 88.9526 139.088 89.0821 139.648C89.2329 140.262 89.1196 140.911 88.7687 141.437C88.3568 142.046 87.9426 142.218 87.2629 142.36C86.2624 142.489 83.1352 142.569 82.2694 142.131C81.7515 141.87 81.3675 141.404 81.2101 140.846C81.038 140.253 81.1204 139.615 81.4367 139.086C81.8288 138.422 82.315 138.156 83.0337 137.982Z" fill="var(--fill-0, #524F47)"/>
<path id="Vector_12" d="M0 44.5318L0.0392294 44.4586L0.1062 44.3376C0.827829 43.0113 4.32992 39.7274 5.56917 38.49L11.9594 32.0945C12.3463 31.7148 13.3215 30.7969 13.8344 30.7315C15.1843 30.5591 16.7181 30.6113 18.0874 30.612L25.26 30.6231L48.8129 30.633C48.8421 31.8398 48.6577 34.8106 49.5607 35.6412C51.0416 37.0033 56.8491 35.3269 58.1395 36.584C58.7304 37.1596 59.0163 38.366 59.3234 39.1306C59.6008 39.8212 60.3166 41.0052 60.3594 41.7067C60.4027 42.4167 59.9392 42.9925 59.4715 43.4731C58.456 44.5168 55.9254 46.7007 55.2645 47.7439C55.0696 48.0515 54.9434 48.4014 54.9567 48.7692C55.0074 50.1697 58.3328 53.167 59.445 54.1374C60.1391 54.7432 60.7695 55.2889 61.6805 55.5173C63.652 55.019 64.9704 52.457 66.4847 51.5195C66.6199 52.3982 66.5921 53.6064 66.5924 54.5125L66.5895 58.5646L66.5891 72.6172L66.5893 86.1886L66.5924 90.236C66.5927 90.9253 66.6222 92.0699 66.5368 92.7298L66.6035 92.9078C67.1558 93.0027 67.7087 92.9689 68.2633 93.0189C78.4324 93.9296 85.8939 103.708 84.0872 113.723C83.2699 118.506 80.5598 122.757 76.569 125.516C72.6229 128.198 67.7769 129.211 63.0864 128.337C58.611 127.523 54.3152 124.714 51.7507 120.96C50.287 118.847 49.2996 116.441 48.8568 113.909C48.0546 114.109 44.9919 114.035 44.0259 114.034L35.034 114.03L16.9571 114.032C12.5108 114.054 8.04789 114.05 3.60076 114.057C3.16453 114.057 2.47256 113.972 2.04968 113.857C0.930442 113.553 0.511877 112.723 0 111.831V44.5318Z" fill="var(--fill-0, white)"/>
<path id="Vector_13" d="M48.8568 113.909C48.1051 109.529 48.9979 105.024 51.3639 101.262C53.9331 97.1929 58.032 94.3298 62.7363 93.3183C63.5395 93.1513 64.2535 93.077 65.0649 93.0138C65.5007 92.9799 66.0973 92.977 66.4963 92.8865L66.5368 92.7298L66.6035 92.9078C67.1558 93.0027 67.7087 92.9689 68.2632 93.0189C78.4323 93.9296 85.8939 103.708 84.0871 113.723C83.2699 118.506 80.5598 122.757 76.569 125.516C72.6229 128.198 67.7769 129.211 63.0864 128.337C58.6109 127.523 54.3152 124.714 51.7507 120.96C50.287 118.847 49.2996 116.441 48.8568 113.909Z" fill="var(--fill-0, #F5500E)"/>
<path id="Vector_14" d="M74.2731 104.422C76.4263 104.384 77.5518 106.647 75.9364 108.288C73.3628 110.939 70.6796 113.56 68.0817 116.18C66.7207 117.597 65.4448 118.938 63.6149 117.207C62.9954 116.622 62.342 115.958 61.7304 115.341L58.6561 112.267C57.7507 111.346 56.2216 110.249 56.2111 108.868C56.2016 107.628 57.2577 106.665 58.4847 106.696C58.8654 106.704 59.2356 106.824 59.5479 107.042C60.2015 107.489 61.2664 108.624 61.8672 109.229L65.3225 112.696C66.9274 111.048 68.5843 109.409 70.2151 107.784C71.2412 106.761 72.8956 104.779 74.2731 104.422Z" fill="var(--fill-0, #FDEFD5)"/>
<path id="Vector_15" d="M17.1141 71.7569C18.4174 71.6787 20.262 71.73 21.5996 71.7301L29.7676 71.7312L42.0006 71.731C42.9318 71.7304 49.2361 71.6287 49.8211 71.8722C50.4287 72.1292 50.899 72.6317 51.1153 73.255C51.5469 74.5163 50.721 75.6977 49.4975 76.0721C48.6922 76.1884 46.7554 76.142 45.8836 76.142L39.1314 76.1428L25.5576 76.1413C23.1384 76.1428 20.715 76.1523 18.2961 76.1428C17.9253 76.1413 16.9763 76.1082 16.6528 75.9618C16.1165 75.7087 15.6159 75.2696 15.4379 74.684C14.9957 73.2297 15.7208 72.1391 17.1141 71.7569Z" fill="var(--fill-0, #524F47)"/>
<path id="Vector_16" d="M17.3627 82.8068C19.7277 82.7414 22.3163 82.7884 24.6979 82.7884L37.8091 82.7855L45.4118 82.7848C46.7198 82.7848 48.09 82.7597 49.3966 82.8333C49.6983 82.8502 50.049 83.0305 50.2958 83.2048C50.7673 83.5351 51.0869 84.0405 51.1833 84.6084C51.4224 86.0208 50.4717 86.9433 49.1571 87.1846C47.3487 87.2596 45.0454 87.1971 43.2065 87.1971L31.8911 87.1978L22.5939 87.2008C20.9579 87.2008 19.283 87.2214 17.6479 87.175C17.1285 87.161 16.682 87.1022 16.2497 86.7998C15.7561 86.4497 15.4221 85.9171 15.3213 85.3197C15.0889 83.9758 16.0705 82.9775 17.3627 82.8068Z" fill="var(--fill-0, #524F47)"/>
<path id="Vector_17" d="M17.0245 60.8005C18.2317 60.7143 20.0563 60.7657 21.3059 60.7658L29.1681 60.7666L41.6694 60.7677C43.9633 60.7661 46.2626 60.755 48.5561 60.7704C48.92 60.8058 49.5419 60.7514 49.875 60.9195C51.8707 61.9267 51.5908 64.5296 49.4337 65.1139C48.4599 65.2323 46.4169 65.1713 45.3413 65.1712L37.5274 65.1694L24.5627 65.1706C22.3467 65.1712 20.1846 65.1598 17.9051 65.1628C16.009 65.1653 14.8233 63.9433 15.5265 61.9605C15.7246 61.4019 16.462 60.9815 17.0245 60.8005Z" fill="var(--fill-0, #524F47)"/>
<path id="Vector_18" d="M17.3531 49.7749C18.5281 49.6902 20.4865 49.7467 21.7251 49.7463L30.0534 49.7445L42.1809 49.7447C43.3254 49.745 49.3803 49.6152 50.0515 49.9918C50.6165 50.3023 51.0205 50.8411 51.1603 51.4705C51.4734 52.8309 50.5523 53.8992 49.2285 54.1161C47.7373 54.2149 45.4729 54.15 43.9297 54.1499L34.0598 54.1481L23.4089 54.1527C21.5181 54.1531 19.6365 54.1629 17.7407 54.1287C16.5952 54.108 15.5719 53.6674 15.36 52.3949C15.1159 50.9292 15.9014 49.987 17.3531 49.7749Z" fill="var(--fill-0, #524F47)"/>
<path id="Vector_19" d="M17.1065 93.8303C17.5995 93.8053 18.0821 93.8016 18.5755 93.8024C22.8742 93.8082 27.1731 93.7773 31.4712 93.8126C34.2156 93.8362 34.7154 97.2922 32.139 98.1433C30.9788 98.3103 27.5948 98.1955 26.2627 98.211C23.4283 98.222 20.59 98.2117 17.7564 98.2014C14.874 98.1911 14.3179 94.6998 17.1065 93.8303Z" fill="var(--fill-0, #524F47)"/>
<path id="Vector_20" d="M54.8462 13.0125C54.9394 12.6851 55.023 12.3327 55.1941 12.0354C55.7382 11.0896 56.8465 10.0074 57.6269 9.21841C58.4919 8.34389 60.5104 6.18158 61.7289 6.21409C62.099 6.22397 62.4566 6.38276 62.7601 6.58571C63.8333 7.30356 65.8812 9.68495 66.9338 10.7143C67.4115 11.1815 67.9808 11.6617 68.691 11.6257C69.525 11.5835 70.3196 10.901 71.099 10.6182C71.9232 10.3192 73.1889 10.0694 73.7883 9.39893C74.9594 8.08796 73.4354 2.12299 74.7005 0.836733C75.4376 0.0866551 77.3282 0.0729929 78.3183 0.0368741C79.8345 -0.0184277 83.4104 -0.149999 84.4564 0.895724C84.7176 1.15677 84.7933 1.51841 84.8493 1.87075C84.978 2.68375 84.9125 3.56381 84.9088 4.3841C84.8912 5.81237 84.8919 7.24081 84.911 8.66911C84.9839 8.90083 85.053 9.1419 85.1413 9.36708C85.351 9.54289 85.5599 9.71091 85.8063 9.83465C86.6133 10.2403 87.5108 10.4733 88.3457 10.8193C88.8879 11.0442 89.3991 11.3995 89.9553 11.58C90.1841 11.6542 90.4268 11.6979 90.6674 11.6737C92.3954 11.4989 95.4254 6.36317 97.3131 6.24733C97.9214 6.20999 98.5121 6.61918 98.9763 6.97107C100.229 7.92097 103.961 11.3742 104.142 12.8995C104.205 13.4329 103.922 13.8908 103.592 14.2851C102.624 15.4423 101.421 16.4788 100.344 17.5419C99.8885 17.9908 99.3773 18.4354 99.0322 18.9785C98.8469 19.2693 98.7218 19.595 98.7446 19.9438C98.7593 20.174 98.8182 20.3982 98.902 20.6124C99.097 21.1126 99.3949 21.5682 99.6009 22.0653C99.9371 22.8755 100.167 23.7574 100.552 24.5427C100.662 24.7675 100.798 25.0021 100.988 25.1687C102.136 26.1717 107.302 25.0557 109.088 25.752C110.452 26.2839 109.866 28.1649 110.401 28.4593C110.07 28.7424 110.329 30.9979 110.254 31.5434C110.226 31.745 110.229 32.7655 110.329 32.8966C109.577 34.1927 111.173 36.3304 107.127 36.1051C105.498 36.0144 103.325 36.0078 101.686 36.1958C100.492 36.394 100.189 38.332 99.7164 39.325C99.5266 39.8854 98.5121 41.6544 98.7851 42.2089C99.7951 44.262 103.008 46.2298 104.036 48.1422C104.935 49.816 99.0646 54.9942 97.7052 55.4357C97.5911 55.4724 97.4764 55.507 97.3609 55.5394C97.0894 55.4479 96.8055 55.3586 96.5649 55.1986C95.1871 54.2795 91.9062 50.011 90.6041 50.011C90.3422 50.011 90.0759 50.0803 89.831 50.1701C89.1336 50.4263 88.4943 50.8377 87.805 51.1173C87.2003 51.3628 86.5346 51.4904 85.9483 51.7766C85.3958 52.0462 85.1354 52.3534 84.9302 52.9213C84.9486 53.9849 84.9059 55.0567 84.9074 56.1217C84.9081 57.2858 85.0648 59.1158 84.7889 60.2098C84.7235 60.4696 84.544 60.7232 84.3542 60.9083C83.4788 61.7632 80.4149 61.6209 79.2165 61.6122C78.1094 61.6042 75.9555 61.661 75.0308 61.1189C73.1847 60.0365 75.0779 53.5075 73.7427 52.2385C73.0115 51.5431 71.3691 51.1686 70.4111 50.744C70.0115 50.5669 69.6365 50.3158 69.2256 50.1684C68.9995 50.0872 68.7587 50.0418 68.5181 50.0557C67.6566 50.1055 67.0016 50.9056 66.4847 51.5195C64.9704 52.4569 63.652 55.0189 61.6804 55.5173C60.7695 55.2888 60.1391 54.7431 59.4449 54.1374C58.3327 53.167 55.0074 50.1697 54.9567 48.7691C54.9434 48.4014 55.0696 48.0515 55.2645 47.7438C55.9254 46.7006 58.4559 44.5168 59.4715 43.473C59.9391 42.9924 60.4027 42.4167 60.3593 41.7066C60.3166 41.0052 59.6007 39.8211 59.3234 39.1306C59.0163 38.366 58.7303 37.1596 58.1395 36.584C56.8491 35.3269 51.0416 37.0033 49.5607 35.6411C48.6577 34.8105 48.842 31.8398 48.8128 30.6329C49.037 29.1722 48.2432 26.0466 50.3388 25.6264C52.4258 25.208 55.8791 25.9504 57.8371 25.3499C58.1019 25.1145 58.3163 24.8618 58.4865 24.5491C58.912 23.7675 59.1119 22.8726 59.4647 22.0581C59.6898 21.5383 60.0124 21.053 60.2068 20.5221C60.2933 20.2858 60.3546 20.0321 60.3467 19.7788C60.2924 18.0393 55.4864 15.2808 54.8752 13.1182L54.8462 13.0125Z" fill="var(--fill-0, #94D5E6)"/>
<path id="Vector_21" d="M54.8462 13.0125C54.9394 12.6851 55.023 12.3327 55.1941 12.0354C55.7382 11.0896 56.8465 10.0074 57.6269 9.21841C58.4919 8.34389 60.5104 6.18158 61.7289 6.21409C62.099 6.22397 62.4566 6.38276 62.7601 6.58571C63.8333 7.30356 65.8812 9.68495 66.9338 10.7143C67.4115 11.1815 67.9808 11.6617 68.691 11.6257C69.525 11.5835 70.3196 10.901 71.099 10.6182C71.9232 10.3192 73.1889 10.0694 73.7883 9.39893C74.9594 8.08796 73.4354 2.12299 74.7005 0.836733C75.4376 0.0866551 77.3281 0.0729929 78.3183 0.0368741C79.8344 -0.0184277 83.4104 -0.149999 84.4564 0.895724C84.7176 1.15677 84.7933 1.51841 84.8493 1.87075C84.978 2.68375 84.9125 3.56381 84.9088 4.3841C84.8912 5.81237 84.8919 7.24081 84.911 8.66911C81.6301 9.82008 78.639 11.6734 76.1482 14.0995C75.7429 14.5007 75.1374 15.1052 74.8469 15.5693C68.1262 17.6338 63.5442 23.8487 63.5597 30.8795C63.5751 37.9104 68.1842 44.1051 74.9145 46.1401C75.0911 46.6175 75.6031 47.0764 75.9716 47.441C77.9696 49.4061 80.2942 51.0091 82.8417 52.1784C83.4199 52.4433 84.2755 52.8269 84.8772 52.9704L84.9302 52.9213C84.9486 53.9849 84.9059 55.0567 84.9074 56.1217C84.9081 57.2858 85.0648 59.1158 84.7889 60.2098C84.7235 60.4696 84.544 60.7232 84.3542 60.9083C83.4788 61.7632 80.4149 61.6209 79.2165 61.6122C78.1094 61.6042 75.9555 61.661 75.0308 61.1189C73.1847 60.0365 75.0779 53.5075 73.7427 52.2385C73.0115 51.5431 71.3691 51.1686 70.4111 50.744C70.0115 50.5669 69.6365 50.3158 69.2256 50.1684C68.9995 50.0872 68.7587 50.0418 68.5181 50.0557C67.6566 50.1055 67.0016 50.9056 66.4847 51.5195C64.9704 52.4569 63.652 55.0189 61.6804 55.5173C60.7695 55.2888 60.1391 54.7431 59.4449 54.1374C58.3327 53.167 55.0074 50.1697 54.9567 48.7691C54.9434 48.4014 55.0696 48.0515 55.2645 47.7438C55.9254 46.7006 58.4559 44.5168 59.4715 43.473C59.9391 42.9924 60.4027 42.4167 60.3593 41.7066C60.3166 41.0052 59.6007 39.8211 59.3234 39.1306C59.0163 38.366 58.7303 37.1596 58.1395 36.584C56.8491 35.3269 51.0416 37.0033 49.5607 35.6411C48.6577 34.8105 48.842 31.8398 48.8128 30.6329C49.037 29.1722 48.2432 26.0466 50.3388 25.6264C52.4258 25.208 55.8791 25.9504 57.8371 25.3499C58.1019 25.1145 58.3163 24.8618 58.4865 24.5491C58.912 23.7675 59.1119 22.8726 59.4647 22.0581C59.6898 21.5383 60.0124 21.053 60.2068 20.5221C60.2933 20.2858 60.3546 20.0321 60.3467 19.7788C60.2924 18.0393 55.4864 15.2808 54.8752 13.1182L54.8462 13.0125Z" fill="var(--fill-0, #678D97)"/>
<path id="Vector_22" d="M85.1413 9.3671C85.351 9.54292 85.5599 9.71094 85.8063 9.83467C86.6133 10.2404 87.5108 10.4733 88.3457 10.8193C88.8879 11.0443 89.3992 11.3995 89.9553 11.58C90.1841 11.6542 90.4268 11.698 90.6674 11.6737C92.3954 11.4989 95.4255 6.36319 97.3131 6.24735C97.9215 6.21001 98.5122 6.6192 98.9764 6.97109C100.229 7.921 103.961 11.3742 104.142 12.8995C104.205 13.4329 103.922 13.8909 103.592 14.2852C102.624 15.4423 101.421 16.4788 100.344 17.542C99.8885 17.9908 99.3773 18.4355 99.0323 18.9785C98.8469 19.2694 98.7218 19.595 98.7446 19.9439C98.7594 20.174 98.8182 20.3982 98.9021 20.6124C99.097 21.1126 99.3949 21.5682 99.6009 22.0653C99.9371 22.8755 100.167 23.7574 100.552 24.5427C100.662 24.7675 100.798 25.0021 100.988 25.1687C102.136 26.1717 107.302 25.0557 109.088 25.752C110.452 26.2839 109.866 28.1649 110.401 28.4593C110.07 28.7425 110.329 30.9979 110.254 31.5435C110.226 31.745 110.229 32.7656 110.329 32.8967C109.577 34.1928 111.173 36.3304 107.127 36.1051C105.498 36.0144 103.325 36.0078 101.686 36.1958C100.492 36.394 100.189 38.332 99.7164 39.325C99.5266 39.8854 98.5122 41.6544 98.7851 42.209C99.7951 44.262 103.008 46.2298 104.036 48.1423C104.935 49.816 99.0646 54.9942 97.7052 55.4358C97.5912 55.4725 97.4764 55.507 97.3609 55.5394C97.0895 55.4479 96.8055 55.3587 96.565 55.1986C95.1871 54.2795 91.9062 50.011 90.6041 50.011C90.3423 50.011 90.076 50.0804 89.831 50.1701C89.1336 50.4263 88.4943 50.8377 87.8051 51.1173C87.2004 51.3629 86.5346 51.4904 85.9483 51.7767C85.3959 52.0462 85.1354 52.3534 84.9302 52.9214L84.8772 52.9704C84.2755 52.8269 83.42 52.4433 82.8417 52.1785C80.2943 51.0092 77.9697 49.4062 75.9717 47.441C75.6031 47.0764 75.0911 46.6175 74.9146 46.1401C81.472 48.1229 88.5635 45.705 92.5447 40.1293C96.5252 34.5536 96.5091 27.0608 92.5035 21.5027C88.4988 15.9445 81.3962 13.5577 74.8469 15.5694C75.1375 15.1052 75.7429 14.5007 76.1482 14.0996C78.6391 11.6734 81.6302 9.8201 84.9111 8.66913C84.9839 8.90086 85.0531 9.14193 85.1413 9.3671Z" fill="var(--fill-0, #7CA1B0)"/>
<path id="Vector_23" d="M78.3691 19.3434C84.7066 18.6886 90.3798 23.2855 91.0521 29.6214C91.7252 35.9572 87.1445 41.6431 80.8107 42.3341C74.4511 43.0279 68.7373 38.4246 68.0616 32.0631C67.386 25.7015 72.0055 20.0008 78.3691 19.3434Z" fill="var(--fill-0, #3D5455)"/>
<path id="Vector_24" d="M78.873 26.1051C81.4904 25.7297 83.9158 27.5486 84.2888 30.1665C84.6617 32.7843 82.841 35.2083 80.2229 35.5787C77.6077 35.9487 75.1875 34.1304 74.8153 31.5161C74.443 28.9018 76.2586 26.4801 78.873 26.1051Z" fill="var(--fill-0, #FDEFD5)"/>
<path id="Vector_25" d="M95.652 137.928C95.6359 136.635 95.6263 135.341 95.6234 134.049C95.6108 129.906 95.8896 130.348 99.8775 130.361L104.702 130.373L120.969 130.378C122.453 130.418 123.936 130.421 125.419 130.389L141.825 130.379L146.506 130.368C147.867 130.364 149.868 130.032 150.657 131.322V148.987C150.155 149.801 149.795 150.071 148.801 150.075C145.704 150.09 142.604 150.075 139.505 150.075H120.783L105.219 150.095C102.566 150.1 99.9106 150.116 97.2579 150.083C95.6395 150.062 95.6241 148.523 95.6234 147.294C95.6226 145.677 95.6373 144.061 95.6513 142.444C94.0292 142.446 92.0357 142.425 92.021 140.199C92.0202 139.57 92.2828 138.969 92.7448 138.542C93.5084 137.832 94.6714 137.902 95.652 137.928Z" fill="var(--fill-0, #7679EC)"/>
<path id="Vector_26" d="M95.652 137.928C95.7065 139.42 95.6771 140.952 95.6513 142.444C94.0292 142.446 92.0357 142.425 92.021 140.199C92.0202 139.57 92.2828 138.969 92.7448 138.542C93.5084 137.832 94.6714 137.902 95.652 137.928Z" fill="var(--fill-0, #524F47)"/>
<path id="Vector_27" d="M105.858 138.051C107.752 137.957 109.973 138.01 111.898 138.009L122.174 138.01H133.272C135.306 138.008 137.356 137.992 139.39 138.017C139.816 138.062 140.554 138.04 140.924 138.265C142.78 139.395 142.307 141.942 140.154 142.358C137.847 142.454 135.317 142.407 132.996 142.406L121.262 142.403L111.468 142.406C109.673 142.407 107.872 142.438 106.079 142.371C105.375 142.345 104.724 141.691 104.469 141.071C103.923 139.741 104.524 138.524 105.858 138.051Z" fill="var(--fill-0, #FFF8ED)"/>
<path id="Vector_28" d="M96.4539 92.5106C95.783 91.9471 95.6668 91.5572 95.6528 90.6774C95.6109 88.0475 95.6462 85.4132 95.6432 82.7819L95.6337 77.1557C95.6329 76.7011 95.644 76.22 95.6322 75.7676C95.5925 74.3213 95.5395 72.882 97.4691 72.8599C101.314 72.8156 105.187 72.8894 109.043 72.8924L132.802 72.888L144.02 72.8889C145.622 72.8891 148.033 72.8001 149.629 73.0127C150.005 73.0628 150.463 73.5784 150.657 73.9557V91.6116C150.014 92.9579 148.436 92.5959 147.275 92.6327C145.164 92.6982 125.652 92.4841 125.465 92.7041C125.237 92.4701 121.617 92.5893 120.986 92.593C120.705 92.5584 119.551 92.6047 119.22 92.6099C118.105 92.6224 116.989 92.6275 115.874 92.6261L102.03 92.6812C100.509 92.6849 97.8229 92.8122 96.4539 92.5106Z" fill="var(--fill-0, #F5500E)"/>
<path id="Vector_29" d="M106.168 80.5963C107.491 80.505 109.397 80.5595 110.75 80.5595L119.131 80.5602L132.189 80.5587C134.582 80.558 136.975 80.5573 139.369 80.5668C140.537 80.5712 141.543 80.8295 141.962 82.0844C142.15 82.6634 142.089 83.2938 141.794 83.8257C141.459 84.4326 140.927 84.7224 140.289 84.9144C139.296 85.0373 137.038 84.9733 135.951 84.9733L127.542 84.9711L113.702 84.9733C111.306 84.9733 108.885 84.9902 106.489 84.9534C106.096 84.9483 105.806 84.8923 105.473 84.6827C104.396 84.0044 103.906 82.7318 104.671 81.6254C105.125 80.9692 105.407 80.789 106.168 80.5963Z" fill="var(--fill-0, #FFF8ED)"/>
<path id="Vector_30" d="M96.4708 101.725L96.5532 101.711C97.9053 101.46 99.5369 101.575 100.935 101.577C107.61 101.59 114.303 101.679 120.977 101.65C122.18 101.708 124.2 101.73 125.409 101.654C130.787 101.596 136.235 101.641 141.618 101.641L146.296 101.632C147.307 101.625 148.358 101.579 149.362 101.688C149.898 101.746 150.352 102.131 150.657 102.56V120.329C149.922 121.529 148.783 121.381 147.549 121.373C146.434 121.366 145.316 121.345 144.2 121.343L131.379 121.35L127.294 121.346C126.894 121.345 125.8 121.308 125.465 121.335C123.964 121.289 122.463 121.291 120.962 121.34C119.996 121.266 117.621 121.349 116.553 121.348C113.294 121.328 110.034 121.339 106.775 121.382L101.007 121.391C100.495 121.393 99.8885 121.379 99.3839 121.399C95.399 121.553 95.6174 120.954 95.6226 117.271L95.6299 113.194C95.6366 109.994 95.6174 106.785 95.6233 103.586C95.6255 102.552 95.7852 102.374 96.4708 101.725Z" fill="var(--fill-0, #FF8921)"/>
<path id="Vector_31" d="M106.19 109.298C107.591 109.196 109.93 109.269 111.42 109.269L121.372 109.272L133.369 109.268C135.449 109.268 137.557 109.25 139.635 109.29C140.175 109.301 140.595 109.336 141.054 109.627C141.554 109.944 141.9 110.453 142.012 111.035C142.284 112.431 141.419 113.413 140.082 113.666C138.347 113.756 135.897 113.684 134.125 113.684L122.795 113.681L112.139 113.684C110.255 113.685 108.344 113.707 106.462 113.657C106.002 113.645 105.757 113.595 105.371 113.35C104.86 113.021 104.499 112.504 104.366 111.911C104.095 110.665 104.988 109.554 106.19 109.298Z" fill="var(--fill-0, #FFF8ED)"/>
<path id="Vector_32" d="M120.962 121.34C122.463 121.291 123.964 121.289 125.465 121.335C125.572 122.97 125.461 125.019 125.502 126.689C125.517 127.316 125.535 129.912 125.419 130.389C123.936 130.421 122.453 130.418 120.969 130.378C120.929 129.433 120.961 128.195 120.96 127.233L120.962 121.34Z" fill="var(--fill-0, #524F47)"/>
<path id="Vector_33" d="M120.986 92.593C121.617 92.5893 125.237 92.4701 125.465 92.704C125.573 94.2437 125.461 96.2513 125.501 97.827C125.517 98.4927 125.533 101.123 125.409 101.654C124.2 101.73 122.18 101.708 120.977 101.65C120.911 100.533 120.958 98.8848 120.959 97.7343C120.962 96.0843 120.919 94.2283 120.986 92.593Z" fill="var(--fill-0, #524F47)"/>
<path id="Vector_34" d="M110.401 28.4593C111.361 28.3669 112.347 28.4447 113.308 28.4178C114.779 28.3765 116.363 28.726 116.506 30.5101C116.554 31.0993 116.364 31.683 115.978 32.1303C115.503 32.6799 114.821 32.8983 114.118 32.9073C112.864 32.9234 111.584 32.902 110.329 32.8967C110.229 32.7656 110.226 31.745 110.254 31.5435C110.329 30.9979 110.07 28.7425 110.401 28.4593Z" fill="var(--fill-0, #524F47)"/>
</g>
</svg>
