<svg preserveAspectRatio="none" width="100%" height="100%" overflow="visible" style="display: block;" viewBox="0 0 378 381" fill="none" xmlns="http://www.w3.org/2000/svg">
<g id="scientist 1 [Vectorized]" clip-path="url(#clip0_0_4)">
<path id="Vector" d="M175.036 34.1549L175.219 34.0703C176.525 33.4556 178.045 32.3018 179.391 32.0492C182.135 31.5341 185.27 31.5549 188.077 31.6256C193.43 31.7607 198.712 30.7879 203.326 34.1635C208.068 34.1927 213.374 34.111 218.044 34.6182C234.12 36.3723 249.083 43.7322 260.346 55.4256C265.833 61.037 273.43 71.8302 275.503 79.4869C278.325 80.8905 280.824 82.0279 283.328 84.0804C288.4 88.2394 291.704 94.8737 292.057 101.457C292.343 106.786 292.071 112.13 292.16 117.463C292.084 121.932 292.422 128.034 292.012 132.313C292.367 137.777 291.59 139.946 291.162 144.744C288.146 152.225 286.376 154.117 280.152 158.836C280.493 161.386 280.034 163.641 280.259 165.731C279.93 167.922 280.152 175.621 280.169 178.291C280.259 185.391 280.285 192.492 280.242 199.593C280.24 206.564 280.324 213.756 280.174 220.71C280.154 222.612 279.906 232.609 280.348 233.837C280.181 234.795 280.119 242.642 280.252 243.663C280.015 246.662 280.183 249.713 279.729 252.727C279.657 253.211 279.404 254.652 279.624 255.013C279.118 255.659 278.105 259.668 277.489 260.888C272.791 270.155 263.614 276.288 253.232 276.51C252.891 276.517 252.59 276.506 252.249 276.571C251.198 276.525 246.765 274.841 245.467 274.437C239.498 272.584 232.815 269.747 226.87 268.075L226.658 268.43C226.501 271.182 224.949 291.939 224.511 292.957C223.889 292.741 221.479 294.881 220.602 295.495C214.244 299.998 206.999 303.075 199.362 304.521C186.68 306.934 173.559 304.739 162.331 298.324C158.786 296.272 156.993 294.656 153.843 292.477C153.629 291.562 153.44 288.861 153.402 287.778C153.182 281.581 151.648 274.275 151.817 268.19L151.666 268.052C146.562 269.664 140.572 271.788 135.517 273.617C134.012 274.127 126.853 276.772 125.891 276.649L125.914 276.61L125.799 276.472C120.307 276.964 112.922 273.805 108.892 270.586C99.9853 263.472 97.6183 254.029 98.3105 243.1C98.4221 241.334 98.4398 236.698 98.2261 234.912L98.1872 234.611C98.4572 233.344 98.4454 222.727 98.1582 221.324C98.4583 220.844 98.4633 198.416 98.1816 196.475C98.4773 195.525 98.4118 186.71 98.2305 185.418C98.4526 184.711 98.292 180.509 98.3243 179.486C98.5319 172.891 98.0069 165.381 98.3101 158.896C96.7671 157.443 94.6659 156.238 92.9336 154.309C85.9902 146.577 86.373 139.683 86.3745 130.328L86.3811 117.709C86.497 114.014 86.4291 110.082 86.4245 106.369C86.3398 102.264 86.3763 99.132 87.6484 95.1905C89.3682 89.7975 92.9293 85.1935 97.699 82.197C99.4873 81.0937 101.063 80.4682 102.902 79.5259C103.121 79.1222 103.029 79.3315 103.16 78.968C106.248 70.3918 112.121 61.4002 118.488 54.9233C129.34 43.9988 143.438 36.9496 158.634 34.8496C164.257 34.1133 169.379 34.1897 175.036 34.1549Z" fill="var(--fill-0, #F1B386)"/>
<path id="Vector_2" d="M175.036 34.1549L175.219 34.0703C176.525 33.4556 178.045 32.3018 179.391 32.0492C182.135 31.5341 185.27 31.5549 188.077 31.6256C193.43 31.7607 198.712 30.7879 203.326 34.1635C208.068 34.1927 213.374 34.111 218.044 34.6182C234.12 36.3723 249.083 43.7322 260.346 55.4256C265.833 61.037 273.43 71.8302 275.503 79.4869C278.325 80.8905 280.824 82.0279 283.328 84.0804C288.4 88.2394 291.704 94.8737 292.057 101.457C292.343 106.786 292.071 112.13 292.16 117.463C292.084 121.932 292.422 128.034 292.012 132.313C292.367 137.777 291.59 139.946 291.162 144.744C288.146 152.225 286.376 154.117 280.152 158.836C278.384 159.631 275.608 160.917 273.782 161.328C267.815 162.672 259.943 162.228 253.742 162.21C252.557 162.045 248.147 162.19 246.641 162.197L228.43 162.227C225.362 162.229 222.031 162.523 219.007 162.068C218.062 161.926 217.217 161.658 216.442 161.083C212.631 158.257 209.517 149.893 205.726 147.102C204.845 146.453 203.878 146.209 202.81 146.084C198.779 145.612 193.871 146.039 189.755 146.029C186.386 146.02 179.515 145.581 176.452 146.12C175.452 146.296 174.597 146.664 173.803 147.305C171.277 149.345 167.788 155.422 165.738 158.322C164.783 159.675 163.607 161.124 162.018 161.72C159.451 162.683 137.127 162.245 132.63 162.185C130.019 162.151 127.357 161.785 124.765 162.213L120.343 162.221C110.671 162.222 107.334 162.812 98.3101 158.896C96.7671 157.443 94.6659 156.238 92.9336 154.309C85.9902 146.577 86.373 139.683 86.3745 130.328L86.3811 117.709C86.497 114.014 86.4291 110.082 86.4245 106.369C86.3398 102.264 86.3763 99.132 87.6484 95.1905C89.3682 89.7975 92.9293 85.1935 97.699 82.197C99.4873 81.0937 101.063 80.4682 102.902 79.5259C103.121 79.1222 103.029 79.3315 103.16 78.968C106.248 70.3918 112.121 61.4002 118.488 54.9233C129.34 43.9988 143.438 36.9496 158.634 34.8496C164.257 34.1133 169.379 34.1897 175.036 34.1549Z" fill="var(--fill-0, #DBBBB2)"/>
<path id="Vector_3" d="M175.036 34.1549L175.219 34.0703C176.525 33.4556 178.045 32.3018 179.391 32.0492C182.135 31.5341 185.27 31.5549 188.077 31.6256C193.43 31.7607 198.712 30.7879 203.326 34.1635C208.068 34.1927 213.374 34.111 218.044 34.6182C234.12 36.3723 249.083 43.7322 260.346 55.4256C265.833 61.037 273.43 71.8302 275.503 79.4869C273.858 79.3312 271.671 78.5993 269.932 78.5299C262.393 78.2291 254.657 78.3599 247.105 78.3601L206.34 78.3664C195.141 78.158 183.344 78.3511 172.096 78.353C171.8 66.0289 172.118 53.3287 172.226 40.9904C172.238 39.5271 172.936 37.6814 173.475 36.3405C174.121 35.5325 174.506 35.0652 175.036 34.1549Z" fill="var(--fill-0, #522D1E)"/>
<path id="Vector_4" d="M175.036 34.1549L175.219 34.0703C176.525 33.4556 178.045 32.3018 179.391 32.0492C182.135 31.5341 185.27 31.5549 188.077 31.6256C193.43 31.7607 198.712 30.7879 203.326 34.1635C206.877 39.3788 206.374 40.4217 206.375 46.5371V56.4637L206.37 70.8602C206.368 73.0947 206.455 76.2067 206.34 78.3664C195.141 78.158 183.344 78.3511 172.096 78.353C171.8 66.0289 172.118 53.3287 172.226 40.9904C172.238 39.5271 172.936 37.6814 173.475 36.3405C174.121 35.5325 174.506 35.0652 175.036 34.1549Z" fill="var(--fill-0, #C49082)"/>
<path id="Vector_5" d="M102.902 79.5259C103.121 79.1222 103.029 79.3315 103.16 78.968C106.248 70.3918 112.121 61.4002 118.487 54.9233C129.34 43.9988 143.438 36.9496 158.634 34.8496C164.257 34.1133 169.379 34.1897 175.036 34.1549C174.506 35.0652 174.121 35.5325 173.475 36.3405C172.936 37.6814 172.238 39.5271 172.226 40.9904C172.118 53.3287 171.8 66.0289 172.096 78.353C160.817 78.6577 149.277 78.1655 137.969 78.3615C133.644 78.4367 128.467 78.5018 124.21 78.1699C116.619 78.3729 110.374 77.9765 102.902 79.5259Z" fill="var(--fill-0, #522D1E)"/>
<path id="Vector_6" d="M102.902 79.5259C103.121 79.1222 103.029 79.3315 103.16 78.968C106.248 70.3918 112.121 61.4002 118.487 54.9233C129.34 43.9988 143.438 36.9496 158.634 34.8496C164.257 34.1133 169.379 34.1897 175.036 34.1549C174.506 35.0652 174.121 35.5325 173.475 36.3405C171.28 36.7124 166.738 38.3043 164.672 39.136C151.988 44.196 141.041 52.871 133.169 64.1005C129.574 69.2045 128.134 72.4274 125.598 77.9811C125.13 78.0516 124.682 78.1214 124.21 78.1699C116.619 78.3729 110.374 77.9765 102.902 79.5259Z" fill="var(--fill-0, #381F15)"/>
<g id="Group 22">
<path id="Vector_7" d="M262.955 103.265C268.668 102.887 269.57 106.841 269.484 111.483C269.358 118.2 269.654 124.984 269.388 131.702C269.266 134.807 267.861 136.412 264.941 137.271C263.906 137.345 262.983 137.311 262.001 136.937C260.735 136.455 259.548 135.468 259.032 134.18C258.655 133.24 258.559 132.008 258.502 130.999C258.317 127.778 258.112 108.447 258.987 106.465C259.755 104.723 261.257 103.87 262.955 103.265Z" fill="var(--fill-0, #955746)"/>
<path id="Vector_8" d="M113.416 103.276C114.517 103.216 115.459 103.226 116.499 103.639C117.867 104.183 118.985 105.193 119.547 106.58C120.303 108.447 120.145 128.993 119.929 132.14C119.886 132.772 119.79 133.38 119.528 133.961C118.723 135.742 117.426 136.581 115.679 137.253C114.587 137.332 113.633 137.347 112.59 136.97C111.264 136.49 110.079 135.545 109.545 134.197C108.748 132.181 108.718 108.215 109.499 106.481C110.295 104.71 111.686 103.913 113.416 103.276Z" fill="var(--fill-0, #955746)"/>
<path id="Vector_9" d="M165.663 99.0257C166.961 99.0319 168.302 99.2962 169.417 99.9944C170.618 100.741 171.465 101.949 171.762 103.339C172.596 107.089 170.206 109.388 166.811 110.144C165.187 110.188 163.852 110.037 162.486 109.072C161.289 108.236 160.481 106.944 160.249 105.494C159.649 101.741 162.236 99.5379 165.663 99.0257Z" fill="var(--fill-0, #955746)"/>
<path id="Vector_10" d="M211.643 99.0291C219.055 99.0879 220.342 108.452 212.732 110.139C211.017 110.141 209.753 110.088 208.265 108.996C207.068 108.118 206.292 106.774 206.128 105.291C205.694 101.621 208.256 99.4401 211.643 99.0291Z" fill="var(--fill-0, #955746)"/>
<path id="Vector_11" d="M188.542 99.0244C189.88 98.9898 191.233 99.2528 192.372 99.9927C193.59 100.789 194.437 102.048 194.72 103.483C195.03 104.962 194.729 106.504 193.882 107.752C192.771 109.369 191.492 109.763 189.733 110.132C188.228 110.192 186.946 110.047 185.646 109.225C184.417 108.451 183.555 107.206 183.258 105.776C182.94 104.278 183.257 102.713 184.131 101.46C185.275 99.8453 186.685 99.2913 188.542 99.0244Z" fill="var(--fill-0, #955746)"/>
<path id="Vector_12" d="M234.231 98.9509C237.291 98.6773 240.004 100.923 240.333 104.002C240.659 107.08 238.483 109.856 235.436 110.244C233.413 110.501 231.411 109.638 230.198 107.986C228.987 106.335 228.753 104.152 229.591 102.278C230.427 100.405 232.201 99.1323 234.231 98.9509Z" fill="var(--fill-0, #955746)"/>
<path id="Vector_13" d="M142.729 98.9539C145.81 98.657 148.552 100.921 148.87 104.024C149.188 107.127 146.963 109.908 143.887 110.253C140.777 110.601 137.981 108.329 137.66 105.192C137.338 102.054 139.614 99.2538 142.729 98.9539Z" fill="var(--fill-0, #955746)"/>
</g>
<path id="Vector_14" d="M196.25 243.691C206.898 244.186 217.798 239.699 226.787 234.326C227.13 242.309 226.678 250.986 226.846 259.039C226.902 261.651 226.673 265.651 226.87 268.075L226.658 268.43C226.501 271.182 224.949 291.939 224.511 292.957C223.889 292.741 221.479 294.881 220.602 295.495C214.244 299.998 206.999 303.075 199.362 304.521C186.68 306.934 173.559 304.739 162.331 298.324C158.786 296.272 156.993 294.655 153.843 292.477C153.629 291.562 153.44 288.86 153.402 287.778C153.182 281.581 151.648 274.275 151.817 268.19L151.666 268.052C151.769 266.041 151.612 262.557 151.608 260.412L151.578 242.621C151.575 241.031 151.459 235.701 151.763 234.412C153.707 235.441 155.701 236.691 157.623 237.654C162.201 239.952 168.598 242.288 173.632 243.049C179.125 243.86 190.831 244.66 196.25 243.691Z" fill="var(--fill-0, #EC975A)"/>
<path id="Vector_15" d="M151.817 268.19C162.511 278.409 176.864 283.813 191.586 283.16C193.886 283.077 196.595 282.839 198.847 282.357C200.632 282.197 203.131 281.428 204.893 280.917C214.262 278.199 219.373 274.177 226.658 268.43C226.501 271.182 224.949 291.939 224.511 292.957C223.889 292.741 221.479 294.881 220.602 295.495C214.244 299.998 206.999 303.075 199.362 304.521C186.68 306.934 173.559 304.739 162.331 298.324C158.786 296.272 156.993 294.656 153.843 292.477C153.629 291.562 153.44 288.861 153.402 287.778C153.182 281.581 151.648 274.275 151.817 268.19Z" fill="var(--fill-0, #B85600)"/>
<path id="Vector_16" d="M151.763 234.412C153.707 235.441 155.701 236.691 157.623 237.654C162.201 239.952 168.598 242.288 173.632 243.049L173.663 243.399C173.791 244.984 173.71 247.765 173.702 249.417L173.649 259.973C173.631 264.205 172.884 267.708 176.52 270.625C180.92 274.156 185.611 277.083 190.853 279.196C192.583 279.923 198.12 281.51 198.847 282.357C196.595 282.839 193.886 283.077 191.586 283.16C176.864 283.813 162.511 278.409 151.817 268.19L151.666 268.052C151.769 266.041 151.612 262.557 151.608 260.412L151.578 242.621C151.575 241.031 151.459 235.701 151.763 234.412Z" fill="var(--fill-0, #E77A2C)"/>
<path id="Vector_17" d="M253.742 162.21C259.943 162.228 267.815 162.672 273.782 161.328C275.608 160.917 278.384 159.631 280.152 158.836C280.493 161.386 280.034 163.641 280.259 165.731C279.93 167.922 280.152 175.621 280.169 178.291C280.259 185.391 280.285 192.492 280.242 199.593C280.241 206.564 280.324 213.756 280.174 220.71C280.154 222.612 279.906 232.609 280.348 233.837C280.181 234.795 280.119 242.642 280.252 243.663C280.015 246.662 280.183 249.713 279.729 252.727C279.657 253.211 279.404 254.652 279.624 255.013C279.118 255.659 278.105 259.668 277.489 260.888C272.791 270.155 263.614 276.288 253.232 276.51C252.891 276.517 252.59 276.506 252.249 276.571C251.198 276.525 246.765 274.841 245.467 274.437C239.498 272.584 232.815 269.747 226.87 268.075C226.673 265.651 226.902 261.651 226.846 259.039C226.678 250.986 227.13 242.309 226.787 234.326C230.01 231.906 232.795 229.843 235.722 227.022C246.13 216.995 253.513 201.048 253.624 186.415C253.878 185.037 253.777 180.127 253.773 178.381L253.742 162.21Z" fill="var(--fill-0, #522D1E)"/>
<path id="Vector_18" d="M98.3101 158.896C107.334 162.812 110.671 162.222 120.343 162.221L124.765 162.213C124.71 166.754 124.693 171.295 124.716 175.837C124.717 180.992 124.602 186.279 125.204 191.399C126.79 204.278 132.478 216.29 141.414 225.633C143.437 227.735 145.616 229.679 147.932 231.446C148.679 232.023 151.221 233.865 151.763 234.412C151.459 235.701 151.575 241.031 151.578 242.621L151.608 260.412C151.612 262.557 151.769 266.041 151.666 268.052C146.562 269.664 140.572 271.788 135.517 273.617C134.012 274.127 126.853 276.772 125.891 276.649L125.914 276.61L125.799 276.472C120.307 276.964 112.922 273.805 108.892 270.586C99.9852 263.472 97.6183 254.029 98.3105 243.1C98.4221 241.334 98.4398 236.698 98.2261 234.912L98.1872 234.611C98.4572 233.344 98.4454 222.727 98.1582 221.324C98.4583 220.844 98.4633 198.416 98.1816 196.475C98.4773 195.525 98.4118 186.71 98.2305 185.418C98.4526 184.711 98.292 180.509 98.3243 179.486C98.5319 172.891 98.0068 165.381 98.3101 158.896Z" fill="var(--fill-0, #381F15)"/>
<path id="Vector_19" d="M120.343 162.221L124.765 162.213C124.71 166.754 124.693 171.295 124.716 175.837C124.717 180.992 124.602 186.279 125.204 191.399C126.79 204.278 132.478 216.29 141.414 225.633C143.437 227.735 145.616 229.679 147.932 231.446C148.679 232.023 151.221 233.865 151.763 234.412C151.459 235.701 151.575 241.031 151.578 242.621L151.608 260.412C151.612 262.557 151.769 266.041 151.666 268.052C146.562 269.664 140.572 271.788 135.517 273.617C132.742 271.784 130.795 270.566 128.411 268.164C124.604 264.337 122.025 259.448 121.008 254.126C120.209 250.098 120.355 244.368 120.356 240.151L120.362 223.994L120.343 162.221Z" fill="var(--fill-0, #522D1E)"/>
<path id="Vector_20" d="M124.765 162.213C127.357 161.785 130.019 162.151 132.63 162.185C137.127 162.245 159.451 162.683 162.018 161.72C163.607 161.124 164.783 159.675 165.738 158.322C167.788 155.422 171.277 149.345 173.803 147.305C174.597 146.664 175.452 146.296 176.452 146.12C179.515 145.581 186.386 146.02 189.755 146.029C193.871 146.039 198.779 145.612 202.81 146.084C203.878 146.209 204.845 146.453 205.726 147.102C209.517 149.893 212.631 158.257 216.442 161.083C217.217 161.658 218.062 161.926 219.007 162.068C222.031 162.523 225.362 162.229 228.43 162.227L246.641 162.197C248.147 162.19 252.557 162.045 253.742 162.21L253.773 178.381C253.777 180.127 253.878 185.037 253.624 186.415C253.589 185.76 253.62 184.832 253.328 184.286C241.857 184.597 230.135 184.336 218.666 184.296C214.377 184.28 208.293 169.736 204.986 168.86C198.494 167.392 191.335 168.542 184.622 168.179C183.429 168.114 177.067 168.096 176.063 168.389C169.351 170.352 166.912 184.999 159.143 184.412C153.593 183.992 147.677 184.864 147.49 191.977C148.621 205.666 156.668 219.213 166.118 228.168C172.199 233.822 179.391 238.123 187.228 240.791C190.294 241.848 193.258 242.421 196.25 243.691C190.831 244.66 179.125 243.86 173.632 243.049C168.598 242.288 162.201 239.952 157.623 237.654C155.701 236.691 153.707 235.441 151.763 234.412C151.221 233.865 148.679 232.023 147.932 231.446C145.616 229.679 143.437 227.735 141.414 225.633C132.478 216.29 126.79 204.278 125.204 191.399C124.602 186.279 124.717 180.992 124.716 175.837C124.693 171.295 124.71 166.754 124.765 162.213Z" fill="var(--fill-0, #EC975A)"/>
<path id="Vector_21" d="M172.149 184.013C182.767 183.503 174.458 196.818 186.759 199.859C189.58 200.535 192.551 200.031 194.999 198.462C198.886 195.992 199.437 192.358 200.137 188.245C200.525 186.729 201.363 185.379 202.719 184.62C205.379 183.132 209.177 184.358 210.347 187.187C211.558 190.109 210.342 194.751 209.247 197.618C209.102 197.982 208.95 198.343 208.79 198.702C206.435 203.874 202.138 207.892 196.846 209.876C191.455 211.931 185.471 211.727 180.232 209.304C175.003 206.892 170.945 202.475 168.957 197.037C167.23 192.258 166.092 185.925 172.149 184.013Z" fill="var(--fill-0, #D74409)"/>
<path id="Vector_22" d="M74.4058 3.381C75.3183 3.32285 77.0481 3.8058 77.7975 4.26309C80.4228 5.86511 80.2246 9.0859 80.8992 11.6731C81.9297 15.6246 86.7936 14.2318 89.5698 16.1725C90.6046 16.828 91.5976 17.8124 91.777 19.0974C92.5474 24.6156 88.7061 26.0206 84.1781 26.5392C82.8058 26.7437 81.2034 28.1624 80.8673 29.5063C79.7567 33.9462 80.7178 36.3851 75.3451 37.7601C70.1142 37.9056 69.464 33.7885 68.8519 29.7452C68.0913 24.7191 58.4783 27.4221 57.827 22.0675C57.054 15.7128 61.406 15.4557 65.5642 14.6099C71.8724 13.3266 65.9697 5.11937 74.4058 3.381Z" fill="var(--fill-0, #F5500E)"/>
<path id="Vector_23" d="M336.44 69.6171C342.874 68.9709 342.601 74.1821 343.788 78.4107C344.517 81.0151 348.901 80.9151 351.134 81.6806C354.213 82.7363 355.084 86.0195 354.078 88.983C352.73 92.4556 348.19 91.9183 346.047 92.9549C340.588 95.5957 345.876 101.11 338.799 103.736C337.712 103.999 336.411 103.99 335.388 103.551C331.778 101.998 332.313 97.9923 331.16 95.0069C330.11 92.2883 326.466 92.6049 324.034 91.6958C320.261 90.2862 319.816 87.5437 321.106 83.9515C322.503 80.8576 326.451 81.4081 328.984 80.505C332.367 79.2979 331.42 75.0425 332.596 72.4782C333.384 70.762 334.82 70.2039 336.44 69.6171Z" fill="var(--fill-0, #F5500E)"/>
<path id="Vector_24" d="M290.516 15.8955C296.815 15.1863 302.498 19.7417 303.231 26.0873C303.963 32.4328 299.471 38.1824 293.179 38.9509C286.844 39.7245 281.095 35.1593 280.357 28.7716C279.618 22.3841 284.176 16.6094 290.516 15.8955Z" fill="var(--fill-0, #FF8921)"/>
<path id="Vector_25" d="M359.279 26.1216C362.326 25.5378 365.263 27.565 365.824 30.6402C366.385 33.7152 364.357 36.6634 361.304 37.2111C359.668 37.5043 357.987 37.05 356.717 35.9712C355.447 34.8924 354.72 33.3007 354.729 31.6267C354.746 28.9316 356.651 26.6248 359.279 26.1216Z" fill="var(--fill-0, #F5500E)"/>
<path id="Vector_26" d="M27.7946 49.6386C29.749 49.1481 31.8142 49.7549 33.2012 51.2268C34.5883 52.6989 35.0829 54.8091 34.4964 56.7511C33.9098 58.6933 32.3323 60.1675 30.3668 60.6108C27.3777 61.2848 24.4068 59.4101 23.7023 56.4057C22.998 53.401 24.8223 50.3845 27.7946 49.6386Z" fill="var(--fill-0, #FF8921)"/>
<path id="Vector_27" d="M42.6117 196.862C49.4148 196.805 49.0614 203.465 48.741 208.424C52.0767 208.326 56.8021 207.747 59.1227 210.677C60.0093 211.79 60.413 213.217 60.2423 214.634C59.5734 220.117 52.8248 220.232 48.6922 219.708C48.8443 225.123 49.8574 229.755 43.3631 231.296C36.92 230.797 37.1472 224.697 37.3775 219.786C35.6383 219.879 33.6669 219.843 31.9257 219.737C28.6217 219.535 25.5052 216.824 26.079 213.258C26.3286 211.794 27.1455 210.491 28.3496 209.636C30.6206 207.997 34.9753 208.153 37.6123 208.59C37.1675 206.358 37.1053 201.606 38.372 199.655C39.5654 197.817 40.6638 197.333 42.6117 196.862Z" fill="var(--fill-0, #FF8921)"/>
<path id="Vector_28" d="M151.666 268.052L151.817 268.19C151.648 274.275 153.182 281.581 153.402 287.778C153.44 288.86 153.629 291.562 153.843 292.477C156.993 294.655 158.786 296.272 162.331 298.324C173.559 304.739 186.68 306.934 199.362 304.521C206.999 303.075 214.244 299.998 220.602 295.495C221.479 294.881 223.889 292.741 224.511 292.957C222.143 321.026 219.019 349.517 216.949 377.536C211.182 377.785 204.174 377.618 198.31 377.618H161.93C154.137 377.636 146.372 377.432 138.571 377.542C136.331 377.757 132.008 377.605 129.591 377.599H113.096L59.2378 377.644C50.21 377.644 51.2554 373.454 51.2559 366.08L51.2602 356.244C51.2653 348.247 51.052 339.014 51.2962 331.117C51.1123 329.087 51.9787 321.887 52.2927 319.646C59.1413 297.617 71.0365 295.775 90.3261 289.071L125.494 276.993L125.891 276.649C126.853 276.772 134.012 274.127 135.517 273.617C140.572 271.788 146.562 269.664 151.666 268.052Z" fill="var(--fill-0, #595DE8)"/>
<path id="Vector_29" d="M153.843 292.477C156.993 294.655 158.786 296.272 162.331 298.324C173.559 304.739 186.68 306.934 199.362 304.521C206.999 303.075 214.244 299.998 220.602 295.495C221.479 294.881 223.889 292.741 224.511 292.957C222.143 321.026 219.019 349.517 216.95 377.536C211.182 377.785 204.174 377.618 198.31 377.618H161.93L161.683 377.463C161.241 376.515 159.898 359.1 159.69 356.812L153.843 292.477Z" fill="var(--fill-0, #FF8921)"/>
<path id="Vector_30" d="M151.666 268.052L151.817 268.19C151.648 274.275 153.182 281.581 153.402 287.778C153.44 288.86 153.629 291.562 153.843 292.477L159.69 356.812C159.898 359.1 161.241 376.515 161.682 377.463L161.93 377.618C154.137 377.636 146.372 377.432 138.571 377.542C138.474 377.493 136.247 375.283 135.959 375.002C129.997 369.17 123.853 363.555 117.982 357.638C117.434 357.083 116.046 354.734 116.754 353.059C119.72 346.091 129.267 341.309 131.344 334.061C132.25 330.903 127.637 328.724 125.299 328.043C108.379 323.115 109.157 324.023 114.65 308.526L122.866 285.315C123.559 283.352 125.379 278.803 125.494 276.993L125.891 276.649C126.853 276.772 134.012 274.127 135.517 273.617C140.572 271.788 146.562 269.664 151.666 268.052Z" fill="var(--fill-0, #7679EC)"/>
<path id="Vector_31" d="M226.658 268.43L226.87 268.075C232.815 269.747 239.498 272.584 245.467 274.437C246.765 274.841 251.198 276.524 252.249 276.571L252.714 276.863C264.253 281.069 276.39 284.851 287.974 289.013C294.436 291.333 305.634 294.531 311.171 298.142C316.739 301.853 321.167 307.06 323.95 313.175C327.215 320.246 327.114 325.829 327.112 333.355L327.101 346.167L327.11 362.687C327.12 365.71 327.239 368.787 327.101 371.804C327.062 372.662 326.99 373.546 326.686 374.355C326.198 375.648 324.818 376.838 323.537 377.285C321.302 378.062 299.938 377.616 296.195 377.614C277.503 377.605 258.742 377.925 240.056 377.484C232.758 377.294 224.059 377.982 216.949 377.536C219.019 349.517 222.143 321.026 224.511 292.957C224.949 291.939 226.501 271.182 226.658 268.43Z" fill="var(--fill-0, #595DE8)"/>
<path id="Vector_32" d="M226.658 268.43L226.87 268.075C232.815 269.747 239.498 272.584 245.467 274.437C246.765 274.841 251.198 276.524 252.249 276.571L252.714 276.863C253.19 279.59 255.349 284.677 256.363 287.519L264.316 309.962C265.351 312.891 266.889 316.137 267.304 319.216C267.476 320.492 267.394 321.329 266.699 322.431C265.501 324.324 263.304 324.842 261.32 325.5C259.502 326.103 257.734 326.735 255.892 327.28C252.236 328.361 246.232 329.425 247.188 334.651C248.048 339.356 259.844 347.742 261.547 352.591C262.075 354.092 261.798 355.632 260.966 356.964C259.831 358.778 257.788 360.372 256.239 361.85L245.49 372.1C244.314 373.222 240.899 376.366 240.056 377.484C232.758 377.294 224.059 377.982 216.949 377.536C219.019 349.517 222.143 321.026 224.511 292.957C224.949 291.939 226.501 271.182 226.658 268.43Z" fill="var(--fill-0, #7679EC)"/>
<path id="Vector_33" d="M42.3594 102.949C44.4656 99.4068 48.3235 97.3074 52.4172 97.4757C56.5108 97.6439 60.1863 100.053 61.9994 103.756C63.7076 107.246 63.5114 111.376 61.4802 114.685C59.3619 118.136 55.568 120.175 51.5446 120.024C47.5213 119.873 43.8884 117.556 42.0304 113.956C40.2356 110.478 40.3602 106.311 42.3594 102.949Z" fill="var(--fill-0, #7679EC)"/>
<path id="Vector_34" d="M320.146 186.379C323.129 184.493 326.822 184.137 330.106 185.42C333.602 186.785 336.184 189.83 336.977 193.527C337.171 194.429 337.254 195.354 337.223 196.278C337.097 200.075 335.078 203.55 331.856 205.519C328.666 207.466 324.724 207.678 321.346 206.086C317.727 204.378 315.29 200.849 314.96 196.836C314.934 196.528 314.921 196.219 314.921 195.908C314.919 192.037 316.894 188.437 320.146 186.379Z" fill="var(--fill-0, #7679EC)"/>
<g id="Group 21">
<path id="Vector_35" d="M98.1582 221.324C98.4454 222.727 98.4572 233.344 98.1872 234.611C72.2851 252.321 45.7172 269.042 24.602 292.873C21.0816 296.845 9.58277 310.301 13.2065 316.967C19.771 324.43 43.6755 321.242 52.2927 319.645C51.9787 321.887 51.1123 329.087 51.2962 331.116C48.8621 331.658 46.3237 331.866 43.8495 332.138C34.1472 333.204 23.3995 333.803 14.0263 330.555C9.28908 328.914 4.93564 326.049 2.70882 321.383C0.26725 316.269 0.859852 311.116 2.71432 305.912C11.6687 280.786 56.1694 248.835 78.3461 233.924C84.3097 229.915 91.876 224.325 98.1582 221.324Z" fill="var(--fill-0, #F5500E)"/>
<path id="Vector_36" d="M0 120.57C0.125356 120.321 0.170026 120.276 0.227618 120.044C2.40824 111.245 9.90463 107.093 18.0974 105.119C23.6569 103.78 29.2071 103.037 34.9301 102.803C37.2337 102.709 40.1306 102.48 42.3594 102.949C40.3602 106.311 40.2356 110.478 42.0304 113.956C36.1391 113.88 12.2874 114.324 11.1986 123.443C10.7396 127.287 18.131 135.752 20.7197 138.073C26.529 143.768 32.7241 148.045 39.2601 152.607C51.9113 161.437 65.2375 168.733 78.9167 175.79C82.7833 177.779 86.6746 179.719 90.5897 181.61C92.3016 182.428 96.8213 184.421 98.2305 185.418C98.4118 186.71 98.4773 195.525 98.1816 196.475C94.4391 196.589 90.6107 194.146 87.2726 192.535C68.937 183.695 50.5952 174.281 33.7788 162.714C21.5294 154.289 7.36629 144.318 1.16488 130.241C0.664281 129.098 0.624979 127.674 0 126.491V120.57Z" fill="var(--fill-0, #F5500E)"/>
<path id="Vector_37" d="M292.012 132.313C295.846 131.362 299.598 130.103 303.437 129.145C319.692 125.087 353.482 117.721 368.329 126.783C372.522 129.343 375.346 132.7 376.496 137.602C378.161 144.689 374.617 152.501 370.937 158.384C363.917 169.607 353.751 179.208 343.875 187.873C341.747 189.741 339.401 192.094 336.977 193.527C336.184 189.83 333.602 186.785 330.106 185.42C332.038 182.64 337.513 178.263 340.222 175.878C348.07 168.973 358.921 158.07 363.493 148.647C364.715 146.126 366.33 142.374 365.276 139.576C364.593 137.763 362.779 136.577 361.069 135.87C348.078 130.499 319.731 136.756 306.191 140.196C301.112 141.486 295.997 142.683 291.162 144.744C291.59 139.946 292.367 137.777 292.012 132.313Z" fill="var(--fill-0, #F5500E)"/>
<path id="Vector_38" d="M348.408 203.329C359.785 211.868 372.28 221.056 377.337 234.843C377.62 235.612 377.74 236.521 378 237.305V242.923C376.337 248.591 373.502 252.215 368.321 255.047C350.785 264.626 313.076 260.217 293.548 257.283C288.921 256.587 284.203 255.984 279.624 255.013C279.404 254.652 279.657 253.211 279.729 252.727C280.183 249.713 280.015 246.662 280.252 243.663C281.872 244.063 284.19 244.383 285.84 244.659C301.747 247.31 357.524 256.051 366.998 241.049C366.952 240.631 366.786 239.182 366.703 238.867C364.128 229.106 349.041 217.564 341.265 212.303C341.821 211.208 344.931 210.166 346.136 208.588C347.424 206.905 347.478 204.516 348.408 203.329Z" fill="var(--fill-0, #F5500E)"/>
<path id="Vector_39" d="M314.96 196.836C315.29 200.849 317.727 204.378 321.346 206.086C319.567 207.8 314.703 211.137 312.494 212.709C305.204 217.89 297.784 222.887 290.242 227.692C287.817 229.24 282.585 232.749 280.348 233.837C279.906 232.609 280.154 222.612 280.174 220.71C281.985 219.737 286.034 216.694 288.123 215.315C297.166 209.297 306.112 203.137 314.96 196.836Z" fill="var(--fill-0, #F5500E)"/>
<path id="Vector_40" d="M280.259 165.731C290.169 170.378 299.993 175.204 309.731 180.207C312.001 181.416 318.886 184.654 320.146 186.379C316.894 188.437 314.919 192.037 314.921 195.908C313.04 194.639 307.671 191.886 305.37 190.677C299.766 187.512 292.994 184.524 287.225 181.627C284.949 180.485 282.382 179.493 280.169 178.291C280.152 175.621 279.93 167.922 280.259 165.731Z" fill="var(--fill-0, #F5500E)"/>
<path id="Vector_41" d="M309.731 180.206C312.001 181.416 318.886 184.654 320.146 186.379C316.894 188.437 314.919 192.037 314.921 195.908C313.04 194.639 307.671 191.886 305.37 190.677C305.665 189.471 304.977 187.416 305.241 185.641C305.717 182.451 308.801 181.982 309.731 180.206Z" fill="var(--fill-0, #F5500E)"/>
<path id="Vector_42" d="M61.9994 103.756C64.2543 103.604 66.4272 103.889 68.6777 104.106C74.5897 104.677 80.5454 105.526 86.4245 106.369C86.4291 110.082 86.4971 114.014 86.3811 117.709C86.3548 117.701 81.8566 117.088 81.4991 117.037C76.9653 116.369 72.4201 115.782 67.8654 115.278C65.7528 115.045 63.5457 114.976 61.4802 114.685C63.5114 111.376 63.7076 107.246 61.9994 103.756Z" fill="var(--fill-0, #F5500E)"/>
<path id="Vector_43" d="M337.223 196.278C338.744 196.983 347.332 202.31 348.408 203.329C347.478 204.516 347.424 206.905 346.136 208.588C344.93 210.166 341.82 211.208 341.265 212.303C339.279 210.94 333.148 207.202 331.856 205.519C335.078 203.55 337.097 200.075 337.223 196.278Z" fill="var(--fill-0, #F5500E)"/>
</g>
</g>
<defs>
<clipPath id="clip0_0_4">
<rect width="378" height="381" fill="white"/>
</clipPath>
</defs>
</svg>
