<svg preserveAspectRatio="none" width="100%" height="100%" overflow="visible" style="display: block;" viewBox="0 0 115.995 104.715" fill="none" xmlns="http://www.w3.org/2000/svg">
<g id="Group 11">
<path id="Vector" d="M9.73968 7.50533C11.1338 7.17195 13.2893 6.88191 14.7548 6.64239L23.5953 5.19528L46.0864 1.51566C47.3567 1.30803 55.2894 -0.121302 55.8999 0.00829159C56.5081 0.13737 57.7823 1.00971 58.4054 1.36778C60.2654 2.42465 62.1197 3.4929 63.9672 4.57254L79.8803 13.6942L84.7761 16.5002C86.0346 17.2142 87.2892 17.9392 88.542 18.6639C88.9311 18.8889 89.1226 19.0559 89.5547 19.2336C90.2213 19.5536 90.8891 19.9646 91.1434 20.7039C91.5002 21.7411 90.8676 22.8005 89.8294 23.079C89.3548 23.2064 88.8501 23.225 88.3766 23.3329C88.3149 23.8172 88.0714 24.1694 87.9892 24.6252C93.9572 27.8709 100.005 31.6024 105.902 35.0155L111.855 38.4922C112.246 38.7203 114.199 39.816 114.432 40.0127C115.243 40.4729 115.584 40.565 115.995 41.4143V42.4737C115.2 43.9374 114.775 43.7537 113.333 44.0286L113.32 44.1018C113.207 44.7214 112.962 45.5244 112.775 46.1477C111.734 49.6198 111.949 52.7135 112.541 56.2613C112.698 57.214 112.888 58.161 113.11 59.1006C113.207 59.522 113.434 60.362 113.476 60.7613C114.917 60.6672 115.317 60.8547 115.995 62.1342V63.0245C115.753 63.5547 115.316 64.2168 114.741 64.368C113.742 64.6308 112.515 64.7928 111.49 64.9564L105.095 65.9782C104.807 66.0229 103.596 66.1651 103.432 66.2795L103.389 66.3701C103.491 67.1342 103.427 68.1588 103.441 68.9347C103.475 70.7268 103.569 73.3757 102.387 74.8727C101.623 75.8412 99.3718 77.2962 98.2543 78.0943L93.213 81.6942L75.7208 94.1903L66.4067 100.846C65.2359 101.684 64.0613 102.527 62.8973 103.363C62.1452 103.904 61.1886 104.642 60.2399 104.705C59.0544 104.782 57.5875 104.421 56.4148 104.211L51.6638 103.349L40.2292 101.3L13.6393 96.5357L5.77472 95.1254C4.51178 94.9005 3.24457 94.6853 1.98194 94.4604C0.848702 94.2588 0.490056 93.9337 0 92.9318V92.1598C0.125864 91.9248 0.165443 91.7254 0.328792 91.4835C0.874132 90.677 1.58432 90.545 2.46449 90.7076C2.46699 90.2426 2.75063 89.3817 2.86828 88.8997C3.44648 86.5962 4.01857 84.235 4.16922 81.8579C4.39502 78.2953 3.25307 75.0307 2.54169 71.6313C1.19174 71.3866 0.70462 71.3821 0 70.106V69.052C0.0666536 68.9483 0.101232 68.8073 0.169716 68.7065C0.54912 68.1463 0.951432 67.8422 1.53594 67.5539C1.97156 67.2265 2.65529 66.8635 3.14972 66.5293C4.87199 65.362 6.60198 64.206 8.33964 63.0613C13.2941 59.8375 18.262 56.455 23.3101 53.3949C23.1193 53.2029 21.8336 52.4451 21.5266 52.2508C19.8668 51.203 18.2157 50.1412 16.5735 49.0657C15.8958 48.6282 15.2218 48.2358 14.5525 47.7772C12.3133 46.2427 12.5706 43.7179 12.5764 41.3044L12.5845 37.339C12.5839 35.4271 12.5728 33.5089 12.5938 31.5968C12.5995 31.0804 12.586 30.2433 12.8372 29.8025C11.1765 28.6347 9.22365 27.5828 7.56534 26.3942C6.80696 25.8506 6.2498 24.8579 6.19192 23.9335C6.09156 22.33 6.14961 20.5362 6.15641 18.9173L6.17533 14.7999C6.1815 13.6427 6.14638 12.343 6.36563 11.2097C6.64797 9.7503 8.16435 7.66391 9.73968 7.50533Z" fill="var(--fill-0, #D74409)"/>
<path id="Vector_2" d="M23.3102 53.3949C24.319 53.9721 25.3798 54.6823 26.3636 55.3133L31.226 58.4323L46.0619 67.9447L51.3213 71.3209C55.6496 74.1019 54.8779 74.0214 59.9692 73.203L66.1994 72.1988C67.2818 72.0238 68.7419 71.7474 69.809 71.6517C70.7815 71.4087 72.5984 71.1686 73.6406 71.0015L80.6824 69.8653L102.221 66.3934C102.443 66.3594 103.172 66.2325 103.359 66.2739L103.389 66.3702C103.491 67.1342 103.427 68.1588 103.441 68.9347C103.475 70.7268 103.569 73.3758 102.387 74.8727C101.623 75.8412 99.3719 77.2963 98.2544 78.0943L93.213 81.6942L75.7209 94.1903L66.4067 100.846C65.236 101.684 64.0613 102.527 62.8974 103.363C62.1453 103.904 61.1886 104.642 60.2399 104.705C59.0545 104.782 57.5876 104.421 56.4149 104.211L51.6638 103.349L40.2293 101.3L13.6394 96.5357L5.77479 95.1254C4.51184 94.9006 3.24464 94.6853 1.98201 94.4605C0.848768 94.2588 0.490122 93.9337 6.61104e-05 92.9318V92.1598C0.12593 91.9248 0.165509 91.7254 0.328858 91.4836C0.874198 90.677 1.58439 90.5451 2.46455 90.7076C2.46706 90.2426 2.7507 89.3817 2.86835 88.8997C3.44655 86.5963 4.01864 84.235 4.16929 81.8579C4.39508 78.2954 3.25314 75.0307 2.54175 71.6313C1.1918 71.3866 0.704686 71.3821 6.61104e-05 70.106V69.052C0.0667197 68.9483 0.101298 68.8073 0.169782 68.7065C0.549186 68.1463 0.951498 67.8422 1.536 67.5539C1.97162 67.2265 2.65535 66.8635 3.14978 66.5293C4.87205 65.362 6.60205 64.206 8.33971 63.0614C13.2942 59.8375 18.2621 56.4551 23.3102 53.3949Z" fill="var(--fill-0, #DB6700)"/>
<path id="Vector_3" d="M2.54171 71.6313C3.78568 71.7819 5.05045 72.047 6.28908 72.269L12.4834 73.3774L31.8035 76.8392L49.8164 80.0676L55.4885 81.0831C56.5761 81.2762 57.6759 81.4626 58.7475 81.6834C59.8038 81.9009 60.3475 83.2676 60.4506 84.231C60.5525 85.1894 60.514 86.2632 60.5106 87.2351L60.514 91.9429L60.5231 96.7356C60.5248 97.2493 60.5389 97.7908 60.5327 98.2853C60.5231 99.0884 60.5378 100.175 59.9709 100.803C59.7851 101.008 59.3014 100.888 59.055 100.86C57.0767 100.507 55.0939 100.142 53.1157 99.7856L41.0714 97.6237L2.46451 90.7076C2.46701 90.2426 2.75065 89.3817 2.8683 88.8997C3.44651 86.5962 4.0186 84.235 4.16924 81.8579C4.39504 78.2953 3.25309 75.0307 2.54171 71.6313Z" fill="var(--fill-0, #FFF8ED)"/>
<path id="Vector_4" d="M23.3101 53.3949C24.319 53.9721 25.3798 54.6823 26.3636 55.3133L31.226 58.4323L46.0619 67.9447L51.3213 71.3209C55.6496 74.1019 54.8779 74.0214 59.9692 73.203L66.1994 72.1988C67.2818 72.0238 68.7419 71.7474 69.809 71.6517C69.0619 72.2639 67.8918 73.0161 67.0903 73.6017C64.9205 75.1865 62.5768 76.7033 60.4297 78.305C59.4447 77.8808 57.4958 77.6384 56.3783 77.439L49.4937 76.2094L16.8194 70.3564L6.20573 68.4573C4.77332 68.2002 3.33055 67.9357 1.89133 67.7102C1.73756 67.6859 1.66085 67.6372 1.53599 67.5539C1.9716 67.2265 2.65534 66.8635 3.14976 66.5293C4.87204 65.362 6.60203 64.206 8.33969 63.0614C13.2942 59.8375 18.2621 56.4551 23.3101 53.3949Z" fill="var(--fill-0, #FF8921)"/>
<path id="Vector_5" d="M87.9892 24.6252C93.9572 27.8709 100.005 31.6024 105.902 35.0155L111.855 38.4922C112.246 38.7202 114.199 39.816 114.432 40.0127C115.243 40.4729 115.584 40.565 115.995 41.4142V42.4737C115.2 43.9374 114.775 43.7537 113.333 44.0286L113.32 44.1018C113.207 44.7214 112.962 45.5244 112.775 46.1477C111.734 49.6198 111.949 52.7135 112.541 56.2613C112.698 57.214 112.888 58.161 113.11 59.1006C113.207 59.522 113.434 60.362 113.476 60.7613C114.917 60.6672 115.317 60.8547 115.995 62.1342V63.0245C115.753 63.5546 115.316 64.2167 114.741 64.368C113.742 64.6308 112.515 64.7928 111.49 64.9564L105.095 65.9782C104.807 66.0229 103.596 66.1651 103.432 66.2795L103.389 66.3701L103.359 66.2739C103.172 66.2325 102.443 66.3594 102.221 66.3934L80.6823 69.8653L73.6405 71.0014C72.5983 71.1685 70.7814 71.4087 69.8089 71.6517C68.7419 71.7474 67.2817 72.0238 66.1994 72.1988L59.9692 73.203C54.8779 74.0214 55.6496 74.1018 51.3212 71.3209L46.0619 67.9447L31.226 58.4323L26.3635 55.3132C25.3797 54.6823 24.3189 53.972 23.3101 53.3949C23.1193 53.2029 21.8336 52.4451 21.5266 52.2508C19.8668 51.203 18.2157 50.1412 16.5735 49.0657C15.8958 48.6281 15.2218 48.2358 14.5525 47.7772C12.3133 46.2427 12.5706 43.7179 12.5764 41.3044L12.5845 37.339C12.5839 35.4271 12.5728 33.5088 12.5938 31.5968C12.5995 31.0804 12.586 30.2433 12.8372 29.8025C13.7048 30.2491 14.9821 31.1239 15.8259 31.6674L20.6549 34.764L36.1502 44.5956C37.204 45.25 40.3198 47.3574 41.318 47.5345C42.7857 47.7951 48.2868 46.5611 50.1861 46.3576C51.2595 46.1307 52.5712 45.9573 53.6757 45.7795L60.0824 44.7463L79.6645 41.5896L86.2006 40.5387C87.3169 40.3592 90.061 40.1442 90.7452 39.305C91.059 38.9141 91.2034 38.4138 91.1462 37.9157C91.0817 37.4167 90.8245 36.9629 90.4292 36.6516C89.8096 36.1637 89.1577 36.2746 88.4401 36.3728C87.0366 32.315 86.3643 28.8244 87.9892 24.6252Z" fill="var(--fill-0, #595DE8)"/>
<path id="Vector_6" d="M56.0831 69.9831C55.2491 69.129 55.459 67.6773 55.4593 66.5355L55.4643 62.6586L55.4689 58.0636C55.4709 57.0243 55.4341 55.9391 55.5893 54.9105C55.6625 54.4251 55.9347 54.0162 56.2064 53.6243C56.5632 53.1094 56.9357 53.1508 57.4828 53.0024C58.4751 52.8183 59.5156 52.6705 60.5181 52.5096L66.3824 51.566L84.5565 48.6387L103.933 45.5172C106.839 45.0536 110.449 44.3564 113.333 44.0286L113.32 44.1018C113.207 44.7214 112.962 45.5244 112.775 46.1477C111.734 49.6198 111.95 52.7135 112.541 56.2613C112.698 57.214 112.888 58.161 113.11 59.1006C113.207 59.522 113.434 60.3619 113.477 60.7612C112.797 60.9448 111.133 61.1696 110.368 61.2931L104.149 62.2967L84.1679 65.5189L64.9404 68.6107L59.4448 69.5005C58.5533 69.6461 56.9521 69.9474 56.0831 69.9831Z" fill="var(--fill-0, #FFF8ED)"/>
<path id="Vector_7" d="M87.9893 24.6252C93.9572 27.8709 100.005 31.6024 105.902 35.0155L111.855 38.4922C112.246 38.7203 114.199 39.816 114.432 40.0127C114.153 40.1237 111.265 40.5494 110.837 40.6193L100.419 42.3168L71.0907 47.1147L61.1218 48.7522C59.2487 49.0591 57.1678 49.3541 55.3187 49.7234C54.6167 49.2639 50.4709 46.7726 50.1861 46.3576C51.2595 46.1307 52.5713 45.9573 53.6758 45.7795L60.0825 44.7463L79.6646 41.5896L86.2006 40.5387C87.317 40.3592 90.0611 40.1442 90.7453 39.305C91.059 38.9141 91.2035 38.4138 91.1463 37.9157C91.0817 37.4167 90.8246 36.9629 90.4292 36.6516C89.8096 36.1637 89.1577 36.2746 88.4401 36.3728C87.0366 32.315 86.3643 28.8244 87.9893 24.6252Z" fill="var(--fill-0, #7679EC)"/>
<path id="Vector_8" d="M9.73967 7.50533C11.1338 7.17195 13.2893 6.88191 14.7548 6.64239L23.5953 5.19528L46.0864 1.51566C47.3567 1.30803 55.2894 -0.121302 55.8999 0.00829159C56.5081 0.13737 57.7823 1.00971 58.4053 1.36778C60.2653 2.42465 62.1197 3.4929 63.9672 4.57254L79.8803 13.6942L84.7761 16.5002C86.0346 17.2142 87.2892 17.9392 88.542 18.6639C88.9311 18.8889 89.1225 19.0559 89.5547 19.2336C89.3553 19.4137 85.4626 20.0005 84.8922 20.094L76.8434 21.4085L54.6109 25.0525C50.1138 25.7916 45.3515 26.5072 40.8978 27.3733C40.3948 26.9932 39.2684 26.3302 38.6722 25.954L33.8252 22.8909L15.4395 11.2222C14.6382 10.7163 10.1174 7.99576 9.73967 7.50533Z" fill="var(--fill-0, #F5500E)"/>
<path id="Vector_9" d="M41.8496 43.811C41.5577 43.0772 41.6335 41.9984 41.6334 41.1981L41.6354 37.887L41.6409 34.3389C41.6423 33.5991 41.6383 32.9017 41.693 32.1609C41.8212 30.4267 43.4099 30.5506 44.7906 30.3318L48.3555 29.764L59.6304 27.9464L78.5028 24.8994C81.738 24.3794 85.1403 23.777 88.3766 23.333C88.3149 23.8172 88.0713 24.1694 87.9892 24.6252C86.3642 28.8244 87.0365 32.315 88.44 36.3728L53.1982 41.9999C49.4297 42.5991 45.608 43.1711 41.8496 43.811Z" fill="var(--fill-0, #FFF8ED)"/>
</g>
</svg>
