<svg preserveAspectRatio="none" width="100%" height="100%" overflow="visible" style="display: block;" viewBox="0 0 150 151" fill="none" xmlns="http://www.w3.org/2000/svg">
<g id="learning 1 [Vectorized]" clip-path="url(#clip0_0_4)">
<path id="Vector" d="M52.187 55.9399C52.0933 54.8567 52.1384 53.3062 52.1402 52.1721C52.1427 50.5606 52.1071 48.7616 52.1985 47.1656C52.7161 38.7134 56.528 30.8089 62.8052 25.1715C76.0891 13.2878 96.2622 14.6032 108.011 27.9897C112.247 32.8188 114.931 38.8276 115.706 45.2232C116.04 48.0835 116.062 52.0277 115.886 54.935C116.542 53.8132 117.394 52.9592 118.687 52.6184C119.836 52.3212 121.054 52.4979 122.072 53.1091C123.713 54.1121 124.256 56.0222 124.223 57.8398C124.2 59.1269 124.277 60.5305 124.135 61.8015C127.589 61.7272 131.07 61.8543 134.528 61.8167C135.075 61.8107 135.665 61.8001 136.211 61.8166C138.091 61.7822 140.04 61.6448 141.53 63.0245C142.503 63.9255 142.926 65.4413 142.876 66.7247C142.814 68.3326 143.014 71.7884 142.571 73.1791C142.449 73.5634 142.145 74.4169 142.129 74.7708C142.375 80.1494 142.275 84.1663 136.983 86.8449C136.887 86.8928 136.74 87.1184 136.695 87.215C136.644 88.2576 136.663 89.6607 136.663 90.6641L136.661 101.277L136.658 104.705C136.653 105.175 136.583 105.92 136.627 106.347C138.432 106.283 140.259 106.347 142.061 106.324C144.352 106.294 145.148 106.694 145.156 109.061C145.167 113.027 145.156 116.988 145.158 120.951L145.16 127.327C145.159 130.089 145.244 133.001 144.541 135.689C143.496 139.69 140.658 143.532 137.032 145.529C140.466 145.612 143.927 145.49 147.363 145.539C148.578 145.556 149.266 145.787 149.88 146.902L150 147.115V148.391C149.659 148.967 149.096 149.796 148.411 149.89C146.887 150.098 144.785 149.977 143.24 149.974L132.962 149.982H108.066H99.8752C98.595 149.982 96.9749 150.027 95.7253 149.978C89.4551 149.973 83.0478 150.047 76.7915 149.963C76.2107 150.02 74.8235 149.984 74.198 149.983L69.1835 149.982L53.2262 149.98L26.2077 149.982C21.6995 149.993 17.1794 150.151 12.6636 150.047C7.19957 149.923 6.93642 146.567 6.16416 142.154L5.157 136.408L1.2118 114.124C1.02107 113.037 0.319734 108.313 0 107.715V105.541C0.158264 105.257 0.30675 104.96 0.468221 104.684C1.59018 102.773 3.45403 102.939 5.37125 102.963C6.01956 102.971 6.72316 102.972 7.39373 102.971L16.717 103.02L45.9813 103.032C47.0739 96.3171 51.7433 91.6042 58.4623 90.7349C57.7655 90.0964 57.0206 89.612 56.2894 88.8828C53.9875 86.5699 52.5519 83.5256 52.2263 80.2682C52.0983 78.9749 52.1424 77.2636 52.1429 75.9262C52.1497 73.8565 52.1452 71.786 52.1294 69.7158C51.1045 68.3195 50.2605 67.4137 49.747 65.7162C48.5519 61.7656 49.701 58.9213 52.187 55.9399ZM120.982 98.9994C120.987 97.4953 121.135 87.6685 120.875 87.1796C120.649 86.7572 119.723 86.3561 119.316 86.0936C117.616 85.0098 116.361 83.3457 115.783 81.4058C115.611 81.5267 115.556 82.1276 115.479 82.4255C115.257 83.2845 114.953 84.1198 114.57 84.9198C113.285 87.6124 111.78 89.0199 109.499 90.7762C113.807 90.9937 117.872 93.8744 120.103 97.4614C120.29 97.7622 120.757 98.9242 120.982 98.9994Z" fill="var(--fill-0, #F5500E)"/>
<path id="Vector_2" d="M52.187 55.9399C52.0933 54.8567 52.1384 53.3062 52.1402 52.1721C52.1427 50.5606 52.1071 48.7616 52.1985 47.1656C52.7161 38.7134 56.528 30.8089 62.8052 25.1715C76.0891 13.2878 96.2622 14.6032 108.011 27.9897C112.247 32.8188 114.931 38.8276 115.706 45.2232C116.04 48.0835 116.062 52.0277 115.886 54.935L115.597 55.8134C115.424 57.1907 115.448 58.8758 115.449 60.273V66.6962C115.449 67.7161 115.49 69.122 115.427 70.1178C115.431 71.7987 115.274 80.423 115.783 81.4058C115.611 81.5267 115.556 82.1276 115.479 82.4255C115.257 83.2845 114.953 84.1198 114.57 84.9198C113.285 87.6124 111.78 89.0199 109.499 90.7762C104.902 93.2757 102.877 93.0493 97.8303 93.0456L91.3535 93.0427C90.5749 95.1824 89.7012 96.6481 87.6497 97.8072C87.293 98.0372 87.0549 98.1493 86.6587 98.3004C84.8005 99.006 82.7388 98.9315 80.9355 98.0932C78.6453 97.0477 77.5474 95.3976 76.7014 93.1208L76.6238 93.109C74.2075 93.0832 71.7907 93.081 69.3745 93.1046C66.2929 93.0891 63.5675 93.1725 60.6684 91.8748C59.9728 91.5637 59.1645 91.0896 58.4623 90.7349C57.7655 90.0964 57.0206 89.612 56.2894 88.8828C53.9875 86.5699 52.5519 83.5256 52.2263 80.2682C52.0983 78.9749 52.1424 77.2636 52.1429 75.9262C52.1497 73.8565 52.1452 71.786 52.1294 69.7158C51.1045 68.3195 50.2605 67.4137 49.747 65.7162C48.5519 61.7656 49.7011 58.9213 52.187 55.9399Z" fill="var(--fill-0, #F1B386)"/>
<path id="Vector_3" d="M52.187 55.9399C52.0933 54.8567 52.1384 53.3062 52.1402 52.1721C52.1427 50.5606 52.1071 48.7616 52.1985 47.1656C52.7161 38.7134 56.528 30.8089 62.8052 25.1715C76.0891 13.2878 96.2622 14.6032 108.011 27.9897C112.247 32.8188 114.931 38.8276 115.706 45.2232C116.04 48.0835 116.062 52.0277 115.886 54.935L115.597 55.8134C113.552 53.8546 111.07 53.4872 108.401 53.4688C108.451 51.9569 108.457 48.7988 108.18 47.443C107.617 44.7615 106.012 42.4178 103.724 40.9324C100.35 38.7381 98.2375 39.3045 94.6706 40.2584L90.4233 41.3896L76.3396 45.1286C73.7278 45.827 70.5748 46.7511 67.9806 47.3213C66.8208 47.5809 65.6246 47.9616 64.4927 48.2207C61.4732 48.9118 59.467 49.5778 59.6527 53.2484L59.5898 53.4147C58.923 53.5547 57.842 53.4628 57.1181 53.5919C55.7429 53.8374 54.5859 54.3258 53.4286 55.1077C53.1464 55.2984 52.4553 55.7922 52.187 55.9399Z" fill="var(--fill-0, #522D1E)"/>
<path id="Vector_4" d="M59.6527 53.2484C59.467 49.5778 61.4732 48.9118 64.4927 48.2207C65.6246 47.9616 66.8208 47.5809 67.9806 47.3213L67.9786 57.0547C67.9792 59.1196 67.9297 61.5029 68.1215 63.5368C68.6402 69.2101 71.1224 74.5194 75.1348 78.5377C78.0557 81.4869 81.6746 83.6376 85.6509 84.7886C88.6882 85.6851 88.7065 85.2612 91.5527 84.5688C91.6084 86.463 91.689 91.4096 91.3535 93.0427C90.575 95.1824 89.7012 96.6481 87.6497 97.8072C87.293 98.0372 87.0549 98.1493 86.6587 98.3004C84.8005 99.006 82.7388 98.9315 80.9356 98.0932C78.6453 97.0477 77.5474 95.3976 76.7014 93.1208L76.6238 93.109C74.2075 93.0832 71.7907 93.081 69.3745 93.1046C66.2929 93.0891 63.5675 93.1725 60.6684 91.8748C59.9728 91.5637 59.1645 91.0896 58.4623 90.7349C57.7655 90.0964 57.0206 89.612 56.2894 88.8828C53.9875 86.5699 52.5519 83.5256 52.2263 80.2682C52.0983 78.9749 52.1424 77.2636 52.1429 75.9262C52.1497 73.8565 52.1452 71.786 52.1294 69.7158C51.1045 68.3195 50.2605 67.4137 49.747 65.7162C48.5519 61.7656 49.7011 58.9213 52.187 55.9399C52.4553 55.7922 53.1464 55.2984 53.4286 55.1077C54.5859 54.3258 55.7429 53.8374 57.1181 53.5919C57.842 53.4628 58.923 53.5547 59.5898 53.4147L59.6527 53.2484Z" fill="var(--fill-0, #EC975A)"/>
<path id="Vector_5" d="M52.1294 69.7158C52.8464 70.1121 53.4601 70.6906 54.175 71.0947C56.6379 72.4872 59.4645 72.2564 62.188 72.2135C63.1745 73.92 63.794 75.0141 65.0029 76.6104C67.5655 79.5449 69.7365 81.4714 73.2678 83.2653C74.1746 83.7261 75.8225 84.2658 76.4744 84.616C76.4546 86.8641 76.3359 91.0608 76.7014 93.1208L76.6238 93.109C74.2075 93.0832 71.7907 93.081 69.3745 93.1046C66.2929 93.0891 63.5675 93.1724 60.6684 91.8748C59.9728 91.5636 59.1645 91.0896 58.4623 90.7349C57.7655 90.0964 57.0206 89.612 56.2894 88.8828C53.9875 86.5699 52.5519 83.5256 52.2263 80.2681C52.0983 78.9749 52.1424 77.2636 52.1429 75.9262C52.1497 73.8565 52.1452 71.786 52.1294 69.7158Z" fill="var(--fill-0, #381F15)"/>
<path id="Vector_6" d="M65.0029 76.6104C67.5655 79.5448 69.7365 81.4714 73.2678 83.2653C74.1746 83.7261 75.8225 84.2658 76.4744 84.616C76.4546 86.864 76.336 91.0608 76.7014 93.1208L76.6238 93.109C76.607 93.064 76.511 92.8148 76.5103 92.8141C75.865 92.615 74.8748 92.4285 74.2713 92.2036C73.1212 91.773 72.0287 91.2016 71.0183 90.5019C67.9198 88.3497 65.8018 85.0429 65.1338 81.3136C65.0169 80.6464 64.6616 77.1051 65.0029 76.6104Z" fill="var(--fill-0, #160C08)"/>
<path id="Vector_7" d="M59.6527 53.2484C59.7144 53.5406 59.642 56.9067 59.6271 57.3895C59.4533 63.0294 59.8111 67.047 62.188 72.2135C59.4645 72.2565 56.6379 72.4872 54.175 71.0948C53.4601 70.6906 52.8464 70.1121 52.1294 69.7158C51.1045 68.3195 50.2605 67.4137 49.747 65.7162C48.5519 61.7656 49.7011 58.9213 52.187 55.9399C52.4553 55.7922 53.1464 55.2984 53.4286 55.1077C54.5859 54.3258 55.7429 53.8374 57.1181 53.5919C57.842 53.4628 58.923 53.5547 59.5898 53.4147L59.6527 53.2484Z" fill="var(--fill-0, #DB6A19)"/>
<path id="Vector_8" d="M76.4744 84.616C79.0825 85.4101 81.2805 85.8525 84.0308 85.8319L84.0125 89.2212C84.0095 91.9264 84.011 94.0299 85.9827 96.2256C86.3518 96.6378 87.4512 97.4348 87.6497 97.8072C87.293 98.0372 87.0549 98.1493 86.6587 98.3004C84.8005 99.006 82.7388 98.9315 80.9356 98.0932C78.6453 97.0477 77.5474 95.3976 76.7014 93.1208C76.3359 91.0608 76.4546 86.8641 76.4744 84.616Z" fill="var(--fill-0, #DB6A19)"/>
<path id="Vector_9" d="M105.84 72.2131C108.277 72.3329 111.221 72.3831 113.461 71.3235C114.157 70.9937 114.783 70.425 115.427 70.1178C115.431 71.7987 115.274 80.423 115.783 81.4058C115.611 81.5267 115.556 82.1276 115.479 82.4255C115.257 83.2845 114.953 84.1198 114.57 84.9198C113.285 87.6124 111.78 89.02 109.499 90.7762C104.902 93.2757 102.877 93.0493 97.8303 93.0456L91.3535 93.0427C91.689 91.4096 91.6084 86.463 91.5527 84.5689C98.1541 82.2567 102.519 78.3652 105.84 72.2131Z" fill="var(--fill-0, #522D1E)"/>
<path id="Vector_10" d="M108.401 53.4688C111.07 53.4872 113.552 53.8546 115.597 55.8134C115.424 57.1907 115.448 58.8758 115.449 60.273V66.6962C115.449 67.7161 115.49 69.122 115.427 70.1178C114.783 70.425 114.157 70.9937 113.461 71.3235C111.221 72.3831 108.277 72.3329 105.84 72.2131C106.148 71.469 106.484 70.7477 106.789 69.9971C108.939 64.7077 108.308 59.0619 108.401 53.4688Z" fill="var(--fill-0, #EC975A)"/>
<path id="Vector_11" d="M76.7622 67.9233C78.0388 67.9479 78.7566 68.9725 79.8398 69.6764C81.0696 70.4755 82.5073 70.889 83.9707 70.8646C85.6633 70.8524 87.3062 70.2868 88.6516 69.253C89.4631 68.6287 89.9517 67.885 91.0803 67.942C91.6677 67.9757 92.2178 68.2406 92.6125 68.6796C94.0312 70.2615 92.6433 71.669 91.4443 72.6755C90.0828 73.7031 88.7395 74.4162 87.0813 74.8615C83.9377 75.7094 80.5876 75.256 77.7781 73.6024C76.9739 73.1318 76.106 72.5148 75.4709 71.8276C74.0215 70.2578 74.6558 68.3046 76.7622 67.9233Z" fill="var(--fill-0, #D74409)"/>
<path id="Vector_12" d="M83.5312 56.0669C86.2852 55.9631 86.9092 59.8652 83.9758 60.4225C83.6001 60.4939 83.0815 60.7436 82.8699 61.0883C82.7095 62.4729 84.3113 61.8498 84.887 63.5569C85.0701 64.1002 85.0254 64.695 84.7632 65.2044C84.3875 65.9422 83.8579 66.2271 83.1255 66.4606C82.0635 66.4573 81.0557 65.9936 80.2581 65.303C79.2129 64.3844 78.5757 63.0836 78.4878 61.6898C78.3918 60.2948 78.8474 58.9181 79.7556 57.8603C80.7971 56.6516 81.9888 56.1788 83.5312 56.0669Z" fill="var(--fill-0, #D74409)"/>
<path id="Vector_13" d="M94.5505 51.7042C96.6804 51.8561 96.9536 53.5382 96.8203 55.3117C96.6592 57.4579 97.5769 59.787 94.8245 60.4692C92.5034 60.3968 92.3225 58.7136 92.4265 56.8203C92.5386 54.7898 91.7439 52.1182 94.5505 51.7042Z" fill="var(--fill-0, #D74409)"/>
<path id="Vector_14" d="M72.7223 51.7063C75.5911 51.9536 74.9297 54.7699 74.9912 56.8506C75.0454 58.6533 74.9722 60.0369 72.9459 60.4666C69.8648 60.3387 70.7033 57.2969 70.5768 55.1723C70.4718 53.4117 70.7393 52.0098 72.7223 51.7063Z" fill="var(--fill-0, #D74409)"/>
<path id="Vector_15" d="M0 105.541C0.158264 105.257 0.30675 104.96 0.468221 104.684C1.59018 102.773 3.45403 102.939 5.37125 102.963C6.01956 102.971 6.72316 102.972 7.39373 102.971L16.717 103.02L45.9813 103.032L46.284 103.014C47.7124 103.116 50.0399 103.046 51.5413 103.045L61.3381 103.046C62.231 103.046 63.1589 103.058 64.0532 103.039C65.9155 102.999 67.4233 103.057 68.8826 104.368C70.5628 105.876 70.6975 108.167 71.0643 110.287L71.9843 115.546L75.0762 133.046L75.7376 136.817C75.8181 137.274 76.0108 138.47 76.1477 138.876C76.207 139.637 76.4758 140.941 76.6135 141.723L77.5877 147.188C77.7129 147.891 77.9663 149.191 78.0051 149.889C77.6192 149.896 77.1621 149.884 76.7915 149.963C76.2107 150.02 74.8235 149.984 74.198 149.983L69.1836 149.982L53.2262 149.98L26.2077 149.982C21.6995 149.993 17.1794 150.151 12.6636 150.047C7.19957 149.923 6.93642 146.567 6.16416 142.154L5.157 136.408L1.2118 114.124C1.02107 113.037 0.319734 108.313 0 107.715V105.541Z" fill="var(--fill-0, #DBBBB2)"/>
<path id="Vector_16" d="M28.377 121.464C28.3988 121.461 28.4205 121.458 28.4423 121.455C30.4145 121.363 32.5362 121.483 34.4909 121.477L42.2139 121.443C43.4865 121.442 45.1121 121.353 46.3518 121.558C48.6352 121.936 50.2524 123.905 50.4278 126.143C50.5195 127.481 50.0821 128.802 49.211 129.817C48.4167 130.737 47.2713 131.389 46.052 131.472C45.0632 131.639 43.2798 131.555 42.2235 131.556C39.8678 131.562 37.5119 131.557 35.1562 131.539L30.7392 131.549C28.8489 131.554 27.3372 131.767 25.7684 130.543C24.6717 129.688 23.9561 128.43 23.7779 127.045C23.425 124.195 25.5999 121.788 28.377 121.464Z" fill="var(--fill-0, #7679EC)"/>
<path id="Vector_17" d="M115.886 54.935C116.541 53.8132 117.394 52.9592 118.687 52.6184C119.836 52.3212 121.054 52.4979 122.072 53.1091C123.713 54.1121 124.256 56.0222 124.223 57.8398C124.2 59.1269 124.277 60.5305 124.135 61.8015C127.589 61.7272 131.07 61.8543 134.528 61.8167C135.075 61.8107 135.665 61.8001 136.211 61.8166C138.091 61.7822 140.04 61.6448 141.53 63.0245C142.503 63.9255 142.926 65.4413 142.876 66.7247C142.814 68.3326 143.014 71.7884 142.571 73.1791C142.449 73.5634 142.145 74.4169 142.129 74.7708C142.375 80.1494 142.275 84.1663 136.983 86.8449C136.887 86.8928 136.74 87.1184 136.695 87.215C136.644 88.2576 136.663 89.6607 136.663 90.6641L136.661 101.277L136.658 104.705C136.653 105.175 136.583 105.92 136.627 106.347C138.432 106.283 140.259 106.347 142.061 106.324C144.352 106.294 145.148 106.694 145.156 109.061C145.167 113.027 145.156 116.988 145.158 120.951L145.16 127.327C145.159 130.089 145.244 133.001 144.541 135.689C143.496 139.69 140.658 143.532 137.032 145.529C132.824 145.59 128.602 145.518 124.392 145.549C123.182 145.558 121.955 145.559 120.745 145.533C120.702 145.523 120.659 145.511 120.616 145.504C120.001 145.399 118.466 144.032 117.97 143.583C114.71 140.639 112.772 136.494 112.594 132.089C112.515 130.486 112.563 128.528 112.564 126.897L112.567 117.692L112.559 111.331C112.559 110.465 112.514 108.753 112.599 107.937C112.64 107.541 112.815 107.172 113.094 106.89C113.747 106.222 115.678 106.382 116.575 106.384C118.037 106.385 119.5 106.394 120.962 106.41C120.913 107.012 120.929 108.051 120.983 108.643C121.03 107.63 120.995 106.315 120.995 105.28L120.982 98.9994C120.987 97.4953 121.135 87.6685 120.875 87.1796C120.649 86.7572 119.723 86.3561 119.316 86.0936C117.616 85.0098 116.361 83.3457 115.783 81.4058C115.274 80.423 115.431 71.7987 115.427 70.1178C115.49 69.122 115.449 67.7161 115.449 66.6962V60.273C115.448 58.8758 115.424 57.1907 115.597 55.8134L115.886 54.935Z" fill="var(--fill-0, #F1B386)"/>
<path id="Vector_18" d="M136.627 106.347C138.432 106.283 140.259 106.347 142.061 106.324C144.352 106.294 145.148 106.694 145.156 109.061C145.167 113.027 145.156 116.988 145.158 120.951L145.16 127.327C145.159 130.089 145.244 133.001 144.541 135.689C143.496 139.69 140.658 143.532 137.032 145.529C132.824 145.59 128.602 145.518 124.392 145.549C123.182 145.558 121.955 145.559 120.745 145.533C120.702 145.523 120.659 145.512 120.616 145.504C120.001 145.399 118.466 144.032 117.97 143.583C114.71 140.639 112.772 136.494 112.594 132.089C112.515 130.486 112.563 128.528 112.564 126.898L112.567 117.692L112.559 111.331C112.559 110.465 112.514 108.753 112.599 107.937C112.64 107.541 112.815 107.172 113.094 106.89C113.747 106.222 115.678 106.382 116.575 106.384C118.037 106.385 119.5 106.394 120.962 106.41C120.913 107.012 120.929 108.051 120.983 108.643C121.058 110.307 120.992 112.459 120.992 114.182L120.987 125.288C120.987 126.972 120.889 130.63 121.177 132.047C121.46 133.447 122.114 134.744 123.067 135.802C127.229 140.418 134.747 138.449 136.278 132.606C136.8 130.612 136.584 126.234 136.583 124.05L136.581 113.406C136.58 111.071 136.548 108.676 136.627 106.347Z" fill="var(--fill-0, #D74409)"/>
<path id="Vector_19" d="M136.211 61.8166C138.091 61.7822 140.04 61.6448 141.53 63.0245C142.503 63.9255 142.926 65.4413 142.876 66.7247C142.814 68.3326 143.014 71.7884 142.571 73.1791C141.867 73.0989 140.947 73.2635 140.212 73.2587C136.886 73.2369 133.445 73.8455 130.939 71.0881C129.102 69.0658 128.993 67.2328 128.988 64.6389C128.978 63.7242 128.986 62.8094 129.011 61.895C129.823 61.8955 135.996 61.9519 136.211 61.8166Z" fill="var(--fill-0, #F1B386)"/>
<path id="Vector_20" d="M124.135 61.8015C127.589 61.7272 131.07 61.8543 134.528 61.8167C135.075 61.8107 135.665 61.8001 136.211 61.8166C135.996 61.9519 129.823 61.8955 129.011 61.895C128.986 62.8094 128.978 63.7242 128.988 64.6389C128.993 67.2328 129.102 69.0658 130.939 71.0881C133.445 73.8455 136.886 73.2369 140.212 73.2587C140.947 73.2635 141.867 73.0989 142.571 73.1791C142.449 73.5634 142.145 74.4169 142.129 74.7708L142.068 74.6624C141.881 74.7037 141.218 75.6585 140.982 75.9077C139.679 77.3219 137.656 78.2907 135.717 78.2251C132.325 78.1115 129.039 78.8842 126.327 76.2823C123.797 73.8551 124.148 71.1617 124.14 67.9512C124.136 65.9005 124.185 63.8174 124.135 61.8015Z" fill="var(--fill-0, #EC975A)"/>
<path id="Vector_21" d="M120.745 145.533C121.955 145.559 123.182 145.558 124.392 145.549C128.602 145.518 132.824 145.59 137.032 145.529C140.466 145.612 143.927 145.49 147.363 145.539C148.578 145.556 149.266 145.787 149.88 146.902L150 147.115V148.391C149.659 148.967 149.096 149.796 148.411 149.89C146.887 150.098 144.785 149.977 143.24 149.974L132.962 149.982H108.066H99.8752C98.595 149.982 96.9748 150.027 95.7253 149.978C95.6125 149.503 95.6023 146.076 95.7319 145.669L95.9334 145.583C96.9668 145.506 98.0471 145.556 99.0864 145.545C106.292 145.467 113.545 145.663 120.745 145.533Z" fill="var(--fill-0, #DBBBB2)"/>
<path id="Vector_22" d="M76.1477 138.876C77.2295 138.814 78.5632 138.846 79.6626 138.845L85.6882 138.843L89.8498 138.842C93.0117 138.844 95.5745 138.683 95.6872 142.943C95.6997 143.422 95.581 145.271 95.8103 145.547L95.9333 145.583L95.7319 145.669C95.6023 146.076 95.6125 149.503 95.7253 149.978C89.4551 149.973 83.0478 150.047 76.7915 149.963C77.1621 149.884 77.6191 149.896 78.0051 149.889C77.9663 149.191 77.7129 147.891 77.5876 147.188L76.6135 141.723C76.4758 140.941 76.207 139.637 76.1477 138.876Z" fill="var(--fill-0, #C59182)"/>
<path id="Vector_23" d="M58.4623 90.7349C59.1645 91.0896 59.9728 91.5637 60.6684 91.8748C63.5675 93.1725 66.2929 93.0891 69.3745 93.1046C69.3042 93.5367 68.4639 94.1612 68.1096 94.4856C67.5293 95.0142 66.997 95.5938 66.5193 96.2175C65.1252 98.0306 63.9078 100.67 63.6639 102.968L51.879 102.979C50.5414 102.979 47.4795 102.884 46.284 103.014L45.9813 103.032C47.0739 96.3171 51.7433 91.6042 58.4623 90.7349Z" fill="var(--fill-0, #D74409)"/>
<path id="Vector_24" d="M21.7679 43.1842C21.293 42.566 20.7747 41.6043 20.3705 40.9017L18.3388 37.3593C15.2594 31.9801 12.1674 27.9005 13.0395 21.3446C13.5986 17.1412 15.7948 13.0571 19.1437 10.4643C22.5484 7.78115 26.8674 6.55907 31.1621 7.06374C42.0445 8.43602 48.7118 19.7044 44.3574 29.9587C43.7602 31.3652 42.9691 32.6511 42.2087 33.9716C41.3568 35.4734 40.4958 36.9702 39.626 38.4616C38.9134 39.6869 37.5764 42.1959 36.783 43.2501C35.906 43.1926 34.5649 43.2527 33.6388 43.2578L27.1753 43.2703L27.19 43.215L26.4913 43.1861C25.2001 43.2597 23.1405 43.1774 21.7679 43.1842Z" fill="var(--fill-0, #FECD55)"/>
<path id="Vector_25" d="M27.2093 29.3037C24.3016 28.2686 22.559 25.2738 23.0843 22.2144C23.6095 19.155 26.2495 16.9225 29.3336 16.9298C32.4178 16.9371 35.0474 19.182 35.5583 22.2438C36.0693 25.3057 34.3127 28.2923 31.4002 29.3137C30.0427 29.7898 28.5646 29.7862 27.2093 29.3037Z" fill="var(--fill-0, #FDFCFC)"/>
<path id="Vector_26" d="M27.2093 29.3037C28.5646 29.7862 30.0427 29.7898 31.4002 29.3137C31.4892 30.8246 31.4586 32.5382 31.4641 34.0665C31.4611 37.1139 31.4753 40.1614 31.5068 43.2087C30.4126 43.2055 28.1934 43.1293 27.19 43.215L26.4913 43.1861C26.3971 43.0924 26.3502 43.1132 26.1805 43.0699L26.2269 43.0589L26.2466 43.0318L26.3495 43.1005L26.3588 43.0312L27.0877 43.0205C27.026 41.1319 27.1411 39.0242 27.1637 37.1176C27.1942 34.5491 27.1091 31.8575 27.2093 29.3037Z" fill="var(--fill-0, #FEB137)"/>
<path id="Vector_27" d="M21.7679 43.1842C23.1405 43.1774 25.2001 43.2597 26.4913 43.1861L27.19 43.215L27.1753 43.2703L33.6388 43.2578C34.5649 43.2527 35.906 43.1926 36.783 43.2501C38.3042 43.2186 39.7885 42.9081 40.9447 43.8606C41.0564 44.0984 41.1894 44.4087 41.2042 44.6656C41.2748 45.8963 41.3923 52.0265 41.1132 52.765C40.9693 53.1429 40.6794 53.446 40.3096 53.6051C39.5292 53.9498 37.1525 53.8112 36.1708 53.7946C36.3028 58.4304 36.6734 61.6286 32.1327 64.1702C31.326 64.5656 30.1219 64.7735 29.231 64.7642C27.4158 64.7359 25.6835 63.9942 24.4041 62.6976C21.9424 60.1636 22.3764 57.1918 22.3949 53.8568C20.6287 53.5805 17.3476 54.7285 17.349 51.9244C17.3503 49.4632 17.2456 46.9297 17.3859 44.4702C17.4357 44.2086 17.6755 43.8437 17.8573 43.6722C18.7407 42.8385 20.6309 43.2058 21.7679 43.1842Z" fill="var(--fill-0, #E6CFC9)"/>
<path id="Vector_28" d="M28.1462 53.796C30.4065 53.5749 33.8436 53.9116 36.1708 53.7946C36.3028 58.4304 36.6734 61.6286 32.1327 64.1702C31.326 64.5656 30.1219 64.7735 29.231 64.7642C27.4158 64.7359 25.6835 63.9942 24.4041 62.6976C21.9424 60.1636 22.3764 57.1918 22.3949 53.8568C23.5814 53.9085 25.5279 53.9259 26.6955 53.8394C27.1792 53.8291 27.6628 53.8146 28.1462 53.796Z" fill="var(--fill-0, #6D695F)"/>
<path id="Vector_29" d="M26.6955 53.8394C27.1792 53.8291 27.6628 53.8146 28.1462 53.796L28.3584 53.8747C28.4512 54.2412 28.4137 54.9942 28.4199 55.4067C28.4555 57.7416 28.1697 59.4181 29.4668 61.4864C29.8401 62.0739 30.2963 62.6038 30.8209 63.0594C31.2263 63.412 31.8992 63.7774 32.1327 64.1702C31.326 64.5656 30.1219 64.7735 29.231 64.7642C27.4158 64.7359 25.6835 63.9942 24.4041 62.6976C21.9424 60.1636 22.3764 57.1918 22.3949 53.8568C23.5814 53.9085 25.5279 53.9259 26.6955 53.8394Z" fill="var(--fill-0, #242520)"/>
<path id="Vector_30" d="M21.7679 43.1842C23.1405 43.1774 25.2001 43.2597 26.4913 43.1861L27.19 43.215L27.1753 43.2703C26.6963 43.279 26.7428 43.2097 26.3626 43.5722C26.1449 43.7798 25.9496 44.2087 25.9094 44.509C25.7685 45.5626 25.81 46.7443 25.8019 47.8046C25.7919 49.1094 25.7994 50.4699 25.8174 51.7592C25.8396 53.3475 26.3273 53.0422 26.6955 53.8394C25.5279 53.9259 23.5814 53.9085 22.3949 53.8568C20.6287 53.5805 17.3476 54.7285 17.349 51.9244C17.3503 49.4632 17.2456 46.9297 17.3859 44.4702C17.4357 44.2086 17.6755 43.8437 17.8573 43.6722C18.7407 42.8385 20.6309 43.2058 21.7679 43.1842Z" fill="var(--fill-0, #CCBFBB)"/>
<path id="Vector_31" d="M92.2368 0.977408C92.5767 0.968767 92.9026 1.00832 93.2241 1.12685C93.7632 1.32564 94.2803 1.69747 94.5146 2.24158C94.9548 3.26546 94.9929 8.8885 94.5747 9.86263C94.2576 10.6021 93.6328 10.9457 92.9187 11.2061C92.3804 11.2295 91.9043 11.1726 91.4209 10.9126C90.9727 10.6715 90.5969 10.2398 90.4519 9.74614C90.1128 8.58739 90.0674 2.94984 90.6372 2.0093C90.9873 1.43086 91.6055 1.13349 92.2368 0.977408Z" fill="var(--fill-0, #FF8921)"/>
<path id="Vector_32" d="M125.676 20.3622C126.058 20.3447 126.438 20.4224 126.782 20.5886C127.353 20.8573 127.787 21.3513 127.983 21.9536C128.156 22.4963 128.117 23.1179 127.851 23.5877C127.215 24.7105 122.163 27.4077 121.157 27.7245C118.018 27.7998 117.834 23.8739 121.002 22.709C122.402 22.1942 123.844 20.7444 125.676 20.3622Z" fill="var(--fill-0, #FF8921)"/>
<path id="Vector_33" d="M111.387 6.20886C113.349 6.06116 114.59 7.80798 113.672 9.59831C113.044 10.8009 112.373 11.9933 111.68 13.1596C110.941 14.4016 110.684 15.1299 109.285 15.6297C108.752 15.655 108.222 15.5854 107.767 15.2932C105.441 13.8006 107.448 11.4938 108.362 9.83181C108.768 9.12547 109.111 8.38485 109.537 7.69024C110.09 6.79045 110.377 6.4525 111.387 6.20886Z" fill="var(--fill-0, #FF8921)"/>
<path id="Vector_34" d="M125.723 39.6996C127.23 39.7217 131.165 39.4156 132.317 40.1874C132.79 40.4987 133.113 40.9943 133.208 41.5551C133.318 42.1736 133.159 42.8095 132.773 43.3033C132.255 43.976 131.674 44.1446 130.889 44.2326C129.308 44.2271 125.041 44.5364 123.911 43.7077C123.445 43.3684 123.141 42.8475 123.075 42.272C122.856 40.5071 124.211 39.7954 125.723 39.6996Z" fill="var(--fill-0, #FF8921)"/>
</g>
<defs>
<clipPath id="clip0_0_4">
<rect width="150" height="151" fill="white"/>
</clipPath>
</defs>
</svg>
