<svg preserveAspectRatio="none" width="100%" height="100%" overflow="visible" style="display: block;" viewBox="0 0 107.364 107.032" fill="none" xmlns="http://www.w3.org/2000/svg">
<g id="Vector" opacity="0.15">
<path d="M6.58634 0H49.1719C49.7806 0.402945 50.6997 0.630421 51.3732 1.01147C53.4996 2.21453 55.0142 4.18943 55.5197 6.59864C56.0937 9.10318 55.7666 11.5991 55.8598 14.1311L67.4405 14.15C71.5738 14.1501 75.7555 13.4849 78.9703 16.6869C82.0468 19.7513 81.609 23.1039 81.6051 27.0489C81.6075 27.52 81.6004 28.0048 81.5839 28.4714C85.578 28.5173 89.5718 28.528 93.5663 28.5034C97.639 28.5004 101.744 27.8764 104.839 31.0934C106.5 32.8208 106.522 33.7339 107.364 35.8425V99.8677L107.323 99.9558C106.969 100.736 106.768 101.52 106.408 102.332C105.635 104.076 104.081 105.526 102.373 106.355C101.897 106.586 101.158 106.681 100.701 107.032H58.1881C57.7595 106.733 57.1284 106.566 56.6444 106.351C50.8189 103.767 51.5133 97.9565 51.5224 92.9157C51.4386 92.919 51.3547 92.9207 51.2708 92.9215L40.8132 92.8999C38.7283 92.9015 34.259 93.0495 32.4261 92.6149C30.9116 92.2517 29.5251 91.4814 28.4166 90.387C25.0461 87.053 25.7652 82.9889 25.745 78.5617C23.4772 78.6199 20.7606 78.5317 18.4305 78.5329L12.261 78.5353C10.5784 78.5355 7.74733 78.6445 6.189 78.1966C3.99892 77.5674 1.91338 75.8021 0.949067 73.7272C0.640779 73.0639 0.366088 72.0402 0.0358421 71.4522L0 71.3897V47.4432C0.390794 46.9972 0.53694 46.7454 1.00037 46.2895C2.36774 45.8959 2.94018 46.0349 3.93807 47.0224C4.30093 48.1424 4.16219 50.9261 4.15955 52.2592L4.16392 64.5115C4.16309 66.53 4.05938 68.7428 4.26171 70.7316C4.41402 72.2287 6.34889 74.1009 7.83237 74.2461C9.61865 74.421 11.5007 74.3394 13.2994 74.3355L39.6083 74.336L44.495 74.3428C45.5221 74.3442 46.5414 74.3418 47.5671 74.2896C49.2277 74.205 51.2221 72.5383 51.3845 70.8464C51.6337 68.2519 51.5277 65.5135 51.5269 62.8871L51.527 13.2773C51.5287 11.7476 51.555 10.1425 51.5032 8.62337C51.4233 7.6166 51.3894 6.80791 50.7473 5.97849C49.9504 4.89794 48.9143 4.24485 47.5456 4.12213C45.5047 3.93912 43.323 4.01194 41.2618 4.01233L15.7421 4.01263C13.3507 4.01136 10.948 3.96897 8.5716 4.07215C6.11193 4.17894 4.17576 6.19683 4.16844 8.64755C4.1646 9.93268 4.15861 11.2232 4.15998 12.5112L4.16954 24.1803C4.17044 26.0294 4.22524 27.9949 4.11245 29.8309C4.01745 31.3772 2.5033 32.4122 1.11809 31.5046C0.570909 31.1461 0.383486 30.8357 0 30.3081V7.07402C0.192534 6.77562 0.491364 5.91965 0.616486 5.55004C1.20052 3.75509 2.19303 2.46531 3.71794 1.36637C4.60345 0.728222 5.83842 0.544177 6.58634 0ZM81.6236 81.2411C81.5829 83.7033 81.8186 86.5661 80.2853 88.6718C82.8291 88.6868 85.3728 88.6884 87.9164 88.6776C89.0192 88.6759 90.9653 88.5455 91.9592 88.7723C94.2062 89.2851 93.9353 91.3567 92.6066 92.6572C90.8997 93.1467 84.3049 92.8957 82.0676 92.8949L61.3687 92.8974C59.9308 92.9032 57.1935 93.0004 55.882 92.8957C55.8072 94.62 55.8808 96.3485 55.8352 98.062C55.7571 100.99 57.6359 103.026 60.6159 103.042C63.3536 103.058 66.1234 103.038 68.8753 103.038L94.6558 103.043C95.3754 103.044 96.1208 103.037 96.8363 103.044C98.7393 103.06 100.243 103.143 101.712 101.699C102.82 100.611 103.209 99.5802 103.196 98.0362C103.198 93.6278 103.189 89.2153 103.191 84.8093L103.194 43.5353C103.197 41.2286 103.256 38.8094 103.12 36.5058C103.069 35.6332 102.378 34.6144 101.792 34.0193C100.651 32.8872 99.6235 32.7384 98.1102 32.7165C94.1846 32.6913 90.259 32.6927 86.3334 32.7205C84.9573 32.7212 82.912 32.7973 81.6066 32.7255C81.6025 35.5752 81.7187 39.3593 81.5831 42.127C85.5282 42.521 88.2355 43.7014 90.8623 46.8012C97.3823 54.4925 91.6767 67.1565 81.6012 67.2623C81.6012 70.22 81.7098 73.9485 81.5867 76.8543C83.7573 76.9012 85.9287 76.9128 88.0993 76.889C89.8335 76.8863 93.7641 76.3917 93.6403 79.114C93.6195 79.6733 93.3744 80.2006 92.9589 80.5761C91.68 81.73 86.753 81.09 84.9938 81.2452C84.3066 81.3059 82.3977 81.2901 81.6792 81.2451L81.6236 81.2411ZM55.8586 27.7696L61.922 27.7809C63.2557 27.7786 66.094 27.534 67.176 28.3522C68.1053 29.055 67.8994 30.6383 67.8998 31.7383L67.8987 35.9758C67.8951 40.7702 67.9013 45.5859 67.8971 50.3816C67.8964 51.2536 67.7795 51.8137 67.1289 52.4082C66.5181 52.9666 65.078 52.9108 64.3052 52.9132C61.6752 52.9214 59.0694 52.9151 56.441 52.9141C56.2487 52.9139 56.0425 52.8897 55.8513 52.8639L55.856 62.5872C58.0262 62.6117 60.1967 62.6179 62.367 62.6058C63.8549 62.6039 66.3097 62.3099 67.4195 63.4347C68.1627 64.1879 67.9767 65.5113 67.2002 66.2017C66.9053 66.4689 66.5407 66.6473 66.1487 66.7161C65.2069 66.8806 61.9854 66.8213 60.7942 66.8102C59.4353 66.7976 57.163 66.8812 55.8858 66.8008C55.722 69.5163 56.1096 71.8547 54.4845 74.3685C56.5923 74.2845 58.7586 74.3277 60.9349 74.3345C62.1158 74.3383 66.2393 74.1154 67.1117 74.7916C68.4994 75.8672 67.9187 78.5334 65.8898 78.4737C64.6629 78.554 63.4859 78.5358 62.2514 78.5359L35.7742 78.5305L32.2761 78.5428C31.5877 78.549 30.5817 78.6051 29.9392 78.5011C29.8971 83.8886 28.8288 88.6951 35.9732 88.6868L61.8133 88.6768L69.3147 88.6834C71.5314 88.6859 74.1998 89.0665 75.8803 87.3696C76.7195 86.5229 77.2453 85.6802 77.3665 84.4512C77.5199 82.4001 77.4488 80.095 77.445 78.0281L77.447 24.3275C77.4194 17.6378 73.2675 18.3387 68.2076 18.3417L59.4944 18.356C58.7112 18.3581 56.5615 18.4119 55.9178 18.3043C55.7337 18.8982 55.8276 26.6215 55.8586 27.7696ZM81.6089 46.3395L81.6001 63.0063C83.7008 62.8885 85.411 62.0761 86.9217 60.6257C88.5214 58.9624 89.448 56.9526 89.4189 54.6262C89.3998 52.3469 88.4541 50.1733 86.7988 48.6063C85.2357 47.1098 83.6634 46.6376 81.6089 46.3395ZM55.8574 31.935C55.8295 37.3146 55.7402 43.3173 55.8576 48.6782C58.4294 48.72 61.1472 48.6424 63.6719 48.7138L63.6851 32.017C62.1 31.986 60.5146 31.9787 58.9294 31.9952C58.1131 31.9998 56.6121 32.0531 55.8574 31.935Z" fill="#242520"/>
<path d="M27.6934 13.4872C29.0068 13.4323 29.4714 13.8764 30.1299 14.947C31.8974 17.8203 33.5017 20.7907 35.1956 23.7051L39.453 31.0792C40.3303 32.5822 41.2562 34.0454 42.0664 35.5916C42.67 36.7435 41.9636 38.3451 40.6331 38.484C39.2673 38.6266 37.8415 38.571 36.4626 38.5709L28.6276 38.5645L20.19 38.573C18.6138 38.5754 16.8745 38.6654 15.3103 38.4356C15.0207 38.393 14.6824 38.1786 14.4351 38.0211C13.819 36.8332 13.7319 36.2686 14.4312 35.0604C17.2515 30.1873 20.0147 25.2572 22.8764 20.4095C23.6191 19.1305 24.3549 17.8476 25.0836 16.5607C25.7627 15.3717 26.3213 13.9402 27.6934 13.4872ZM19.7522 34.3998C22.3118 34.269 25.6762 34.3658 28.2953 34.3683C30.6652 34.3659 34.2243 34.2618 36.4945 34.4215C35.763 33.0397 28.4297 20.1048 28.0507 19.8928C26.408 22.7972 24.6115 25.7029 22.9816 28.6311C21.9633 30.4603 20.5732 32.5126 19.7522 34.3998Z" fill="#242520"/>
<path d="M16.4837 48.2379L37.0459 48.2274C37.8814 48.2277 39.5593 48.1505 40.3069 48.3103C43.2264 48.9344 42.9186 52.3853 39.7058 52.5596C35.0313 52.6742 29.8742 52.5658 25.1616 52.5679L19.5498 52.576C18.4671 52.5776 17.4257 52.567 16.2802 52.5339C14.1638 52.4727 13.3121 50.6583 14.4873 48.96C14.8779 48.3955 15.8189 48.2856 16.4837 48.2379Z" fill="#242520"/>
<path d="M15.6924 60.0266C17.1207 59.952 18.7651 59.9871 20.2138 59.9868L35.2992 59.9894C36.7049 59.9886 39.5125 59.8625 40.7845 60.1238C42.5459 60.4858 43.0524 63.5224 40.6336 64.1422C39.1459 64.2618 37.069 64.2042 35.5478 64.2038L26.718 64.2002L19.7655 64.2117C18.4146 64.2138 17.0176 64.2472 15.6723 64.1374C15.1673 64.0963 14.8412 63.8877 14.4142 63.6262C13.614 62.0732 13.8309 60.5292 15.6924 60.0266Z" fill="#242520"/>
<path d="M0 38.3313C0.920756 37.1298 1.96864 36.2439 3.41935 37.3899C3.59529 37.53 3.76635 37.6761 3.93224 37.8279C4.45192 39.661 3.99656 40.6241 2.13788 41.1349L2.0895 41.1481C0.855041 40.7891 0.7351 40.6195 0 39.6233V38.3313Z" fill="#242520"/>
</g>
</svg>
