<svg preserveAspectRatio="none" width="100%" height="100%" overflow="visible" style="display: block;" viewBox="0 0 84.3418 104.715" fill="none" xmlns="http://www.w3.org/2000/svg">
<g id="Group 12">
<path id="Vector" d="M84.1011 33.0934C84.4446 33.5887 84.3198 37.8625 84.3193 38.7872L84.3139 52.4599L84.3176 80.5929L84.3174 89.4029C84.3172 91.27 84.2926 93.0427 84.2269 94.9142C84.0693 99.4025 80.3888 103.8 75.8703 104.416C72.6159 104.859 68.6836 104.68 65.3103 104.678L46.1316 104.673L22.0857 104.672L14.7951 104.683C11.3817 104.689 7.62245 104.962 4.6778 102.902C-0.034697 99.6032 0.0103805 95.6837 0.0144092 90.5441L0.0234465 83.9358L0.0255159 60.4552L0.0238827 26.5737L0.0151718 16.1055C0.013103 14.0603 -0.0558207 11.4809 0.118285 9.48769C0.284877 7.54542 0.976507 5.68499 2.11924 4.10558C5.2613 -0.321657 9.88081 0.0275982 14.6651 0.0281644L24.2162 0.0345342L42.7057 0.0320082C43.9544 0.031246 52.5785 -0.120625 53.0942 0.243961C54.5728 1.3637 55.7956 3.03178 57.1166 4.38775C61.7977 9.26186 66.4315 14.1811 71.0175 19.1448L80.4567 29.1261C81.0525 29.7602 83.7343 32.527 84.1011 33.0934Z" fill="var(--fill-0, #E6262A)"/>
<path id="Vector_2" d="M53.0942 0.243997C54.5728 1.36374 55.7956 3.03182 57.1165 4.38779C61.7977 9.2619 66.4315 14.1812 71.0174 19.1448L80.4567 29.1261C81.0525 29.7603 83.7343 32.527 84.101 33.0934C83.488 33.313 74.2488 33.3472 73.2574 33.2494C69.5757 32.8863 60.5881 33.9143 57.4195 32.7987C55.7596 32.2286 54.4055 31.0039 53.6718 29.4096C53.281 28.5645 53.0456 27.656 52.9766 26.7275C52.8886 25.6566 52.9323 24.11 52.9338 23.009L52.9419 16.7346C52.9438 14.7213 52.7043 1.33386 53.0942 0.243997Z" fill="var(--fill-0, #EE6869)"/>
<path id="Vector_3" d="M35.8572 59.9197L40.3322 59.9081C43.5068 59.9055 46.3675 59.9236 48.8388 62.2003C53.0654 66.0937 53.0055 73.5873 49.2859 77.7173C46.5772 80.3513 43.9879 80.4237 40.4792 80.4214L35.8722 80.4128L35.8572 59.9197Z" fill="var(--fill-0, #FEFEFE)"/>
<path id="Vector_4" d="M40.8387 63.7301C42.1556 63.7364 43.886 63.6401 44.961 64.443C47.6691 66.4657 47.4113 72.7419 45.6915 75.2223C44.2116 76.7937 42.8193 76.6057 40.8505 76.6195C40.7672 72.4305 40.8399 67.941 40.8387 63.7301Z" fill="var(--fill-0, #E6262A)"/>
<path id="Vector_5" d="M17.1135 59.9129C21.3355 60.033 27.4871 59.0976 30.737 61.5746C32.1086 62.6345 32.9994 64.199 33.2111 65.9194C33.8437 70.6816 30.45 72.9121 26.2619 73.4249C24.9105 73.4654 23.4569 73.4428 22.0966 73.4432C22.0175 75.2105 22.0089 78.6606 22.112 80.4048L17.1244 80.412L17.1135 59.9129Z" fill="var(--fill-0, #FEFEFE)"/>
<path id="Vector_6" d="M22.0732 63.7431C23.4178 63.73 26.2405 63.4589 27.2588 64.4356C28.5186 65.6436 28.5814 67.6712 27.4011 69.0053C26.0842 69.8961 23.7352 69.65 22.0911 69.6395C22.0296 67.7468 22.0728 65.6507 22.0732 63.7431Z" fill="var(--fill-0, #E6262A)"/>
<path id="Vector_7" d="M54.4886 59.9194L68.2102 59.9252C68.2053 61.1923 68.1827 62.4855 68.2484 63.7492L59.4663 63.747L59.4646 68.4363L67.4197 68.4376L67.4255 71.9395L67.3867 72.127C67.0095 72.3298 60.3964 72.2414 59.4658 72.2397L59.4762 80.4077L54.498 80.4102C54.6082 78.4635 54.5154 75.3662 54.5157 73.3326L54.4886 59.9194Z" fill="var(--fill-0, #FEFEFE)"/>
</g>
</svg>
