<svg preserveAspectRatio="none" width="100%" height="100%" overflow="visible" style="display: block;" viewBox="0 0 41.7791 41.7791" fill="none" xmlns="http://www.w3.org/2000/svg">
<g id="Group 19">
<circle id="Ellipse 31" cx="20.8896" cy="20.8896" r="19.8896" fill="var(--fill-0, #FEE8D7)" stroke="var(--stroke-0, #242520)" stroke-width="2"/>
<path id="svg" d="M20.8895 39.7791C25.8993 39.7791 30.704 37.7889 34.2464 34.2464C37.7889 30.704 39.7791 25.8993 39.7791 20.8895C39.7791 15.8797 37.7889 11.0751 34.2464 7.53262C30.704 3.99014 25.8993 2 20.8895 2C15.8797 2 11.0751 3.99014 7.53262 7.53262C3.99014 11.0751 2 15.8797 2 20.8895C2 25.8993 3.99014 30.704 7.53262 34.2464C11.0751 37.7889 15.8797 39.7791 20.8895 39.7791ZM29.2275 17.4215L19.7827 26.8663C19.0891 27.5599 17.9676 27.5599 17.2813 26.8663L12.559 22.1439C11.8654 21.4503 11.8654 20.3287 12.559 19.6425C13.2526 18.9563 14.3741 18.9489 15.0603 19.6425L18.5283 23.1105L26.7187 14.9128C27.4123 14.2192 28.5339 14.2192 29.2201 14.9128C29.9063 15.6064 29.9137 16.7279 29.2201 17.4142L29.2275 17.4215Z" fill="var(--fill-0, #F5500E)"/>
</g>
</svg>
