<svg preserveAspectRatio="none" width="100%" height="100%" overflow="visible" style="display: block;" viewBox="0 0 95.4516 87.5371" fill="none" xmlns="http://www.w3.org/2000/svg">
<g id="Vector" opacity="0.15">
<path d="M25.8497 87.4926L35.6083 87.5001C37.1552 87.5038 38.8773 87.5933 40.4168 87.4218C41.453 87.3062 41.7773 86.4936 41.9935 85.5879C41.5648 84.1304 41.0915 83.7987 39.5595 83.78C36.5588 83.7465 33.5582 83.7651 30.5538 83.7651H13.6161C8.96417 83.7651 3.56676 84.9915 3.76059 78.6771C3.83141 76.3325 3.74942 73.7568 3.74942 71.3936L3.75315 17.6393C13.057 17.5052 22.6776 17.6319 32.015 17.6319H87.6628C88.9674 17.6319 90.4174 17.6021 91.7108 17.6505V73.466C91.7108 75.7435 91.7891 78.0956 91.6139 80.3656C91.4909 81.9759 89.9887 83.4185 88.4232 83.6794C87.4056 83.8397 86.1457 83.78 85.0983 83.7763L80.3047 83.7651H61.7977C59.9563 83.7577 57.6192 83.6384 55.7927 83.9142C55.2299 83.9999 54.5403 85.0399 54.5701 85.5655C54.5104 86.3632 55.338 87.4404 56.1729 87.474C57.4216 87.5262 58.7262 87.5038 59.9899 87.5038H80.7632C83.0519 87.5038 85.5829 87.556 87.8529 87.4852C89.944 87.4292 91.927 86.5384 93.3547 85.0138C95.6806 82.509 95.4495 79.7953 95.4421 76.6642V13.4124C95.4421 11.5486 95.4234 9.67742 95.4122 7.80994C95.3824 3.57551 92.1432 0.202122 87.9163 0.0492942C86.8688 0.0120193 85.799 0.0194743 84.7404 0.0194743L78.523 0.0269293L13.426 0.0194743C11.5548 0.0194743 9.28847 -0.0401657 7.45082 0.0492942C7.26071 0.0567492 7.07433 0.0716592 6.88423 0.0865692C3.15673 0.712788 0.346199 3.32204 0.0778189 7.23963C-0.0451884 9.04001 0.0144579 10.8926 0.0144579 12.7004V76.8618C0.00700286 80.552 -0.123445 83.6309 3.29094 86.0538C4.36819 86.8217 5.62434 87.2988 6.93642 87.4404C8.40505 87.6119 11.8679 87.5038 13.5192 87.5001H25.8386L25.8497 87.4926ZM7.21225 3.80288C8.08821 3.72833 9.43756 3.76188 10.3284 3.76188L85.4114 3.76933C87.3012 3.76933 89.0941 3.50096 90.5553 4.95468C91.845 6.24066 91.7295 8.16032 91.7332 9.83397C91.7332 11.1908 91.7258 12.5327 91.722 13.8783C90.5963 13.8969 89.4557 13.8895 88.3263 13.8932L3.76432 13.9044C3.74195 10.1657 2.63861 4.85404 7.21225 3.80288Z" fill="#242520"/>
<path d="M10.4179 11.0603C11.4281 10.9336 12.1475 10.0166 12.0282 9.00271C11.9089 7.99256 10.9957 7.2657 9.98177 7.37752C8.96044 7.48935 8.22614 8.41377 8.34542 9.43883C8.4647 10.4602 9.39657 11.187 10.4179 11.0603Z" fill="#242520"/>
<path d="M17.776 11.0379C18.7712 10.859 19.4384 9.9197 19.2782 8.92073C19.1179 7.92176 18.186 7.2359 17.187 7.37755C16.5235 7.47074 15.9607 7.91803 15.7184 8.54053C15.4761 9.16675 15.5879 9.87124 16.0166 10.3894C16.4415 10.9075 17.1162 11.1535 17.7723 11.0379H17.776Z" fill="#242520"/>
<path d="M44.5804 26.1455C44.5692 25.8808 43.861 25.1018 43.6261 25.0869C38.2697 24.7253 30.0767 24.9117 24.9999 24.9079L17.776 24.9005C16.4937 24.9005 14.6971 24.852 13.4558 24.9527C12.2779 25.5863 12.1475 26.0187 12.14 27.3383C12.1325 28.4081 12.1363 29.4928 12.14 30.5626L12.1474 62.4774C12.1474 66.3092 12.1363 70.1523 12.1474 73.9841C12.1586 74.5134 12.1735 74.9496 12.4867 75.4006C12.7588 75.7994 13.2061 76.0865 13.6944 76.1237C15.2226 76.243 16.8068 76.1983 18.3425 76.1983H38.0275C39.0376 76.1983 42.5079 76.2691 43.3764 76.0827C44.4313 75.6951 44.6736 75.1397 44.6773 74.0587C44.6997 70.2007 44.6848 66.3391 44.6848 62.4811V40.0788C44.6848 35.4456 44.7779 30.7564 44.5878 26.138L44.5804 26.1455ZM40.9498 43.0758L40.9423 72.4559H15.8749V28.6503C24.0344 28.546 32.7903 28.5609 40.9535 28.6615C40.8827 33.3917 40.9535 38.3269 40.9535 43.0758H40.9498Z" fill="#242520"/>
<path d="M33.0662 36.9515C31.6236 35.9264 29.5549 35.289 27.788 35.5052C25.3614 35.8333 23.4716 36.7726 21.9545 38.7407C20.9369 40.0602 19.3527 43.7728 21.0748 45.0737C21.4923 45.3943 22.0216 45.5247 22.5397 45.4353C23.9524 45.1967 23.9934 43.4597 24.2581 42.4123C24.9701 39.5682 28.4329 38.271 30.8408 39.9559C31.9554 40.7349 32.4213 41.4692 32.7083 42.8037C33.506 46.52 30.1438 47.0456 28.4739 48.954C26.9978 50.6911 26.435 52.5585 26.5393 54.8249C26.5952 56.0363 27.4414 56.9943 28.7124 56.8302C30.975 56.5395 29.9053 53.4494 30.7812 52.0814C31.4261 51.075 32.5145 50.5941 33.4426 49.9008C35.8208 48.1862 36.8757 45.0625 36.3948 42.211C36.0258 40.0826 34.8293 38.1928 33.0662 36.9478V36.9515Z" fill="#242520"/>
<path d="M27.8775 60.0359C26.9009 60.3378 26.3492 61.3703 26.6474 62.3469C26.9456 63.3235 27.9781 63.8789 28.9547 63.5844C29.9388 63.29 30.4942 62.25 30.196 61.2697C29.8978 60.2893 28.8578 59.7339 27.8775 60.0359Z" fill="#242520"/>
<path d="M51.0178 55.7828C51.0178 56.45 51.4241 56.901 51.8676 57.3148C53.3996 57.7509 58.1298 57.5645 59.9936 57.5645H77.852C78.6497 57.5645 80.6886 57.6093 81.382 57.4527C82.202 57.1471 82.7164 56.5357 82.7089 55.6486C82.6828 52.3237 82.7238 49.0323 82.7015 45.7036C82.6977 44.9395 82.4033 43.9853 81.5124 43.6982C79.4511 43.4224 76.5213 43.5491 74.4525 43.5529L56.4897 43.5491C55.2746 43.5491 53.5003 43.5044 52.3261 43.6051C51.8751 43.8324 51.152 44.2723 51.111 44.8239C50.8314 48.4359 51.0289 52.1634 51.0103 55.794L51.0178 55.7828ZM57.8391 47.2804C64.8803 47.3251 71.9365 47.2058 78.9777 47.3027L78.9703 53.8221H54.7266V47.3027C55.7591 47.2729 56.8066 47.2766 57.8428 47.2841L57.8391 47.2804Z" fill="#242520"/>
<path d="M82.709 27.0587C82.6829 25.4782 81.8218 24.8483 80.2823 24.9079C78.3441 24.9005 76.4095 24.9079 74.4749 24.9079L56.6612 24.9042C55.3901 24.9042 53.5599 24.8557 52.3261 24.9564C51.2191 25.5006 50.9991 26.0113 50.9954 27.2525C50.9842 30.4917 50.9693 33.7309 51.0029 36.9701C51.0103 37.7641 51.3234 38.1666 51.8714 38.6773C53.4034 39.1134 58.0553 38.927 59.9153 38.927H77.7626C78.5826 38.927 80.6663 38.9755 81.3857 38.8115C81.8926 38.6251 82.2244 38.4648 82.4741 37.9393C82.7686 37.313 82.7388 36.6085 82.7239 35.9339C82.6493 32.978 82.7574 30.0183 82.709 27.0624V27.0587ZM78.9703 35.1809H54.7266V28.6578C55.7554 28.628 56.8028 28.6317 57.8354 28.6392C64.8766 28.6802 71.9365 28.5683 78.9777 28.6615L78.9703 35.1809Z" fill="#242520"/>
<path d="M51.0103 74.3346C51.0252 75.0875 51.3533 75.4714 51.8639 75.9523C53.3885 76.3921 58.0106 76.202 59.8706 76.202H77.8371C78.6273 76.202 80.6774 76.2505 81.3857 76.0902C81.8777 75.9076 82.2318 75.71 82.4741 75.2142C82.612 74.931 82.6828 74.5992 82.7089 74.2898C82.817 73.0747 82.694 71.7589 82.6977 70.5288C82.7052 68.4898 82.817 66.3913 82.6977 64.3598C82.6754 63.9684 82.6307 63.5323 82.4853 63.167C82.3399 62.8054 81.8703 62.4625 81.5199 62.3283C81.0316 62.1382 54.9577 62.0748 52.3373 62.2388C51.8155 62.5035 51.2414 62.8427 51.1184 63.4577C50.9358 64.3933 50.988 65.4296 50.9917 66.3875C50.9991 69.0378 50.9619 71.6918 51.0103 74.3383V74.3346ZM63.7062 65.929L78.9777 65.9402L78.9703 72.4559H54.7266V65.9402C57.6676 65.8843 60.7577 65.929 63.7062 65.929Z" fill="#242520"/>
<path d="M47.7301 83.8807C46.7722 84.1938 46.2391 85.2151 46.5336 86.1805C46.8281 87.1459 47.842 87.6976 48.8111 87.4218C49.456 87.2391 49.948 86.721 50.1045 86.0687C50.2611 85.4164 50.0486 84.7343 49.5566 84.2795C49.0646 83.8248 48.3638 83.6719 47.7301 83.8807Z" fill="#242520"/>
</g>
</svg>
