<svg preserveAspectRatio="none" width="100%" height="100%" overflow="visible" style="display: block;" viewBox="0 0 107.032 75.4967" fill="none" xmlns="http://www.w3.org/2000/svg">
<g id="Vector" opacity="0.15">
<path d="M32.5365 10.7205C34.6375 10.5444 38.1269 10.654 40.3195 10.6544L78.743 10.6602C80.5651 10.6601 91.5002 10.4685 92.4771 10.9204C92.9697 11.1463 93.3498 11.562 93.531 12.0728C93.9641 13.2756 93.1973 14.3642 92.0631 14.7779C91.0688 14.9071 89.6028 14.87 88.5684 14.8688L42.7937 14.8596L37.0198 14.8734C35.3236 14.88 33.6679 14.9765 32.0066 14.6531C30.416 13.4225 30.5621 11.3722 32.5365 10.7205Z" fill="#242520"/>
<path d="M33.2084 21.0796C35.7632 20.9936 38.714 21.0627 41.2913 21.0623L68.2428 21.0559C70.3414 21.056 72.4371 21.0348 74.5347 21.0944C75.7865 21.1299 76.9305 21.4473 77.0879 22.9019C77.1489 23.4953 76.9711 24.0884 76.5936 24.5503C76.1124 25.1275 75.5585 25.197 74.8586 25.2606C72.339 25.3514 69.4555 25.2821 66.8929 25.2822L40.194 25.287C38.005 25.29 35.8018 25.3152 33.6139 25.2633C33.1278 25.2141 32.0076 25.2133 31.658 24.7966C30.1046 22.9445 31.1417 21.3108 33.2084 21.0796Z" fill="#242520"/>
<path d="M14.9089 8.43187C15.7042 8.38996 16.5003 8.36696 17.2967 8.36299C18.6076 8.36456 19.2821 8.46281 20.1909 9.37593C20.2287 9.4816 20.3483 9.88851 20.3585 9.98968C20.5872 12.2432 20.4792 14.8279 20.4901 17.103C20.4582 19.9032 20.5479 22.7136 20.4395 25.5114C20.3862 26.8893 19.8422 27.5379 18.5039 27.8115L17.4026 27.644C16.8202 27.188 16.4522 26.9449 16.3758 26.179C16.2214 24.6288 16.2818 22.9996 16.2839 21.4421L16.2986 12.6902C14.906 12.6753 13.3455 12.4816 13.0019 10.82C12.9012 10.3435 12.9985 9.84659 13.2714 9.44324C13.6947 8.81809 14.1988 8.56807 14.9089 8.43187Z" fill="#242520"/>
<path d="M53.6434 0.168474C54.7697 -0.0406771 55.8526 0.701962 56.0631 1.82799C56.2736 2.95412 55.5321 4.03782 54.4063 4.24969C53.5103 4.41828 52.6092 3.98253 52.185 3.1755C51.7607 2.36858 51.9126 1.37917 52.5595 0.736662C52.8555 0.442639 53.2331 0.244671 53.6434 0.168474Z" fill="#242520"/>
<path d="M60.8007 2.16553C61.3191 0.347036 61.8075 0.145934 63.6801 0.119385C65.9643 0.0869831 68.2511 0.103288 70.5355 0.103497L93.8539 0.108932C98.5235 0.109455 103.756 -0.690565 106.199 4.40724C106.543 5.12594 106.732 5.81924 107.032 6.52342V29.4695L106.995 29.542C106.664 30.214 106.485 31.0247 106.146 31.6558C104.315 35.0739 100.78 36.2034 97.1035 35.8399C97.0666 38.7087 97.0579 41.5779 97.0774 44.4469C97.0791 46.274 97.2077 49.1402 96.7745 50.8248C96.4198 52.1944 95.6936 53.4393 94.6759 54.422C92.5783 56.4335 90.2058 56.6652 87.4337 56.5827C87.2695 56.5781 87.1056 56.5682 86.9421 56.553C86.9229 58.7792 86.9208 61.0055 86.9358 63.2317C86.9404 65.1086 87.0569 68.0035 86.6045 69.7141C86.2592 71.0186 85.5736 72.208 84.6179 73.1605C81.6738 76.0539 77.9282 75.4446 74.1028 75.4406L39.9366 75.4331C36.2529 75.4333 32.5621 75.4337 28.8782 75.4446C26.3338 75.4522 24.1149 74.965 22.2633 73.0602C21.3637 72.116 20.722 70.9563 20.3999 69.6926C20.0812 68.4454 20.082 67.0277 20.0952 65.7425C20.1242 62.9152 20.0702 60.0729 20.1207 57.2473C20.1247 57.0388 20.1299 56.8303 20.1364 56.6219C17.0095 56.5611 14.4808 56.6688 12.0925 54.1879C11.2063 53.273 10.5716 52.1449 10.2496 50.9126C9.83702 49.3089 9.98193 46.6783 9.963 44.9577C9.92989 41.9491 10.0277 38.8882 9.95197 35.8782C5.81102 35.8616 2.22124 35.2461 0.47768 30.7371C0.367548 30.4523 0.159964 29.8091 0 29.5866V6.30569L0.0395221 6.23702C0.314532 5.7512 0.574768 5.03772 0.799962 4.50256C3.14996 -1.08148 10.0085 0.106215 15.1108 0.104961L38.3998 0.10705C40.4388 0.107991 42.4829 0.0807115 44.5198 0.153146C45.287 0.180427 45.747 0.4756 46.2979 0.978043C46.5786 1.65086 46.7664 2.3428 46.4664 3.04906C46.2512 3.5559 45.7869 3.90396 45.2844 4.09649C43.9845 4.59444 35.2561 4.33177 33.3127 4.3323L14.2629 4.32906C12.2494 4.32393 10.2086 4.29989 8.19417 4.33961C7.6576 4.35017 7.05227 4.41518 6.52955 4.53768C4.99888 4.9863 4.27159 6.45391 4.19541 7.96113C4.17335 14.5661 4.19218 21.1931 4.18997 27.7999C4.18999 29.3041 4.8255 30.6555 6.25664 31.2739C6.96288 31.5832 7.86682 31.576 8.63176 31.6094C14.6725 31.6131 20.7255 31.5998 26.7661 31.5993L94.8622 31.5998C96.326 31.6067 99.3131 31.7829 100.563 31.3208C101.433 31.0086 102.135 30.3491 102.5 29.4997C102.686 29.068 102.804 28.4971 102.816 28.0234C102.902 24.482 102.842 20.932 102.856 17.3886C102.867 14.5995 102.854 11.8087 102.853 9.01943C102.838 8.10213 102.864 7.2256 102.492 6.36297C102.227 5.74838 101.654 4.96895 100.99 4.74767C99.0852 4.11332 96.9844 4.3833 95.0023 4.32571C94.1043 4.29958 93.1447 4.32623 92.2347 4.32644L71.6198 4.32958L66.4061 4.34317C65.1382 4.35069 63.7862 4.40933 62.5331 4.23321C61.9137 4.14624 61.6153 3.84731 61.1493 3.4427C61.0359 3.03265 60.8974 2.57484 60.8007 2.16553ZM92.8796 35.8518L87.9562 35.8375L35.784 35.8454C34.8243 35.8469 31.4117 35.9228 30.6705 35.8016C30.5819 39.5632 29.2606 40.665 27.1571 43.7069C28.1755 43.7032 29.9571 43.5633 30.5316 44.3424C32.0278 46.2959 30.4918 48.1111 28.2175 47.9546C26.8916 47.8634 25.0572 48.1063 23.734 47.952C15.8449 47.0322 27.4462 39.0834 26.3077 36.2754C25.7917 35.6398 23.0555 35.8245 22.2038 35.8282L16.9795 35.8521C16.2471 35.855 14.8657 35.9061 14.1895 35.7578C14.0873 38.6082 14.1413 41.5972 14.1255 44.4567C14.1191 45.607 14.0627 48.6064 14.2573 49.6084C14.3764 50.2189 14.6642 50.7839 15.088 51.2393C15.9481 52.1644 17.1257 52.3515 18.326 52.3541C23.4196 52.3651 28.5244 52.3551 33.6176 52.3534L80.7916 52.354C83.0292 52.3564 87.5799 52.4896 89.6855 52.3013C90.4854 52.2323 91.2368 51.8888 91.8123 51.3291C92.9601 50.2159 92.9242 48.6398 92.9011 47.1393C92.8434 43.4085 92.9585 39.5712 92.8796 35.8518ZM29.5736 60.023C30.9834 59.2484 32.0933 59.3512 32.8581 60.8476C33.1401 61.3994 33.2746 62.006 33.6066 62.517C36.05 64.095 38.1316 62.0895 36.721 59.5546C34.8802 58.4358 33.4139 59.4142 33.0167 56.6297C31.1237 56.5521 29.2212 56.5946 27.3273 56.5875C26.3845 56.5841 25.2257 56.6593 24.3055 56.5578L24.2838 63.7828C24.2656 67.9165 23.6928 71.4534 29.1752 71.2229C30.3814 71.1722 31.8487 71.2212 33.089 71.2185L77.8204 71.2177C80.1169 71.2126 82.0496 71.0025 82.6169 68.2355C82.8978 66.8654 82.6983 65.4039 82.7589 64.0147C82.7761 61.5509 82.7221 59.0692 82.7602 56.608C79.5798 56.578 76.3991 56.5689 73.2185 56.5807L51.4329 56.5802C47.5594 56.5799 43.4308 56.6558 39.5843 56.5537C40.8349 57.8653 41.4938 59.3811 41.4442 61.2199C41.3981 62.8815 40.6899 64.4557 39.477 65.5924C38.2822 66.7239 36.6729 67.4141 35.0151 67.364C33.313 67.3111 31.7032 66.5776 30.5464 65.3282C29.2048 63.8823 28.2387 61.7986 29.5736 60.023Z" fill="#242520"/>
<path d="M38.2304 41.3342C40.1838 41.1922 42.9545 41.2737 44.9856 41.2734L74.9524 41.2713C78.1172 41.2716 81.2951 41.2593 84.4597 41.289C85.0228 41.3314 85.7843 41.3053 86.3091 41.5187C87.4531 41.9839 87.809 43.1759 87.2761 44.2557C86.9079 45.002 86.5455 45.2097 85.7782 45.4868C85.6911 45.4986 85.6038 45.5081 85.5163 45.5155C83.2369 45.7003 79.3549 45.5629 76.9149 45.5622L46.042 45.5645C43.5704 45.5699 40.9912 45.6478 38.5314 45.51C37.93 45.4764 37.3713 45.0633 36.9259 44.6871C36.8737 44.5577 36.8234 44.4275 36.7752 44.2965C36.2604 42.8839 36.8171 41.7984 38.2304 41.3342Z" fill="#242520"/>
<path d="M47.6081 61.9437C48.9767 61.8304 50.9695 61.8853 52.384 61.8852L70.2202 61.889C72.0755 61.8884 73.8627 61.8913 75.7757 61.9261C77.6655 61.9604 78.8257 63.3182 77.859 65.1467C77.5589 65.7142 76.9143 65.9624 76.2969 66.0876C74.9312 66.1825 73.0295 66.1274 71.6286 66.127L53.7918 66.1293C52.0192 66.134 50.2413 66.1636 48.4695 66.1221C46.6053 66.0784 46.1808 65.7182 45.7632 63.9824C46.0814 62.7487 46.3134 62.236 47.6081 61.9437Z" fill="#242520"/>
</g>
</svg>
