<svg xmlns="http://www.w3.org/2000/svg" width="89" height="134" viewBox="0 0 89 134" fill="none">
  <path d="M62.5815 61.6303C62.5821 61.629 62.5833 61.6281 62.5848 61.6281H87.8538C88.4061 61.6281 88.8538 61.1804 88.8538 60.6281V25.023C88.8538 24.4707 88.4061 24.023 87.8538 24.023H59.4781C58.9258 24.023 58.4781 23.5752 58.4781 23.023V1C58.4781 0.447716 58.0304 0 57.4781 0H0.999999C0.447714 0 -0.000815983 0.449831 0.00796019 1.00205C0.396996 25.481 15.0143 47.3826 36.9046 56.6333C37.9731 57.0849 37.655 59.0103 36.495 59.0103H1C0.447716 59.0103 0 59.458 0 60.0103V99.5387C0 127.323 8.05858 133.802 42.7754 133.802C58.5713 133.802 73.9732 132.8 88.0037 130.793C88.4949 130.723 88.858 130.301 88.858 129.805V92.6057C88.858 91.977 88.2855 91.5042 87.6656 91.6098C82.4741 92.4941 76.0243 92.8545 70.4678 92.8545C59.931 92.8545 58.4824 91.6023 58.4824 82.4093V62.5655C58.4824 61.9905 58.9661 61.5347 59.5405 61.5606C60.5483 61.6061 61.5621 61.6324 62.5782 61.6325C62.5796 61.6325 62.5809 61.6316 62.5815 61.6303Z" fill="#F5500E"/>
</svg>
